<svg width="1512" height="1584" viewBox="0 0 1512 1584" fill="none"
    xmlns="http://www.w3.org/2000/svg">
    <g clip-path="url(#clip0_206_891)">
        <g style="mix-blend-mode:plus-lighter" opacity="0.4" filter="url(#filter0_f_206_891)">
            <path
                d="M138.879 318.956C49.9314 237.888 90.1197 413.753 21.9125 414.559C-22.5964 400.107 -126.216 387.543 -184.625 452.905C-257.637 534.606 -71.7464 664.487 10.8153 745.311C93.377 826.134 190.239 703.294 236.025 656.943C281.811 610.592 227.827 400.024 138.879 318.956Z"
                fill="#FFDD80" />
        </g>
        <g style="mix-blend-mode:plus-lighter" opacity="0.4" filter="url(#filter1_f_206_891)">
            <path
                d="M1543.88 399.956C1454.93 318.887 1495.12 494.753 1426.91 495.559C1382.4 481.107 1278.78 468.543 1220.37 533.904C1147.36 615.606 1333.25 745.487 1415.82 826.311C1498.38 907.134 1595.24 784.294 1641.02 737.943C1686.81 691.592 1632.83 481.024 1543.88 399.956Z"
                fill="#F17AAD" />
        </g>
        <g style="mix-blend-mode:plus-lighter" opacity="0.4" filter="url(#filter2_f_206_891)">
            <path
                d="M894.879 797.956C805.931 716.887 846.12 892.753 777.912 893.559C733.404 879.107 629.784 866.543 571.375 931.904C498.363 1013.61 684.254 1143.49 766.815 1224.31C849.377 1305.13 946.239 1182.29 992.025 1135.94C1037.81 1089.59 983.827 879.024 894.879 797.956Z"
                fill="#75EDEF" />
        </g>
    </g>
    <defs>
        <filter id="filter0_f_206_891" x="-601.271" y="-102.394" width="1253.94" height="1274.58"
            filterUnits="userSpaceOnUse" color-interpolation-filters="sRGB">
            <feFlood flood-opacity="0" result="BackgroundImageFix" />
            <feBlend mode="normal" in="SourceGraphic" in2="BackgroundImageFix" result="shape" />
            <feGaussianBlur stdDeviation="200" result="effect1_foregroundBlur_206_891" />
        </filter>
        <filter id="filter1_f_206_891" x="803.729" y="-21.3945" width="1253.94" height="1274.58"
            filterUnits="userSpaceOnUse" color-interpolation-filters="sRGB">
            <feFlood flood-opacity="0" result="BackgroundImageFix" />
            <feBlend mode="normal" in="SourceGraphic" in2="BackgroundImageFix" result="shape" />
            <feGaussianBlur stdDeviation="200" result="effect1_foregroundBlur_206_891" />
        </filter>
        <filter id="filter2_f_206_891" x="154.729" y="376.605" width="1253.94" height="1274.58"
            filterUnits="userSpaceOnUse" color-interpolation-filters="sRGB">
            <feFlood flood-opacity="0" result="BackgroundImageFix" />
            <feBlend mode="normal" in="SourceGraphic" in2="BackgroundImageFix" result="shape" />
            <feGaussianBlur stdDeviation="200" result="effect1_foregroundBlur_206_891" />
        </filter>
        <clipPath id="clip0_206_891">
            <rect width="1512" height="1584" fill="white" />
        </clipPath>
    </defs>
</svg>
    