<svg width="1512" height="1492" viewBox="0 0 1512 1492" fill="none"
    xmlns="http://www.w3.org/2000/svg">
    <g clip-path="url(#clip0_206_869)">
        <path
            d="M1040.1 702.6L1011 735H1514V581L1449.43 615.4L1431.1 610.2L1369.32 652.6L1335.04 633.8L1280.83 638.6L1250.14 647H1209.49L1151.7 670.6L1130.57 663.8L1071.18 702.6H1040.1Z"
            fill="url(#paint0_linear_206_869)" />
        <g style="mix-blend-mode:plus-lighter" opacity="0.4" filter="url(#filter0_f_206_869)">
            <path
                d="M1229.19 899.023C1318.13 980.091 1277.94 804.225 1346.15 803.419C1390.66 817.871 1494.28 830.435 1552.69 765.074C1625.7 683.372 1439.81 553.491 1357.25 472.668C1274.69 391.844 1177.83 514.684 1132.04 561.035C1086.25 607.387 1140.24 817.954 1229.19 899.023Z"
                fill="#FFDD80" />
        </g>
        <rect x="1514" y="1111" width="1516" height="376" transform="rotate(-180 1514 1111)"
            fill="url(#paint1_linear_206_869)" />
        <path
            d="M1010.83 903.884C1056.45 897.415 1083.66 889.255 1083.66 880.395C1083.66 872.496 1062.05 865.154 1025.04 859.071C1127.41 856.472 1200 849.955 1200 842.323C1200 833.297 1098.36 825.825 965.992 824.561C965.992 824.496 966.017 824.436 966.017 824.371C966.017 820.531 955.078 816.923 935.819 813.772C1074.57 811.261 1173.86 804.537 1173.86 796.644C1173.86 789.481 1092.15 783.285 973.39 780.323C994.253 777.843 1006.54 774.798 1006.54 771.51C1006.54 763.398 931.826 756.78 837.955 756.395C884.365 754.122 915.042 750.199 915.042 745.73C915.042 738.703 838.996 733 745.184 733C651.373 733 575.327 738.697 575.327 745.73C575.327 752.763 648.403 758.234 739.655 758.448C687.237 761.077 652.047 765.938 652.047 771.504C652.047 774.555 662.628 777.392 680.82 779.772C549.148 782.466 456.224 789 456.224 796.638C456.224 801.101 487.958 805.19 540.615 808.353C493.419 812.401 464.066 818.08 464.066 824.365C464.066 833.605 527.483 841.534 617.804 844.905C490.33 850.436 400 864.234 400 880.389C400 893.92 463.374 905.801 558.858 912.549C558.645 912.697 558.525 912.852 558.525 913C558.525 918.525 702.127 923 879.263 923C1056.4 923 1199.99 918.525 1199.99 913C1199.99 908.941 1122.35 905.445 1010.82 903.878L1010.83 903.884Z"
            fill="url(#paint2_linear_206_869)" />
        <path
            d="M576.834 729.81L545.423 723.634V697.813H516.43L516.467 707.97H502.687V689.05H475.181L475.237 717.457H472.838V709.402H468.802V701.645H465.566V694.371H453.515V671.489H426.01L426.084 707.988H411.485V689.069H383.98V699.171H358.743V712.193H354.577V704.417H344.33V682.037H336.259V674.261H319.949V679.451H313.998V681.553H311.99V672.345H287.553V657.425H279.481V649.649H263.172V654.839H257.22V656.942H250.897V669.015H249.056V670.671H235.462V666.094H232.319V657.202H217.813V630.618H188.819L188.857 643.919H167.377L163.639 556.801H167.563C172.435 556.913 172.361 553.788 172.361 553.788C172.324 552.43 171.468 551.667 170.613 551.258C173.16 549.286 173.365 544.84 173.365 544.84C173.365 541.045 169.943 538.738 169.943 538.738V533.083H163.657V528.32C164.457 527.892 165.033 527.241 164.996 526.181C164.996 526.181 164.55 524.86 162.467 524.19V485.868C163.564 485.366 164.513 484.454 164.494 482.761C164.494 482.761 164.085 480.752 162.132 479.692V453.536H161.426V443.174H160.719L159.454 413L158.394 443.174H157.483V453.536H156.832V479.636C155.809 480.101 154.805 480.957 154.526 482.52C154.526 482.52 154.284 484.473 156.293 485.626V524.042C155.009 524.302 153.763 524.841 153.708 526.013C153.708 526.013 153.336 527.353 154.954 528.246V533.064H148.928V538.719C145.357 540.952 145.246 544.226 145.246 544.226C145.246 548.616 147.756 551.146 147.756 551.146C145.767 552.281 146.306 554.16 146.306 554.16C146.417 556.783 152.759 556.783 154.507 556.727L149.97 683.6H147.496V664.997H145.711V663.099H142.531V664.755H128.936V660.179H123.301V664.253H116.532V655.063H87.5383L87.5941 671.508H67.3602V612.35H39.8547L39.9849 671.192H36.842V663.136H32.8063V655.379H29.5704V648.105H16.5151V654.877H11.9959V663.825H8.85298V671.285H5.50546V693.887V644.701H-22L-21.814 735H581L576.816 729.847L576.834 729.81Z"
            fill="url(#paint3_linear_206_869)" />
        <path
            d="M576.834 729.81L545.423 723.634V697.813H516.43L516.467 707.97H502.687V689.05H475.181L475.237 717.457H472.838V709.402H468.802V701.645H465.566V694.371H453.515V671.489H426.01L426.084 707.988H411.485V689.069H383.98V699.171H358.743V712.193H354.577V704.417H344.33V682.037H336.259V674.261H319.949V679.451H313.998V681.553H311.99V672.345H287.553V657.425H279.481V649.649H263.172V654.839H257.22V656.942H250.897V669.015H249.056V670.671H235.462V666.094H232.319V657.202H217.813V630.618H188.819L188.857 643.919H167.377L163.639 556.801H167.563C172.435 556.913 172.361 553.788 172.361 553.788C172.324 552.43 171.468 551.667 170.613 551.258C173.16 549.286 173.365 544.84 173.365 544.84C173.365 541.045 169.943 538.738 169.943 538.738V533.083H163.657V528.32C164.457 527.892 165.033 527.241 164.996 526.181C164.996 526.181 164.55 524.86 162.467 524.19V485.868C163.564 485.366 164.513 484.454 164.494 482.761C164.494 482.761 164.085 480.752 162.132 479.692V453.536H161.426V443.174H160.719L159.454 413L158.394 443.174H157.483V453.536H156.832V479.636C155.809 480.101 154.805 480.957 154.526 482.52C154.526 482.52 154.284 484.473 156.293 485.626V524.042C155.009 524.302 153.763 524.841 153.708 526.013C153.708 526.013 153.336 527.353 154.954 528.246V533.064H148.928V538.719C145.357 540.952 145.246 544.226 145.246 544.226C145.246 548.616 147.756 551.146 147.756 551.146C145.767 552.281 146.306 554.16 146.306 554.16C146.417 556.783 152.759 556.783 154.507 556.727L149.97 683.6H147.496V664.997H145.711V663.099H142.531V664.755H128.936V660.179H123.301V664.253H116.532V655.063H87.5383L87.5941 671.508H67.3602V612.35H39.8547L39.9849 671.192H36.842V663.136H32.8063V655.379H29.5704V648.105H16.5151V654.877H11.9959V663.825H8.85298V671.285H5.50546V693.887V644.701H-22L-21.814 735H581L576.816 729.847L576.834 729.81Z"
            fill="url(#paint4_radial_206_869)" fill-opacity="0.2" />
        <g filter="url(#filter1_f_206_869)">
            <path
                d="M525.359 759.529L497.907 764.919V787.452H472.568L472.601 778.588H460.557V795.099H436.518L436.567 770.309H434.47V777.338H430.943V784.108H428.115V790.456H417.583V810.424H393.544L393.609 778.572H380.85V795.083H356.812V786.267H334.756V774.903H331.115V781.689H322.159V801.219H315.105V808.005H300.851V803.476H295.65V801.641H293.895V809.677H272.538V822.697H265.484V829.483H251.23V824.954H246.028V823.119H240.502V812.583H238.893V811.138H227.012V815.132H224.265V822.892H211.587V846.091H186.248L186.281 834.483H167.508L164.241 910.509H167.671C171.929 910.411 171.864 913.139 171.864 913.139C171.832 914.324 171.084 914.989 170.336 915.346C172.563 917.067 172.742 920.947 172.742 920.947C172.742 924.259 169.751 926.272 169.751 926.272V931.207H164.258V935.363C164.957 935.737 165.46 936.305 165.428 937.23C165.428 937.23 165.038 938.383 163.217 938.967V972.41C164.176 972.848 165.005 973.644 164.989 975.121C164.989 975.121 164.631 976.875 162.925 977.8V1000.63H162.307V1009.67H161.69L160.584 1036L159.658 1009.67H158.861V1000.63H158.293V977.849C157.399 977.443 156.521 976.696 156.277 975.332C156.277 975.332 156.066 973.628 157.821 972.621V939.097C156.7 938.87 155.611 938.399 155.562 937.376C155.562 937.376 155.237 936.208 156.651 935.428V931.224H151.385V926.288C148.264 924.34 148.167 921.483 148.167 921.483C148.167 917.652 150.361 915.444 150.361 915.444C148.622 914.454 149.093 912.814 149.093 912.814C149.191 910.525 154.733 910.525 156.261 910.574L152.295 799.855H150.133V816.09H148.573V817.746H145.794V816.301H133.913V820.294H128.988V816.739H123.072V824.759H97.7325L97.7812 810.408H80.0975V862.033H56.0588L56.1726 810.684H53.4257V817.713H49.8987V824.483H47.0707V830.831H35.6608V824.921H31.7112V817.113H28.9644V810.603H26.0388V790.878V833.801H2L2.16253 755H529L525.343 759.497L525.359 759.529Z"
                fill="url(#paint5_linear_206_869)" />
        </g>
        <g style="mix-blend-mode:plus-lighter" opacity="0.4" filter="url(#filter2_f_206_869)">
            <path
                d="M27.1852 971.023C116.133 1052.09 75.9448 876.225 144.152 875.419C188.661 889.871 292.281 902.435 350.69 837.074C423.701 755.372 237.811 625.491 155.249 544.668C72.6874 463.844 -24.1747 586.684 -69.9604 633.035C-115.746 679.387 -61.7626 889.954 27.1852 971.023Z"
                fill="#F17AAD" />
        </g>
        <path
            d="M1461.93 715.109L1540 706V798H951L965.512 785.475L1041.08 773.634L1056.59 761.564L1118.14 753.139L1127.65 744.03L1194.21 739.475L1220.23 726.723L1279.28 720.574L1315.31 729.455H1334.33L1407.39 723.307H1448.92L1461.93 715.109Z"
            fill="url(#paint6_linear_206_869)" />
        <path
            d="M1461.93 715.109L1540 706V798H951L965.512 785.475L1041.08 773.634L1056.59 761.564L1118.14 753.139L1127.65 744.03L1194.21 739.475L1220.23 726.723L1279.28 720.574L1315.31 729.455H1334.33L1407.39 723.307H1448.92L1461.93 715.109Z"
            fill="url(#paint7_radial_206_869)" fill-opacity="0.2" />
        <g filter="url(#filter3_iii_206_869)">
            <g opacity="0.2" filter="url(#filter4_i_206_869)">
                <path
                    d="M1222.98 960.417C1222.98 960.417 1225.95 957.261 1228.62 955.965C1228.62 955.965 1234.3 954.241 1237.17 954.115C1237.17 954.115 1240.7 953.173 1242.94 950.835C1242.94 950.835 1253.09 954.317 1256.21 959.917C1256.21 959.917 1258.46 964.808 1259.65 964.52C1259.65 964.52 1261.02 963.968 1260.26 960.602C1260.26 960.602 1266.79 964.755 1269.08 967.208C1269.08 967.208 1272.1 969.256 1273.28 968.301C1273.28 968.301 1275.05 967.554 1272.41 963.898C1272.41 963.898 1279.54 966.964 1282.35 969.178C1282.35 969.178 1284.86 971.248 1286.25 970.657C1286.25 970.657 1287.79 969.98 1286.1 967.205C1286.1 967.205 1291.17 969.536 1292.87 972.487C1292.87 972.487 1293.81 973.762 1294.97 972.905C1294.97 972.905 1296.32 973.101 1294.18 969.305C1294.18 969.305 1299.85 972.651 1301.51 975.053C1301.51 975.053 1304.18 975.014 1300.7 970.098C1300.7 970.098 1299.97 967.36 1296.41 963.136C1296.41 963.136 1304.32 966.54 1306.87 970.554C1306.87 970.554 1311.28 973.031 1307.57 964.924C1307.57 964.924 1299.2 944.977 1268.8 941.247C1268.8 941.247 1258 940.033 1249.04 942.118C1249.04 942.118 1257.03 932.708 1264.38 928.239C1264.38 928.239 1267.39 926.063 1278.09 926.044C1278.09 926.044 1300.16 926.191 1307.07 924.708C1307.07 924.708 1309.36 924.077 1312.42 922.508C1312.42 922.508 1317.12 921.22 1323.22 922.759C1323.22 922.759 1337.22 926.622 1345.77 923.298C1345.77 923.298 1364.95 916.696 1367.71 906.575C1367.71 906.575 1370.66 892.692 1366.6 881.279C1366.6 881.279 1365.17 875.605 1363.13 871.274C1363.13 871.274 1361.37 865.261 1365.63 859.847C1365.63 859.847 1368.27 855.585 1369.43 849.777C1369.43 849.777 1367.96 832.455 1365.45 822.172C1365.45 822.172 1360.22 807.431 1355.92 800.842C1355.92 800.842 1354.14 798.779 1350.43 798.746C1346.71 798.714 1347.35 801.554 1347.56 802.841C1347.56 802.841 1353.03 820.008 1354.23 826.753C1354.23 826.753 1357.89 841.071 1352.56 850.207C1352.56 850.207 1349.3 855.321 1343.71 858.141C1343.71 858.141 1333.66 862.808 1329.65 867.66C1329.65 867.66 1315.28 865.189 1308.66 863.948C1308.66 863.948 1295.82 861.39 1286.78 865.875C1286.78 865.875 1285.33 850.024 1283.27 837.973C1283.27 837.973 1276.05 810.019 1270.15 805.053C1270.15 805.053 1268.17 804.158 1264.49 805.459C1264.49 805.459 1261.63 806.116 1263.47 809.925C1263.47 809.925 1272.19 824.983 1270.14 842.304C1270.14 842.304 1266.39 867.362 1259.56 874.677C1259.56 874.677 1248.01 887.151 1239.91 909.67C1239.91 909.67 1236.5 918.072 1228.07 926.007C1228.07 926.007 1219.49 930.158 1215.59 940.664C1215.59 940.664 1211.29 946.06 1210.39 950.559C1210.39 950.559 1207.08 957.601 1209.73 960.667C1209.73 960.667 1215.17 966.852 1222.95 960.439L1222.98 960.417Z"
                    fill="url(#paint8_radial_206_869)" fill-opacity="0.6" />
                <path
                    d="M1222.98 960.417C1222.98 960.417 1225.95 957.261 1228.62 955.965C1228.62 955.965 1234.3 954.241 1237.17 954.115C1237.17 954.115 1240.7 953.173 1242.94 950.835C1242.94 950.835 1253.09 954.317 1256.21 959.917C1256.21 959.917 1258.46 964.808 1259.65 964.52C1259.65 964.52 1261.02 963.968 1260.26 960.602C1260.26 960.602 1266.79 964.755 1269.08 967.208C1269.08 967.208 1272.1 969.256 1273.28 968.301C1273.28 968.301 1275.05 967.554 1272.41 963.898C1272.41 963.898 1279.54 966.964 1282.35 969.178C1282.35 969.178 1284.86 971.248 1286.25 970.657C1286.25 970.657 1287.79 969.98 1286.1 967.205C1286.1 967.205 1291.17 969.536 1292.87 972.487C1292.87 972.487 1293.81 973.762 1294.97 972.905C1294.97 972.905 1296.32 973.101 1294.18 969.305C1294.18 969.305 1299.85 972.651 1301.51 975.053C1301.51 975.053 1304.18 975.014 1300.7 970.098C1300.7 970.098 1299.97 967.36 1296.41 963.136C1296.41 963.136 1304.32 966.54 1306.87 970.554C1306.87 970.554 1311.28 973.031 1307.57 964.924C1307.57 964.924 1299.2 944.977 1268.8 941.247C1268.8 941.247 1258 940.033 1249.04 942.118C1249.04 942.118 1257.03 932.708 1264.38 928.239C1264.38 928.239 1267.39 926.063 1278.09 926.044C1278.09 926.044 1300.16 926.191 1307.07 924.708C1307.07 924.708 1309.36 924.077 1312.42 922.508C1312.42 922.508 1317.12 921.22 1323.22 922.759C1323.22 922.759 1337.22 926.622 1345.77 923.298C1345.77 923.298 1364.95 916.696 1367.71 906.575C1367.71 906.575 1370.66 892.692 1366.6 881.279C1366.6 881.279 1365.17 875.605 1363.13 871.274C1363.13 871.274 1361.37 865.261 1365.63 859.847C1365.63 859.847 1368.27 855.585 1369.43 849.777C1369.43 849.777 1367.96 832.455 1365.45 822.172C1365.45 822.172 1360.22 807.431 1355.92 800.842C1355.92 800.842 1354.14 798.779 1350.43 798.746C1346.71 798.714 1347.35 801.554 1347.56 802.841C1347.56 802.841 1353.03 820.008 1354.23 826.753C1354.23 826.753 1357.89 841.071 1352.56 850.207C1352.56 850.207 1349.3 855.321 1343.71 858.141C1343.71 858.141 1333.66 862.808 1329.65 867.66C1329.65 867.66 1315.28 865.189 1308.66 863.948C1308.66 863.948 1295.82 861.39 1286.78 865.875C1286.78 865.875 1285.33 850.024 1283.27 837.973C1283.27 837.973 1276.05 810.019 1270.15 805.053C1270.15 805.053 1268.17 804.158 1264.49 805.459C1264.49 805.459 1261.63 806.116 1263.47 809.925C1263.47 809.925 1272.19 824.983 1270.14 842.304C1270.14 842.304 1266.39 867.362 1259.56 874.677C1259.56 874.677 1248.01 887.151 1239.91 909.67C1239.91 909.67 1236.5 918.072 1228.07 926.007C1228.07 926.007 1219.49 930.158 1215.59 940.664C1215.59 940.664 1211.29 946.06 1210.39 950.559C1210.39 950.559 1207.08 957.601 1209.73 960.667C1209.73 960.667 1215.17 966.852 1222.95 960.439L1222.98 960.417Z"
                    fill="url(#paint9_radial_206_869)" fill-opacity="0.2" />
                <path
                    d="M1222.98 960.417C1222.98 960.417 1225.95 957.261 1228.62 955.965C1228.62 955.965 1234.3 954.241 1237.17 954.115C1237.17 954.115 1240.7 953.173 1242.94 950.835C1242.94 950.835 1253.09 954.317 1256.21 959.917C1256.21 959.917 1258.46 964.808 1259.65 964.52C1259.65 964.52 1261.02 963.968 1260.26 960.602C1260.26 960.602 1266.79 964.755 1269.08 967.208C1269.08 967.208 1272.1 969.256 1273.28 968.301C1273.28 968.301 1275.05 967.554 1272.41 963.898C1272.41 963.898 1279.54 966.964 1282.35 969.178C1282.35 969.178 1284.86 971.248 1286.25 970.657C1286.25 970.657 1287.79 969.98 1286.1 967.205C1286.1 967.205 1291.17 969.536 1292.87 972.487C1292.87 972.487 1293.81 973.762 1294.97 972.905C1294.97 972.905 1296.32 973.101 1294.18 969.305C1294.18 969.305 1299.85 972.651 1301.51 975.053C1301.51 975.053 1304.18 975.014 1300.7 970.098C1300.7 970.098 1299.97 967.36 1296.41 963.136C1296.41 963.136 1304.32 966.54 1306.87 970.554C1306.87 970.554 1311.28 973.031 1307.57 964.924C1307.57 964.924 1299.2 944.977 1268.8 941.247C1268.8 941.247 1258 940.033 1249.04 942.118C1249.04 942.118 1257.03 932.708 1264.38 928.239C1264.38 928.239 1267.39 926.063 1278.09 926.044C1278.09 926.044 1300.16 926.191 1307.07 924.708C1307.07 924.708 1309.36 924.077 1312.42 922.508C1312.42 922.508 1317.12 921.22 1323.22 922.759C1323.22 922.759 1337.22 926.622 1345.77 923.298C1345.77 923.298 1364.95 916.696 1367.71 906.575C1367.71 906.575 1370.66 892.692 1366.6 881.279C1366.6 881.279 1365.17 875.605 1363.13 871.274C1363.13 871.274 1361.37 865.261 1365.63 859.847C1365.63 859.847 1368.27 855.585 1369.43 849.777C1369.43 849.777 1367.96 832.455 1365.45 822.172C1365.45 822.172 1360.22 807.431 1355.92 800.842C1355.92 800.842 1354.14 798.779 1350.43 798.746C1346.71 798.714 1347.35 801.554 1347.56 802.841C1347.56 802.841 1353.03 820.008 1354.23 826.753C1354.23 826.753 1357.89 841.071 1352.56 850.207C1352.56 850.207 1349.3 855.321 1343.71 858.141C1343.71 858.141 1333.66 862.808 1329.65 867.66C1329.65 867.66 1315.28 865.189 1308.66 863.948C1308.66 863.948 1295.82 861.39 1286.78 865.875C1286.78 865.875 1285.33 850.024 1283.27 837.973C1283.27 837.973 1276.05 810.019 1270.15 805.053C1270.15 805.053 1268.17 804.158 1264.49 805.459C1264.49 805.459 1261.63 806.116 1263.47 809.925C1263.47 809.925 1272.19 824.983 1270.14 842.304C1270.14 842.304 1266.39 867.362 1259.56 874.677C1259.56 874.677 1248.01 887.151 1239.91 909.67C1239.91 909.67 1236.5 918.072 1228.07 926.007C1228.07 926.007 1219.49 930.158 1215.59 940.664C1215.59 940.664 1211.29 946.06 1210.39 950.559C1210.39 950.559 1207.08 957.601 1209.73 960.667C1209.73 960.667 1215.17 966.852 1222.95 960.439L1222.98 960.417Z"
                    fill="url(#paint10_linear_206_869)" fill-opacity="0.2" />
                <path
                    d="M1222.98 960.417C1222.98 960.417 1225.95 957.261 1228.62 955.965C1228.62 955.965 1234.3 954.241 1237.17 954.115C1237.17 954.115 1240.7 953.173 1242.94 950.835C1242.94 950.835 1253.09 954.317 1256.21 959.917C1256.21 959.917 1258.46 964.808 1259.65 964.52C1259.65 964.52 1261.02 963.968 1260.26 960.602C1260.26 960.602 1266.79 964.755 1269.08 967.208C1269.08 967.208 1272.1 969.256 1273.28 968.301C1273.28 968.301 1275.05 967.554 1272.41 963.898C1272.41 963.898 1279.54 966.964 1282.35 969.178C1282.35 969.178 1284.86 971.248 1286.25 970.657C1286.25 970.657 1287.79 969.98 1286.1 967.205C1286.1 967.205 1291.17 969.536 1292.87 972.487C1292.87 972.487 1293.81 973.762 1294.97 972.905C1294.97 972.905 1296.32 973.101 1294.18 969.305C1294.18 969.305 1299.85 972.651 1301.51 975.053C1301.51 975.053 1304.18 975.014 1300.7 970.098C1300.7 970.098 1299.97 967.36 1296.41 963.136C1296.41 963.136 1304.32 966.54 1306.87 970.554C1306.87 970.554 1311.28 973.031 1307.57 964.924C1307.57 964.924 1299.2 944.977 1268.8 941.247C1268.8 941.247 1258 940.033 1249.04 942.118C1249.04 942.118 1257.03 932.708 1264.38 928.239C1264.38 928.239 1267.39 926.063 1278.09 926.044C1278.09 926.044 1300.16 926.191 1307.07 924.708C1307.07 924.708 1309.36 924.077 1312.42 922.508C1312.42 922.508 1317.12 921.22 1323.22 922.759C1323.22 922.759 1337.22 926.622 1345.77 923.298C1345.77 923.298 1364.95 916.696 1367.71 906.575C1367.71 906.575 1370.66 892.692 1366.6 881.279C1366.6 881.279 1365.17 875.605 1363.13 871.274C1363.13 871.274 1361.37 865.261 1365.63 859.847C1365.63 859.847 1368.27 855.585 1369.43 849.777C1369.43 849.777 1367.96 832.455 1365.45 822.172C1365.45 822.172 1360.22 807.431 1355.92 800.842C1355.92 800.842 1354.14 798.779 1350.43 798.746C1346.71 798.714 1347.35 801.554 1347.56 802.841C1347.56 802.841 1353.03 820.008 1354.23 826.753C1354.23 826.753 1357.89 841.071 1352.56 850.207C1352.56 850.207 1349.3 855.321 1343.71 858.141C1343.71 858.141 1333.66 862.808 1329.65 867.66C1329.65 867.66 1315.28 865.189 1308.66 863.948C1308.66 863.948 1295.82 861.39 1286.78 865.875C1286.78 865.875 1285.33 850.024 1283.27 837.973C1283.27 837.973 1276.05 810.019 1270.15 805.053C1270.15 805.053 1268.17 804.158 1264.49 805.459C1264.49 805.459 1261.63 806.116 1263.47 809.925C1263.47 809.925 1272.19 824.983 1270.14 842.304C1270.14 842.304 1266.39 867.362 1259.56 874.677C1259.56 874.677 1248.01 887.151 1239.91 909.67C1239.91 909.67 1236.5 918.072 1228.07 926.007C1228.07 926.007 1219.49 930.158 1215.59 940.664C1215.59 940.664 1211.29 946.06 1210.39 950.559C1210.39 950.559 1207.08 957.601 1209.73 960.667C1209.73 960.667 1215.17 966.852 1222.95 960.439L1222.98 960.417Z"
                    fill="url(#paint11_linear_206_869)" fill-opacity="0.2" />
                <path
                    d="M1222.98 960.417C1222.98 960.417 1225.95 957.261 1228.62 955.965C1228.62 955.965 1234.3 954.241 1237.17 954.115C1237.17 954.115 1240.7 953.173 1242.94 950.835C1242.94 950.835 1253.09 954.317 1256.21 959.917C1256.21 959.917 1258.46 964.808 1259.65 964.52C1259.65 964.52 1261.02 963.968 1260.26 960.602C1260.26 960.602 1266.79 964.755 1269.08 967.208C1269.08 967.208 1272.1 969.256 1273.28 968.301C1273.28 968.301 1275.05 967.554 1272.41 963.898C1272.41 963.898 1279.54 966.964 1282.35 969.178C1282.35 969.178 1284.86 971.248 1286.25 970.657C1286.25 970.657 1287.79 969.98 1286.1 967.205C1286.1 967.205 1291.17 969.536 1292.87 972.487C1292.87 972.487 1293.81 973.762 1294.97 972.905C1294.97 972.905 1296.32 973.101 1294.18 969.305C1294.18 969.305 1299.85 972.651 1301.51 975.053C1301.51 975.053 1304.18 975.014 1300.7 970.098C1300.7 970.098 1299.97 967.36 1296.41 963.136C1296.41 963.136 1304.32 966.54 1306.87 970.554C1306.87 970.554 1311.28 973.031 1307.57 964.924C1307.57 964.924 1299.2 944.977 1268.8 941.247C1268.8 941.247 1258 940.033 1249.04 942.118C1249.04 942.118 1257.03 932.708 1264.38 928.239C1264.38 928.239 1267.39 926.063 1278.09 926.044C1278.09 926.044 1300.16 926.191 1307.07 924.708C1307.07 924.708 1309.36 924.077 1312.42 922.508C1312.42 922.508 1317.12 921.22 1323.22 922.759C1323.22 922.759 1337.22 926.622 1345.77 923.298C1345.77 923.298 1364.95 916.696 1367.71 906.575C1367.71 906.575 1370.66 892.692 1366.6 881.279C1366.6 881.279 1365.17 875.605 1363.13 871.274C1363.13 871.274 1361.37 865.261 1365.63 859.847C1365.63 859.847 1368.27 855.585 1369.43 849.777C1369.43 849.777 1367.96 832.455 1365.45 822.172C1365.45 822.172 1360.22 807.431 1355.92 800.842C1355.92 800.842 1354.14 798.779 1350.43 798.746C1346.71 798.714 1347.35 801.554 1347.56 802.841C1347.56 802.841 1353.03 820.008 1354.23 826.753C1354.23 826.753 1357.89 841.071 1352.56 850.207C1352.56 850.207 1349.3 855.321 1343.71 858.141C1343.71 858.141 1333.66 862.808 1329.65 867.66C1329.65 867.66 1315.28 865.189 1308.66 863.948C1308.66 863.948 1295.82 861.39 1286.78 865.875C1286.78 865.875 1285.33 850.024 1283.27 837.973C1283.27 837.973 1276.05 810.019 1270.15 805.053C1270.15 805.053 1268.17 804.158 1264.49 805.459C1264.49 805.459 1261.63 806.116 1263.47 809.925C1263.47 809.925 1272.19 824.983 1270.14 842.304C1270.14 842.304 1266.39 867.362 1259.56 874.677C1259.56 874.677 1248.01 887.151 1239.91 909.67C1239.91 909.67 1236.5 918.072 1228.07 926.007C1228.07 926.007 1219.49 930.158 1215.59 940.664C1215.59 940.664 1211.29 946.06 1210.39 950.559C1210.39 950.559 1207.08 957.601 1209.73 960.667C1209.73 960.667 1215.17 966.852 1222.95 960.439L1222.98 960.417Z"
                    fill="url(#paint12_radial_206_869)" fill-opacity="0.2" />
                <path
                    d="M1222.98 960.417C1222.98 960.417 1225.95 957.261 1228.62 955.965C1228.62 955.965 1234.3 954.241 1237.17 954.115C1237.17 954.115 1240.7 953.173 1242.94 950.835C1242.94 950.835 1253.09 954.317 1256.21 959.917C1256.21 959.917 1258.46 964.808 1259.65 964.52C1259.65 964.52 1261.02 963.968 1260.26 960.602C1260.26 960.602 1266.79 964.755 1269.08 967.208C1269.08 967.208 1272.1 969.256 1273.28 968.301C1273.28 968.301 1275.05 967.554 1272.41 963.898C1272.41 963.898 1279.54 966.964 1282.35 969.178C1282.35 969.178 1284.86 971.248 1286.25 970.657C1286.25 970.657 1287.79 969.98 1286.1 967.205C1286.1 967.205 1291.17 969.536 1292.87 972.487C1292.87 972.487 1293.81 973.762 1294.97 972.905C1294.97 972.905 1296.32 973.101 1294.18 969.305C1294.18 969.305 1299.85 972.651 1301.51 975.053C1301.51 975.053 1304.18 975.014 1300.7 970.098C1300.7 970.098 1299.97 967.36 1296.41 963.136C1296.41 963.136 1304.32 966.54 1306.87 970.554C1306.87 970.554 1311.28 973.031 1307.57 964.924C1307.57 964.924 1299.2 944.977 1268.8 941.247C1268.8 941.247 1258 940.033 1249.04 942.118C1249.04 942.118 1257.03 932.708 1264.38 928.239C1264.38 928.239 1267.39 926.063 1278.09 926.044C1278.09 926.044 1300.16 926.191 1307.07 924.708C1307.07 924.708 1309.36 924.077 1312.42 922.508C1312.42 922.508 1317.12 921.22 1323.22 922.759C1323.22 922.759 1337.22 926.622 1345.77 923.298C1345.77 923.298 1364.95 916.696 1367.71 906.575C1367.71 906.575 1370.66 892.692 1366.6 881.279C1366.6 881.279 1365.17 875.605 1363.13 871.274C1363.13 871.274 1361.37 865.261 1365.63 859.847C1365.63 859.847 1368.27 855.585 1369.43 849.777C1369.43 849.777 1367.96 832.455 1365.45 822.172C1365.45 822.172 1360.22 807.431 1355.92 800.842C1355.92 800.842 1354.14 798.779 1350.43 798.746C1346.71 798.714 1347.35 801.554 1347.56 802.841C1347.56 802.841 1353.03 820.008 1354.23 826.753C1354.23 826.753 1357.89 841.071 1352.56 850.207C1352.56 850.207 1349.3 855.321 1343.71 858.141C1343.71 858.141 1333.66 862.808 1329.65 867.66C1329.65 867.66 1315.28 865.189 1308.66 863.948C1308.66 863.948 1295.82 861.39 1286.78 865.875C1286.78 865.875 1285.33 850.024 1283.27 837.973C1283.27 837.973 1276.05 810.019 1270.15 805.053C1270.15 805.053 1268.17 804.158 1264.49 805.459C1264.49 805.459 1261.63 806.116 1263.47 809.925C1263.47 809.925 1272.19 824.983 1270.14 842.304C1270.14 842.304 1266.39 867.362 1259.56 874.677C1259.56 874.677 1248.01 887.151 1239.91 909.67C1239.91 909.67 1236.5 918.072 1228.07 926.007C1228.07 926.007 1219.49 930.158 1215.59 940.664C1215.59 940.664 1211.29 946.06 1210.39 950.559C1210.39 950.559 1207.08 957.601 1209.73 960.667C1209.73 960.667 1215.17 966.852 1222.95 960.439L1222.98 960.417Z"
                    fill="black" fill-opacity="0.2" />
            </g>
            <g opacity="0.2">
                <path
                    d="M1286.67 864.347C1290.59 849.583 1287.11 809.086 1287.1 808.944C1286.11 804.174 1281.82 804.618 1281.82 804.618C1280.8 804.702 1279.58 804.972 1279.01 805.921C1278.5 806.827 1278.66 808.333 1278.47 809.363C1278.24 810.65 1277.92 811.941 1277.56 813.195C1277.23 814.375 1276.86 815.544 1276.47 816.709C1280.85 827.816 1285.68 845.95 1286.43 863.422L1286.67 864.347Z"
                    fill="url(#paint13_radial_206_869)" />
                <path
                    d="M1286.67 864.347C1290.59 849.583 1287.11 809.086 1287.1 808.944C1286.11 804.174 1281.82 804.618 1281.82 804.618C1280.8 804.702 1279.58 804.972 1279.01 805.921C1278.5 806.827 1278.66 808.333 1278.47 809.363C1278.24 810.65 1277.92 811.941 1277.56 813.195C1277.23 814.375 1276.86 815.544 1276.47 816.709C1280.85 827.816 1285.68 845.95 1286.43 863.422L1286.67 864.347Z"
                    fill="url(#paint14_radial_206_869)" fill-opacity="0.2" />
                <path
                    d="M1286.67 864.347C1290.59 849.583 1287.11 809.086 1287.1 808.944C1286.11 804.174 1281.82 804.618 1281.82 804.618C1280.8 804.702 1279.58 804.972 1279.01 805.921C1278.5 806.827 1278.66 808.333 1278.47 809.363C1278.24 810.65 1277.92 811.941 1277.56 813.195C1277.23 814.375 1276.86 815.544 1276.47 816.709C1280.85 827.816 1285.68 845.95 1286.43 863.422L1286.67 864.347Z"
                    fill="url(#paint15_linear_206_869)" fill-opacity="0.2" />
                <path
                    d="M1286.67 864.347C1290.59 849.583 1287.11 809.086 1287.1 808.944C1286.11 804.174 1281.82 804.618 1281.82 804.618C1280.8 804.702 1279.58 804.972 1279.01 805.921C1278.5 806.827 1278.66 808.333 1278.47 809.363C1278.24 810.65 1277.92 811.941 1277.56 813.195C1277.23 814.375 1276.86 815.544 1276.47 816.709C1280.85 827.816 1285.68 845.95 1286.43 863.422L1286.67 864.347Z"
                    fill="url(#paint16_linear_206_869)" fill-opacity="0.2" />
            </g>
            <g opacity="0.2">
                <path
                    d="M1351.5 851.6C1351.5 851.6 1352.19 844.212 1349.3 830.35C1349.3 830.35 1343.75 807.863 1338.45 802.143C1338.45 802.143 1332.48 799.381 1329.26 803.904C1328.57 804.877 1329.47 806.979 1329.84 807.847C1335.32 820.73 1338.01 835.445 1336.98 849.46C1336.62 854.308 1336 860.1 1334.11 863.712L1347.5 856.1L1351.5 851.6Z"
                    fill="url(#paint17_radial_206_869)" />
                <path
                    d="M1351.5 851.6C1351.5 851.6 1352.19 844.212 1349.3 830.35C1349.3 830.35 1343.75 807.863 1338.45 802.143C1338.45 802.143 1332.48 799.381 1329.26 803.904C1328.57 804.877 1329.47 806.979 1329.84 807.847C1335.32 820.73 1338.01 835.445 1336.98 849.46C1336.62 854.308 1336 860.1 1334.11 863.712L1347.5 856.1L1351.5 851.6Z"
                    fill="url(#paint18_radial_206_869)" fill-opacity="0.2" />
                <path
                    d="M1351.5 851.6C1351.5 851.6 1352.19 844.212 1349.3 830.35C1349.3 830.35 1343.75 807.863 1338.45 802.143C1338.45 802.143 1332.48 799.381 1329.26 803.904C1328.57 804.877 1329.47 806.979 1329.84 807.847C1335.32 820.73 1338.01 835.445 1336.98 849.46C1336.62 854.308 1336 860.1 1334.11 863.712L1347.5 856.1L1351.5 851.6Z"
                    fill="url(#paint19_linear_206_869)" fill-opacity="0.2" />
                <path
                    d="M1351.5 851.6C1351.5 851.6 1352.19 844.212 1349.3 830.35C1349.3 830.35 1343.75 807.863 1338.45 802.143C1338.45 802.143 1332.48 799.381 1329.26 803.904C1328.57 804.877 1329.47 806.979 1329.84 807.847C1335.32 820.73 1338.01 835.445 1336.98 849.46C1336.62 854.308 1336 860.1 1334.11 863.712L1347.5 856.1L1351.5 851.6Z"
                    fill="url(#paint20_linear_206_869)" fill-opacity="0.2" />
                <path
                    d="M1351.5 851.6C1351.5 851.6 1352.19 844.212 1349.3 830.35C1349.3 830.35 1343.75 807.863 1338.45 802.143C1338.45 802.143 1332.48 799.381 1329.26 803.904C1328.57 804.877 1329.47 806.979 1329.84 807.847C1335.32 820.73 1338.01 835.445 1336.98 849.46C1336.62 854.308 1336 860.1 1334.11 863.712L1347.5 856.1L1351.5 851.6Z"
                    fill="url(#paint21_linear_206_869)" fill-opacity="0.2" />
            </g>
        </g>
        <g filter="url(#filter5_iii_206_869)">
            <g filter="url(#filter6_i_206_869)">
                <path
                    d="M1230.98 620.682C1230.98 620.682 1233.95 623.838 1236.62 625.135C1236.62 625.135 1242.3 626.859 1245.17 626.985C1245.17 626.985 1248.7 627.927 1250.94 630.265C1250.94 630.265 1261.09 626.783 1264.21 621.183C1264.21 621.183 1266.46 616.292 1267.65 616.58C1267.65 616.58 1269.02 617.132 1268.26 620.497C1268.26 620.497 1274.79 616.345 1277.08 613.891C1277.08 613.891 1280.1 611.843 1281.28 612.799C1281.28 612.799 1283.05 613.545 1280.41 617.201C1280.41 617.201 1287.54 614.136 1290.35 611.922C1290.35 611.922 1292.86 609.851 1294.25 610.443C1294.25 610.443 1295.79 611.12 1294.1 613.894C1294.1 613.894 1299.17 611.564 1300.87 608.613C1300.87 608.613 1301.81 607.338 1302.97 608.195C1302.97 608.195 1304.32 607.998 1302.18 611.795C1302.18 611.795 1307.85 608.449 1309.51 606.046C1309.51 606.046 1312.18 606.085 1308.7 611.001C1308.7 611.001 1307.97 613.739 1304.41 617.964C1304.41 617.964 1312.32 614.559 1314.87 610.546C1314.87 610.546 1319.28 608.068 1315.57 616.176C1315.57 616.176 1307.2 636.123 1276.8 639.852C1276.8 639.852 1266 641.066 1257.04 638.982C1257.04 638.982 1265.03 648.391 1272.38 652.86C1272.38 652.86 1275.39 655.036 1286.09 655.056C1286.09 655.056 1308.16 654.908 1315.07 656.392C1315.07 656.392 1317.36 657.023 1320.42 658.592C1320.42 658.592 1325.12 659.879 1331.22 658.34C1331.22 658.34 1345.22 654.478 1353.77 657.802C1353.77 657.802 1372.95 664.403 1375.71 674.525C1375.71 674.525 1378.66 688.408 1374.6 699.821C1374.6 699.821 1373.17 705.495 1371.13 709.826C1371.13 709.826 1369.37 715.839 1373.63 721.253C1373.63 721.253 1376.27 725.515 1377.43 731.322C1377.43 731.322 1375.96 748.645 1373.45 758.928C1373.45 758.928 1368.22 773.668 1363.92 780.257C1363.92 780.257 1362.14 782.32 1358.43 782.353C1354.71 782.386 1355.35 779.546 1355.56 778.258C1355.56 778.258 1361.03 761.092 1362.23 754.347C1362.23 754.347 1365.89 740.028 1360.56 730.893C1360.56 730.893 1357.3 725.779 1351.71 722.959C1351.71 722.959 1341.66 718.292 1337.65 713.439C1337.65 713.439 1323.28 715.91 1316.66 717.151C1316.66 717.151 1303.82 719.71 1294.78 715.225C1294.78 715.225 1293.33 731.075 1291.27 743.126C1291.27 743.126 1284.05 771.08 1278.15 776.047C1278.15 776.047 1276.17 776.942 1272.49 775.64C1272.49 775.64 1269.63 774.984 1271.47 771.175C1271.47 771.175 1280.19 756.116 1278.14 738.795C1278.14 738.795 1274.39 713.737 1267.56 706.423C1267.56 706.423 1256.01 693.949 1247.91 671.43C1247.91 671.43 1244.5 663.028 1236.07 655.092C1236.07 655.092 1227.49 650.942 1223.59 640.436C1223.59 640.436 1219.29 635.04 1218.39 630.54C1218.39 630.54 1215.08 623.499 1217.73 620.433C1217.73 620.433 1223.17 614.248 1230.95 620.661L1230.98 620.682Z"
                    fill="url(#paint22_radial_206_869)" fill-opacity="0.6" />
                <path
                    d="M1230.98 620.682C1230.98 620.682 1233.95 623.838 1236.62 625.135C1236.62 625.135 1242.3 626.859 1245.17 626.985C1245.17 626.985 1248.7 627.927 1250.94 630.265C1250.94 630.265 1261.09 626.783 1264.21 621.183C1264.21 621.183 1266.46 616.292 1267.65 616.58C1267.65 616.58 1269.02 617.132 1268.26 620.497C1268.26 620.497 1274.79 616.345 1277.08 613.891C1277.08 613.891 1280.1 611.843 1281.28 612.799C1281.28 612.799 1283.05 613.545 1280.41 617.201C1280.41 617.201 1287.54 614.136 1290.35 611.922C1290.35 611.922 1292.86 609.851 1294.25 610.443C1294.25 610.443 1295.79 611.12 1294.1 613.894C1294.1 613.894 1299.17 611.564 1300.87 608.613C1300.87 608.613 1301.81 607.338 1302.97 608.195C1302.97 608.195 1304.32 607.998 1302.18 611.795C1302.18 611.795 1307.85 608.449 1309.51 606.046C1309.51 606.046 1312.18 606.085 1308.7 611.001C1308.7 611.001 1307.97 613.739 1304.41 617.964C1304.41 617.964 1312.32 614.559 1314.87 610.546C1314.87 610.546 1319.28 608.068 1315.57 616.176C1315.57 616.176 1307.2 636.123 1276.8 639.852C1276.8 639.852 1266 641.066 1257.04 638.982C1257.04 638.982 1265.03 648.391 1272.38 652.86C1272.38 652.86 1275.39 655.036 1286.09 655.056C1286.09 655.056 1308.16 654.908 1315.07 656.392C1315.07 656.392 1317.36 657.023 1320.42 658.592C1320.42 658.592 1325.12 659.879 1331.22 658.34C1331.22 658.34 1345.22 654.478 1353.77 657.802C1353.77 657.802 1372.95 664.403 1375.71 674.525C1375.71 674.525 1378.66 688.408 1374.6 699.821C1374.6 699.821 1373.17 705.495 1371.13 709.826C1371.13 709.826 1369.37 715.839 1373.63 721.253C1373.63 721.253 1376.27 725.515 1377.43 731.322C1377.43 731.322 1375.96 748.645 1373.45 758.928C1373.45 758.928 1368.22 773.668 1363.92 780.257C1363.92 780.257 1362.14 782.32 1358.43 782.353C1354.71 782.386 1355.35 779.546 1355.56 778.258C1355.56 778.258 1361.03 761.092 1362.23 754.347C1362.23 754.347 1365.89 740.028 1360.56 730.893C1360.56 730.893 1357.3 725.779 1351.71 722.959C1351.71 722.959 1341.66 718.292 1337.65 713.439C1337.65 713.439 1323.28 715.91 1316.66 717.151C1316.66 717.151 1303.82 719.71 1294.78 715.225C1294.78 715.225 1293.33 731.075 1291.27 743.126C1291.27 743.126 1284.05 771.08 1278.15 776.047C1278.15 776.047 1276.17 776.942 1272.49 775.64C1272.49 775.64 1269.63 774.984 1271.47 771.175C1271.47 771.175 1280.19 756.116 1278.14 738.795C1278.14 738.795 1274.39 713.737 1267.56 706.423C1267.56 706.423 1256.01 693.949 1247.91 671.43C1247.91 671.43 1244.5 663.028 1236.07 655.092C1236.07 655.092 1227.49 650.942 1223.59 640.436C1223.59 640.436 1219.29 635.04 1218.39 630.54C1218.39 630.54 1215.08 623.499 1217.73 620.433C1217.73 620.433 1223.17 614.248 1230.95 620.661L1230.98 620.682Z"
                    fill="url(#paint23_radial_206_869)" fill-opacity="0.2" />
                <path
                    d="M1230.98 620.682C1230.98 620.682 1233.95 623.838 1236.62 625.135C1236.62 625.135 1242.3 626.859 1245.17 626.985C1245.17 626.985 1248.7 627.927 1250.94 630.265C1250.94 630.265 1261.09 626.783 1264.21 621.183C1264.21 621.183 1266.46 616.292 1267.65 616.58C1267.65 616.58 1269.02 617.132 1268.26 620.497C1268.26 620.497 1274.79 616.345 1277.08 613.891C1277.08 613.891 1280.1 611.843 1281.28 612.799C1281.28 612.799 1283.05 613.545 1280.41 617.201C1280.41 617.201 1287.54 614.136 1290.35 611.922C1290.35 611.922 1292.86 609.851 1294.25 610.443C1294.25 610.443 1295.79 611.12 1294.1 613.894C1294.1 613.894 1299.17 611.564 1300.87 608.613C1300.87 608.613 1301.81 607.338 1302.97 608.195C1302.97 608.195 1304.32 607.998 1302.18 611.795C1302.18 611.795 1307.85 608.449 1309.51 606.046C1309.51 606.046 1312.18 606.085 1308.7 611.001C1308.7 611.001 1307.97 613.739 1304.41 617.964C1304.41 617.964 1312.32 614.559 1314.87 610.546C1314.87 610.546 1319.28 608.068 1315.57 616.176C1315.57 616.176 1307.2 636.123 1276.8 639.852C1276.8 639.852 1266 641.066 1257.04 638.982C1257.04 638.982 1265.03 648.391 1272.38 652.86C1272.38 652.86 1275.39 655.036 1286.09 655.056C1286.09 655.056 1308.16 654.908 1315.07 656.392C1315.07 656.392 1317.36 657.023 1320.42 658.592C1320.42 658.592 1325.12 659.879 1331.22 658.34C1331.22 658.34 1345.22 654.478 1353.77 657.802C1353.77 657.802 1372.95 664.403 1375.71 674.525C1375.71 674.525 1378.66 688.408 1374.6 699.821C1374.6 699.821 1373.17 705.495 1371.13 709.826C1371.13 709.826 1369.37 715.839 1373.63 721.253C1373.63 721.253 1376.27 725.515 1377.43 731.322C1377.43 731.322 1375.96 748.645 1373.45 758.928C1373.45 758.928 1368.22 773.668 1363.92 780.257C1363.92 780.257 1362.14 782.32 1358.43 782.353C1354.71 782.386 1355.35 779.546 1355.56 778.258C1355.56 778.258 1361.03 761.092 1362.23 754.347C1362.23 754.347 1365.89 740.028 1360.56 730.893C1360.56 730.893 1357.3 725.779 1351.71 722.959C1351.71 722.959 1341.66 718.292 1337.65 713.439C1337.65 713.439 1323.28 715.91 1316.66 717.151C1316.66 717.151 1303.82 719.71 1294.78 715.225C1294.78 715.225 1293.33 731.075 1291.27 743.126C1291.27 743.126 1284.05 771.08 1278.15 776.047C1278.15 776.047 1276.17 776.942 1272.49 775.64C1272.49 775.64 1269.63 774.984 1271.47 771.175C1271.47 771.175 1280.19 756.116 1278.14 738.795C1278.14 738.795 1274.39 713.737 1267.56 706.423C1267.56 706.423 1256.01 693.949 1247.91 671.43C1247.91 671.43 1244.5 663.028 1236.07 655.092C1236.07 655.092 1227.49 650.942 1223.59 640.436C1223.59 640.436 1219.29 635.04 1218.39 630.54C1218.39 630.54 1215.08 623.499 1217.73 620.433C1217.73 620.433 1223.17 614.248 1230.95 620.661L1230.98 620.682Z"
                    fill="url(#paint24_linear_206_869)" fill-opacity="0.2" />
                <path
                    d="M1230.98 620.682C1230.98 620.682 1233.95 623.838 1236.62 625.135C1236.62 625.135 1242.3 626.859 1245.17 626.985C1245.17 626.985 1248.7 627.927 1250.94 630.265C1250.94 630.265 1261.09 626.783 1264.21 621.183C1264.21 621.183 1266.46 616.292 1267.65 616.58C1267.65 616.58 1269.02 617.132 1268.26 620.497C1268.26 620.497 1274.79 616.345 1277.08 613.891C1277.08 613.891 1280.1 611.843 1281.28 612.799C1281.28 612.799 1283.05 613.545 1280.41 617.201C1280.41 617.201 1287.54 614.136 1290.35 611.922C1290.35 611.922 1292.86 609.851 1294.25 610.443C1294.25 610.443 1295.79 611.12 1294.1 613.894C1294.1 613.894 1299.17 611.564 1300.87 608.613C1300.87 608.613 1301.81 607.338 1302.97 608.195C1302.97 608.195 1304.32 607.998 1302.18 611.795C1302.18 611.795 1307.85 608.449 1309.51 606.046C1309.51 606.046 1312.18 606.085 1308.7 611.001C1308.7 611.001 1307.97 613.739 1304.41 617.964C1304.41 617.964 1312.32 614.559 1314.87 610.546C1314.87 610.546 1319.28 608.068 1315.57 616.176C1315.57 616.176 1307.2 636.123 1276.8 639.852C1276.8 639.852 1266 641.066 1257.04 638.982C1257.04 638.982 1265.03 648.391 1272.38 652.86C1272.38 652.86 1275.39 655.036 1286.09 655.056C1286.09 655.056 1308.16 654.908 1315.07 656.392C1315.07 656.392 1317.36 657.023 1320.42 658.592C1320.42 658.592 1325.12 659.879 1331.22 658.34C1331.22 658.34 1345.22 654.478 1353.77 657.802C1353.77 657.802 1372.95 664.403 1375.71 674.525C1375.71 674.525 1378.66 688.408 1374.6 699.821C1374.6 699.821 1373.17 705.495 1371.13 709.826C1371.13 709.826 1369.37 715.839 1373.63 721.253C1373.63 721.253 1376.27 725.515 1377.43 731.322C1377.43 731.322 1375.96 748.645 1373.45 758.928C1373.45 758.928 1368.22 773.668 1363.92 780.257C1363.92 780.257 1362.14 782.32 1358.43 782.353C1354.71 782.386 1355.35 779.546 1355.56 778.258C1355.56 778.258 1361.03 761.092 1362.23 754.347C1362.23 754.347 1365.89 740.028 1360.56 730.893C1360.56 730.893 1357.3 725.779 1351.71 722.959C1351.71 722.959 1341.66 718.292 1337.65 713.439C1337.65 713.439 1323.28 715.91 1316.66 717.151C1316.66 717.151 1303.82 719.71 1294.78 715.225C1294.78 715.225 1293.33 731.075 1291.27 743.126C1291.27 743.126 1284.05 771.08 1278.15 776.047C1278.15 776.047 1276.17 776.942 1272.49 775.64C1272.49 775.64 1269.63 774.984 1271.47 771.175C1271.47 771.175 1280.19 756.116 1278.14 738.795C1278.14 738.795 1274.39 713.737 1267.56 706.423C1267.56 706.423 1256.01 693.949 1247.91 671.43C1247.91 671.43 1244.5 663.028 1236.07 655.092C1236.07 655.092 1227.49 650.942 1223.59 640.436C1223.59 640.436 1219.29 635.04 1218.39 630.54C1218.39 630.54 1215.08 623.499 1217.73 620.433C1217.73 620.433 1223.17 614.248 1230.95 620.661L1230.98 620.682Z"
                    fill="url(#paint25_linear_206_869)" fill-opacity="0.2" />
                <path
                    d="M1230.98 620.682C1230.98 620.682 1233.95 623.838 1236.62 625.135C1236.62 625.135 1242.3 626.859 1245.17 626.985C1245.17 626.985 1248.7 627.927 1250.94 630.265C1250.94 630.265 1261.09 626.783 1264.21 621.183C1264.21 621.183 1266.46 616.292 1267.65 616.58C1267.65 616.58 1269.02 617.132 1268.26 620.497C1268.26 620.497 1274.79 616.345 1277.08 613.891C1277.08 613.891 1280.1 611.843 1281.28 612.799C1281.28 612.799 1283.05 613.545 1280.41 617.201C1280.41 617.201 1287.54 614.136 1290.35 611.922C1290.35 611.922 1292.86 609.851 1294.25 610.443C1294.25 610.443 1295.79 611.12 1294.1 613.894C1294.1 613.894 1299.17 611.564 1300.87 608.613C1300.87 608.613 1301.81 607.338 1302.97 608.195C1302.97 608.195 1304.32 607.998 1302.18 611.795C1302.18 611.795 1307.85 608.449 1309.51 606.046C1309.51 606.046 1312.18 606.085 1308.7 611.001C1308.7 611.001 1307.97 613.739 1304.41 617.964C1304.41 617.964 1312.32 614.559 1314.87 610.546C1314.87 610.546 1319.28 608.068 1315.57 616.176C1315.57 616.176 1307.2 636.123 1276.8 639.852C1276.8 639.852 1266 641.066 1257.04 638.982C1257.04 638.982 1265.03 648.391 1272.38 652.86C1272.38 652.86 1275.39 655.036 1286.09 655.056C1286.09 655.056 1308.16 654.908 1315.07 656.392C1315.07 656.392 1317.36 657.023 1320.42 658.592C1320.42 658.592 1325.12 659.879 1331.22 658.34C1331.22 658.34 1345.22 654.478 1353.77 657.802C1353.77 657.802 1372.95 664.403 1375.71 674.525C1375.71 674.525 1378.66 688.408 1374.6 699.821C1374.6 699.821 1373.17 705.495 1371.13 709.826C1371.13 709.826 1369.37 715.839 1373.63 721.253C1373.63 721.253 1376.27 725.515 1377.43 731.322C1377.43 731.322 1375.96 748.645 1373.45 758.928C1373.45 758.928 1368.22 773.668 1363.92 780.257C1363.92 780.257 1362.14 782.32 1358.43 782.353C1354.71 782.386 1355.35 779.546 1355.56 778.258C1355.56 778.258 1361.03 761.092 1362.23 754.347C1362.23 754.347 1365.89 740.028 1360.56 730.893C1360.56 730.893 1357.3 725.779 1351.71 722.959C1351.71 722.959 1341.66 718.292 1337.65 713.439C1337.65 713.439 1323.28 715.91 1316.66 717.151C1316.66 717.151 1303.82 719.71 1294.78 715.225C1294.78 715.225 1293.33 731.075 1291.27 743.126C1291.27 743.126 1284.05 771.08 1278.15 776.047C1278.15 776.047 1276.17 776.942 1272.49 775.64C1272.49 775.64 1269.63 774.984 1271.47 771.175C1271.47 771.175 1280.19 756.116 1278.14 738.795C1278.14 738.795 1274.39 713.737 1267.56 706.423C1267.56 706.423 1256.01 693.949 1247.91 671.43C1247.91 671.43 1244.5 663.028 1236.07 655.092C1236.07 655.092 1227.49 650.942 1223.59 640.436C1223.59 640.436 1219.29 635.04 1218.39 630.54C1218.39 630.54 1215.08 623.499 1217.73 620.433C1217.73 620.433 1223.17 614.248 1230.95 620.661L1230.98 620.682Z"
                    fill="url(#paint26_radial_206_869)" fill-opacity="0.2" />
                <path
                    d="M1230.98 620.682C1230.98 620.682 1233.95 623.838 1236.62 625.135C1236.62 625.135 1242.3 626.859 1245.17 626.985C1245.17 626.985 1248.7 627.927 1250.94 630.265C1250.94 630.265 1261.09 626.783 1264.21 621.183C1264.21 621.183 1266.46 616.292 1267.65 616.58C1267.65 616.58 1269.02 617.132 1268.26 620.497C1268.26 620.497 1274.79 616.345 1277.08 613.891C1277.08 613.891 1280.1 611.843 1281.28 612.799C1281.28 612.799 1283.05 613.545 1280.41 617.201C1280.41 617.201 1287.54 614.136 1290.35 611.922C1290.35 611.922 1292.86 609.851 1294.25 610.443C1294.25 610.443 1295.79 611.12 1294.1 613.894C1294.1 613.894 1299.17 611.564 1300.87 608.613C1300.87 608.613 1301.81 607.338 1302.97 608.195C1302.97 608.195 1304.32 607.998 1302.18 611.795C1302.18 611.795 1307.85 608.449 1309.51 606.046C1309.51 606.046 1312.18 606.085 1308.7 611.001C1308.7 611.001 1307.97 613.739 1304.41 617.964C1304.41 617.964 1312.32 614.559 1314.87 610.546C1314.87 610.546 1319.28 608.068 1315.57 616.176C1315.57 616.176 1307.2 636.123 1276.8 639.852C1276.8 639.852 1266 641.066 1257.04 638.982C1257.04 638.982 1265.03 648.391 1272.38 652.86C1272.38 652.86 1275.39 655.036 1286.09 655.056C1286.09 655.056 1308.16 654.908 1315.07 656.392C1315.07 656.392 1317.36 657.023 1320.42 658.592C1320.42 658.592 1325.12 659.879 1331.22 658.34C1331.22 658.34 1345.22 654.478 1353.77 657.802C1353.77 657.802 1372.95 664.403 1375.71 674.525C1375.71 674.525 1378.66 688.408 1374.6 699.821C1374.6 699.821 1373.17 705.495 1371.13 709.826C1371.13 709.826 1369.37 715.839 1373.63 721.253C1373.63 721.253 1376.27 725.515 1377.43 731.322C1377.43 731.322 1375.96 748.645 1373.45 758.928C1373.45 758.928 1368.22 773.668 1363.92 780.257C1363.92 780.257 1362.14 782.32 1358.43 782.353C1354.71 782.386 1355.35 779.546 1355.56 778.258C1355.56 778.258 1361.03 761.092 1362.23 754.347C1362.23 754.347 1365.89 740.028 1360.56 730.893C1360.56 730.893 1357.3 725.779 1351.71 722.959C1351.71 722.959 1341.66 718.292 1337.65 713.439C1337.65 713.439 1323.28 715.91 1316.66 717.151C1316.66 717.151 1303.82 719.71 1294.78 715.225C1294.78 715.225 1293.33 731.075 1291.27 743.126C1291.27 743.126 1284.05 771.08 1278.15 776.047C1278.15 776.047 1276.17 776.942 1272.49 775.64C1272.49 775.64 1269.63 774.984 1271.47 771.175C1271.47 771.175 1280.19 756.116 1278.14 738.795C1278.14 738.795 1274.39 713.737 1267.56 706.423C1267.56 706.423 1256.01 693.949 1247.91 671.43C1247.91 671.43 1244.5 663.028 1236.07 655.092C1236.07 655.092 1227.49 650.942 1223.59 640.436C1223.59 640.436 1219.29 635.04 1218.39 630.54C1218.39 630.54 1215.08 623.499 1217.73 620.433C1217.73 620.433 1223.17 614.248 1230.95 620.661L1230.98 620.682Z"
                    fill="black" fill-opacity="0.2" />
            </g>
            <path
                d="M1294.67 716.752C1298.59 731.517 1295.11 772.013 1295.1 772.156C1294.11 776.926 1289.82 776.482 1289.82 776.482C1288.8 776.397 1287.58 776.127 1287.01 775.179C1286.5 774.272 1286.66 772.767 1286.47 771.737C1286.24 770.449 1285.92 769.158 1285.56 767.905C1285.23 766.725 1284.86 765.556 1284.47 764.39C1288.85 753.284 1293.68 735.149 1294.43 717.678L1294.67 716.752Z"
                fill="url(#paint27_radial_206_869)" />
            <path
                d="M1294.67 716.752C1298.59 731.517 1295.11 772.013 1295.1 772.156C1294.11 776.926 1289.82 776.482 1289.82 776.482C1288.8 776.397 1287.58 776.127 1287.01 775.179C1286.5 774.272 1286.66 772.767 1286.47 771.737C1286.24 770.449 1285.92 769.158 1285.56 767.905C1285.23 766.725 1284.86 765.556 1284.47 764.39C1288.85 753.284 1293.68 735.149 1294.43 717.678L1294.67 716.752Z"
                fill="url(#paint28_radial_206_869)" fill-opacity="0.2" />
            <path
                d="M1294.67 716.752C1298.59 731.517 1295.11 772.013 1295.1 772.156C1294.11 776.926 1289.82 776.482 1289.82 776.482C1288.8 776.397 1287.58 776.127 1287.01 775.179C1286.5 774.272 1286.66 772.767 1286.47 771.737C1286.24 770.449 1285.92 769.158 1285.56 767.905C1285.23 766.725 1284.86 765.556 1284.47 764.39C1288.85 753.284 1293.68 735.149 1294.43 717.678L1294.67 716.752Z"
                fill="url(#paint29_linear_206_869)" fill-opacity="0.2" />
            <path
                d="M1294.67 716.752C1298.59 731.517 1295.11 772.013 1295.1 772.156C1294.11 776.926 1289.82 776.482 1289.82 776.482C1288.8 776.397 1287.58 776.127 1287.01 775.179C1286.5 774.272 1286.66 772.767 1286.47 771.737C1286.24 770.449 1285.92 769.158 1285.56 767.905C1285.23 766.725 1284.86 765.556 1284.47 764.39C1288.85 753.284 1293.68 735.149 1294.43 717.678L1294.67 716.752Z"
                fill="url(#paint30_linear_206_869)" fill-opacity="0.2" />
            <path
                d="M1359.5 729.5C1359.5 729.5 1360.19 736.888 1357.3 750.749C1357.3 750.749 1351.75 773.237 1346.45 778.956C1346.45 778.956 1340.48 781.719 1337.26 777.196C1336.57 776.222 1337.47 774.12 1337.84 773.253C1343.32 760.37 1346.01 745.655 1344.98 731.64C1344.62 726.791 1344 721 1342.11 717.387L1355.5 725L1359.5 729.5Z"
                fill="url(#paint31_radial_206_869)" />
            <path
                d="M1359.5 729.5C1359.5 729.5 1360.19 736.888 1357.3 750.749C1357.3 750.749 1351.75 773.237 1346.45 778.956C1346.45 778.956 1340.48 781.719 1337.26 777.196C1336.57 776.222 1337.47 774.12 1337.84 773.253C1343.32 760.37 1346.01 745.655 1344.98 731.64C1344.62 726.791 1344 721 1342.11 717.387L1355.5 725L1359.5 729.5Z"
                fill="url(#paint32_radial_206_869)" fill-opacity="0.2" />
            <path
                d="M1359.5 729.5C1359.5 729.5 1360.19 736.888 1357.3 750.749C1357.3 750.749 1351.75 773.237 1346.45 778.956C1346.45 778.956 1340.48 781.719 1337.26 777.196C1336.57 776.222 1337.47 774.12 1337.84 773.253C1343.32 760.37 1346.01 745.655 1344.98 731.64C1344.62 726.791 1344 721 1342.11 717.387L1355.5 725L1359.5 729.5Z"
                fill="url(#paint33_linear_206_869)" fill-opacity="0.2" />
            <path
                d="M1359.5 729.5C1359.5 729.5 1360.19 736.888 1357.3 750.749C1357.3 750.749 1351.75 773.237 1346.45 778.956C1346.45 778.956 1340.48 781.719 1337.26 777.196C1336.57 776.222 1337.47 774.12 1337.84 773.253C1343.32 760.37 1346.01 745.655 1344.98 731.64C1344.62 726.791 1344 721 1342.11 717.387L1355.5 725L1359.5 729.5Z"
                fill="url(#paint34_linear_206_869)" fill-opacity="0.2" />
            <path
                d="M1359.5 729.5C1359.5 729.5 1360.19 736.888 1357.3 750.749C1357.3 750.749 1351.75 773.237 1346.45 778.956C1346.45 778.956 1340.48 781.719 1337.26 777.196C1336.57 776.222 1337.47 774.12 1337.84 773.253C1343.32 760.37 1346.01 745.655 1344.98 731.64C1344.62 726.791 1344 721 1342.11 717.387L1355.5 725L1359.5 729.5Z"
                fill="url(#paint35_linear_206_869)" fill-opacity="0.2" />
        </g>
    </g>
    <defs>
        <filter id="filter0_f_206_869" x="715.395" y="45.7915" width="1253.94" height="1274.58"
            filterUnits="userSpaceOnUse" color-interpolation-filters="sRGB">
            <feFlood flood-opacity="0" result="BackgroundImageFix" />
            <feBlend mode="normal" in="SourceGraphic" in2="BackgroundImageFix" result="shape" />
            <feGaussianBlur stdDeviation="200" result="effect1_foregroundBlur_206_869" />
        </filter>
        <filter id="filter1_f_206_869" x="-2" y="751" width="535" height="289"
            filterUnits="userSpaceOnUse" color-interpolation-filters="sRGB">
            <feFlood flood-opacity="0" result="BackgroundImageFix" />
            <feBlend mode="normal" in="SourceGraphic" in2="BackgroundImageFix" result="shape" />
            <feGaussianBlur stdDeviation="2" result="effect1_foregroundBlur_206_869" />
        </filter>
        <filter id="filter2_f_206_869" x="-486.605" y="117.792" width="1253.94" height="1274.58"
            filterUnits="userSpaceOnUse" color-interpolation-filters="sRGB">
            <feFlood flood-opacity="0" result="BackgroundImageFix" />
            <feBlend mode="normal" in="SourceGraphic" in2="BackgroundImageFix" result="shape" />
            <feGaussianBlur stdDeviation="200" result="effect1_foregroundBlur_206_869" />
        </filter>
        <filter id="filter3_iii_206_869" x="1193.71" y="783.746" width="190.729" height="206.307"
            filterUnits="userSpaceOnUse" color-interpolation-filters="sRGB">
            <feFlood flood-opacity="0" result="BackgroundImageFix" />
            <feBlend mode="normal" in="SourceGraphic" in2="BackgroundImageFix" result="shape" />
            <feColorMatrix in="SourceAlpha" type="matrix"
                values="0 0 0 0 0 0 0 0 0 0 0 0 0 0 0 0 0 0 127 0" result="hardAlpha" />
            <feOffset dy="4" />
            <feGaussianBlur stdDeviation="2" />
            <feComposite in2="hardAlpha" operator="arithmetic" k2="-1" k3="1" />
            <feColorMatrix type="matrix" values="0 0 0 0 0 0 0 0 0 0 0 0 0 0 0 0 0 0 0.25 0" />
            <feBlend mode="normal" in2="shape" result="effect1_innerShadow_206_869" />
            <feColorMatrix in="SourceAlpha" type="matrix"
                values="0 0 0 0 0 0 0 0 0 0 0 0 0 0 0 0 0 0 127 0" result="hardAlpha" />
            <feOffset dy="4" />
            <feGaussianBlur stdDeviation="2" />
            <feComposite in2="hardAlpha" operator="arithmetic" k2="-1" k3="1" />
            <feColorMatrix type="matrix" values="0 0 0 0 1 0 0 0 0 1 0 0 0 0 1 0 0 0 0.25 0" />
            <feBlend mode="normal" in2="effect1_innerShadow_206_869"
                result="effect2_innerShadow_206_869" />
            <feColorMatrix in="SourceAlpha" type="matrix"
                values="0 0 0 0 0 0 0 0 0 0 0 0 0 0 0 0 0 0 127 0" result="hardAlpha" />
            <feOffset dy="4" />
            <feGaussianBlur stdDeviation="5" />
            <feComposite in2="hardAlpha" operator="arithmetic" k2="-1" k3="1" />
            <feColorMatrix type="matrix" values="0 0 0 0 1 0 0 0 0 1 0 0 0 0 1 0 0 0 0.5 0" />
            <feBlend mode="normal" in2="effect2_innerShadow_206_869"
                result="effect3_innerShadow_206_869" />
        </filter>
        <filter id="filter4_i_206_869" x="1208.71" y="798.746" width="160.729" height="180.307"
            filterUnits="userSpaceOnUse" color-interpolation-filters="sRGB">
            <feFlood flood-opacity="0" result="BackgroundImageFix" />
            <feBlend mode="normal" in="SourceGraphic" in2="BackgroundImageFix" result="shape" />
            <feColorMatrix in="SourceAlpha" type="matrix"
                values="0 0 0 0 0 0 0 0 0 0 0 0 0 0 0 0 0 0 127 0" result="hardAlpha" />
            <feOffset dy="4" />
            <feGaussianBlur stdDeviation="2" />
            <feComposite in2="hardAlpha" operator="arithmetic" k2="-1" k3="1" />
            <feColorMatrix type="matrix" values="0 0 0 0 1 0 0 0 0 1 0 0 0 0 1 0 0 0 0.25 0" />
            <feBlend mode="normal" in2="shape" result="effect1_innerShadow_206_869" />
        </filter>
        <filter id="filter5_iii_206_869" x="1201.71" y="591.046" width="190.729" height="206.307"
            filterUnits="userSpaceOnUse" color-interpolation-filters="sRGB">
            <feFlood flood-opacity="0" result="BackgroundImageFix" />
            <feBlend mode="normal" in="SourceGraphic" in2="BackgroundImageFix" result="shape" />
            <feColorMatrix in="SourceAlpha" type="matrix"
                values="0 0 0 0 0 0 0 0 0 0 0 0 0 0 0 0 0 0 127 0" result="hardAlpha" />
            <feOffset dy="4" />
            <feGaussianBlur stdDeviation="2" />
            <feComposite in2="hardAlpha" operator="arithmetic" k2="-1" k3="1" />
            <feColorMatrix type="matrix" values="0 0 0 0 0 0 0 0 0 0 0 0 0 0 0 0 0 0 0.25 0" />
            <feBlend mode="normal" in2="shape" result="effect1_innerShadow_206_869" />
            <feColorMatrix in="SourceAlpha" type="matrix"
                values="0 0 0 0 0 0 0 0 0 0 0 0 0 0 0 0 0 0 127 0" result="hardAlpha" />
            <feOffset dy="4" />
            <feGaussianBlur stdDeviation="2" />
            <feComposite in2="hardAlpha" operator="arithmetic" k2="-1" k3="1" />
            <feColorMatrix type="matrix" values="0 0 0 0 1 0 0 0 0 1 0 0 0 0 1 0 0 0 0.25 0" />
            <feBlend mode="normal" in2="effect1_innerShadow_206_869"
                result="effect2_innerShadow_206_869" />
            <feColorMatrix in="SourceAlpha" type="matrix"
                values="0 0 0 0 0 0 0 0 0 0 0 0 0 0 0 0 0 0 127 0" result="hardAlpha" />
            <feOffset dy="4" />
            <feGaussianBlur stdDeviation="5" />
            <feComposite in2="hardAlpha" operator="arithmetic" k2="-1" k3="1" />
            <feColorMatrix type="matrix" values="0 0 0 0 1 0 0 0 0 1 0 0 0 0 1 0 0 0 0.5 0" />
            <feBlend mode="normal" in2="effect2_innerShadow_206_869"
                result="effect3_innerShadow_206_869" />
        </filter>
        <filter id="filter6_i_206_869" x="1216.71" y="606.046" width="160.729" height="180.307"
            filterUnits="userSpaceOnUse" color-interpolation-filters="sRGB">
            <feFlood flood-opacity="0" result="BackgroundImageFix" />
            <feBlend mode="normal" in="SourceGraphic" in2="BackgroundImageFix" result="shape" />
            <feColorMatrix in="SourceAlpha" type="matrix"
                values="0 0 0 0 0 0 0 0 0 0 0 0 0 0 0 0 0 0 127 0" result="hardAlpha" />
            <feOffset dy="4" />
            <feGaussianBlur stdDeviation="2" />
            <feComposite in2="hardAlpha" operator="arithmetic" k2="-1" k3="1" />
            <feColorMatrix type="matrix" values="0 0 0 0 1 0 0 0 0 1 0 0 0 0 1 0 0 0 0.25 0" />
            <feBlend mode="normal" in2="shape" result="effect1_innerShadow_206_869" />
        </filter>
        <linearGradient id="paint0_linear_206_869" x1="1262.1" y1="695.8" x2="1262.1" y2="743.8"
            gradientUnits="userSpaceOnUse">
            <stop stop-color="#544B4B" />
            <stop offset="1" stop-color="#1B1B1B" />
        </linearGradient>
        <linearGradient id="paint1_linear_206_869" x1="2272" y1="1111" x2="2272" y2="1487"
            gradientUnits="userSpaceOnUse">
            <stop stop-color="#1B1B1B" stop-opacity="0" />
            <stop offset="0.658654" stop-color="#284F7F" stop-opacity="0.5" />
            <stop offset="1" stop-color="#204C82" />
        </linearGradient>
        <linearGradient id="paint2_linear_206_869" x1="800" y1="1008.92" x2="800" y2="663.439"
            gradientUnits="userSpaceOnUse">
            <stop stop-color="#1E242D" stop-opacity="0" />
            <stop offset="1" stop-color="white" stop-opacity="0.2" />
        </linearGradient>
        <linearGradient id="paint3_linear_206_869" x1="280" y1="602.5" x2="279.5" y2="735"
            gradientUnits="userSpaceOnUse">
            <stop stop-color="#353535" />
            <stop offset="1" stop-color="#9B9B9B" stop-opacity="0" />
        </linearGradient>
        <radialGradient id="paint4_radial_206_869" cx="0" cy="0" r="1"
            gradientUnits="userSpaceOnUse"
            gradientTransform="translate(300.5 672.5) rotate(-143.783) scale(166.711 312.194)">
            <stop stop-color="#FFCDF7" stop-opacity="0" />
            <stop offset="1" stop-color="#FFCDF7" />
        </radialGradient>
        <linearGradient id="paint5_linear_206_869" x1="266" y1="1082.5" x2="265.504" y2="755"
            gradientUnits="userSpaceOnUse">
            <stop offset="0.274981" stop-color="#BE8FFF" />
            <stop offset="1" stop-color="#9B9B9B" stop-opacity="0" />
        </linearGradient>
        <linearGradient id="paint6_linear_206_869" x1="1245.75" y1="740.614" x2="1245.7" y2="798"
            gradientUnits="userSpaceOnUse">
            <stop stop-color="#386F70" />
            <stop offset="0.5" stop-color="#386F70" />
            <stop offset="1" stop-color="#386F70" stop-opacity="0.2" />
        </linearGradient>
        <radialGradient id="paint7_radial_206_869" cx="0" cy="0" r="1"
            gradientUnits="userSpaceOnUse"
            gradientTransform="translate(1245.5 752) rotate(90) scale(46 294.5)">
            <stop stop-color="#FFCDF7" />
            <stop offset="1" stop-color="#FFCDF7" stop-opacity="0" />
        </radialGradient>
        <radialGradient id="paint8_radial_206_869" cx="0" cy="0" r="1"
            gradientUnits="userSpaceOnUse"
            gradientTransform="translate(1301 899.099) rotate(-117.96) scale(119.441 113.483)">
            <stop stop-color="#FFCDF7" />
            <stop offset="1" stop-color="#75EDEF" stop-opacity="0" />
        </radialGradient>
        <radialGradient id="paint9_radial_206_869" cx="0" cy="0" r="1"
            gradientUnits="userSpaceOnUse"
            gradientTransform="translate(1372.5 926.599) rotate(-106.03) scale(139.421 132.466)">
            <stop stop-color="white" stop-opacity="0" />
            <stop offset="1" stop-color="#C6EC75" />
        </radialGradient>
        <linearGradient id="paint10_linear_206_869" x1="1375" y1="931.599" x2="1208.5" y2="898.599"
            gradientUnits="userSpaceOnUse">
            <stop stop-color="#F54E2D" stop-opacity="0" />
            <stop offset="1" stop-color="#F54E2D" />
        </linearGradient>
        <linearGradient id="paint11_linear_206_869" x1="1292.23" y1="975.462" x2="1240" y2="938.099"
            gradientUnits="userSpaceOnUse">
            <stop stop-color="white" stop-opacity="0" />
            <stop offset="1" stop-color="white" />
        </linearGradient>
        <radialGradient id="paint12_radial_206_869" cx="0" cy="0" r="1"
            gradientUnits="userSpaceOnUse"
            gradientTransform="translate(1303 908.599) rotate(-84.1544) scale(211.098 200.567)">
            <stop stop-color="#4C26BE" stop-opacity="0" />
            <stop offset="0.783465" stop-color="#4C26BE" />
        </radialGradient>
        <radialGradient id="paint13_radial_206_869" cx="0" cy="0" r="1"
            gradientUnits="userSpaceOnUse"
            gradientTransform="translate(1283.12 838.753) rotate(-98.7098) scale(37.7857 9.91775)">
            <stop stop-color="#FFCDF7" />
            <stop offset="1" stop-color="#75EDEF" stop-opacity="0" />
        </radialGradient>
        <radialGradient id="paint14_radial_206_869" cx="0" cy="0" r="1"
            gradientUnits="userSpaceOnUse"
            gradientTransform="translate(1289.16 849.162) rotate(-95.6564) scale(47.2842 10.7987)">
            <stop stop-color="white" stop-opacity="0" />
            <stop offset="1" stop-color="#C6EC75" />
        </radialGradient>
        <linearGradient id="paint15_linear_206_869" x1="1286.29" y1="861.886" x2="1264.94"
            y2="856.67" gradientUnits="userSpaceOnUse">
            <stop stop-color="#F54E2D" stop-opacity="0" />
            <stop offset="1" stop-color="#F54E2D" />
        </linearGradient>
        <linearGradient id="paint16_linear_206_869" x1="1294" y1="849.6" x2="1287.5" y2="813.6"
            gradientUnits="userSpaceOnUse">
            <stop stop-color="#4C26BE" stop-opacity="0" />
            <stop offset="1" stop-color="#4C26BE" />
        </linearGradient>
        <radialGradient id="paint17_radial_206_869" cx="0" cy="0" r="1"
            gradientUnits="userSpaceOnUse"
            gradientTransform="translate(1342.36 836.129) rotate(-102.038) scale(39.182 15.6474)">
            <stop stop-color="#FFCDF7" />
            <stop offset="1" stop-color="#75EDEF" stop-opacity="0" />
        </radialGradient>
        <radialGradient id="paint18_radial_206_869" cx="0" cy="0" r="1"
            gradientUnits="userSpaceOnUse"
            gradientTransform="translate(1351.7 846.699) rotate(-97.3612) scale(48.7414 17.1387)">
            <stop stop-color="white" stop-opacity="0" />
            <stop offset="1" stop-color="#C6EC75" />
        </radialGradient>
        <linearGradient id="paint19_linear_206_869" x1="1346.83" y1="859.872" x2="1315.99"
            y2="847.579" gradientUnits="userSpaceOnUse">
            <stop stop-color="#F54E2D" stop-opacity="0" />
            <stop offset="1" stop-color="#F54E2D" />
        </linearGradient>
        <linearGradient id="paint20_linear_206_869" x1="1341.91" y1="863.369" x2="1341" y2="829.1"
            gradientUnits="userSpaceOnUse">
            <stop stop-color="#4C26BE" stop-opacity="0" />
            <stop offset="1" stop-color="#4C26BE" />
        </linearGradient>
        <linearGradient id="paint21_linear_206_869" x1="1352" y1="836.6" x2="1341" y2="854.6"
            gradientUnits="userSpaceOnUse">
            <stop stop-opacity="0" />
            <stop offset="1" />
        </linearGradient>
        <radialGradient id="paint22_radial_206_869" cx="0" cy="0" r="1"
            gradientUnits="userSpaceOnUse"
            gradientTransform="translate(1309 682) rotate(117.96) scale(119.441 113.483)">
            <stop stop-color="#FFCDF7" />
            <stop offset="1" stop-color="#75EDEF" stop-opacity="0" />
        </radialGradient>
        <radialGradient id="paint23_radial_206_869" cx="0" cy="0" r="1"
            gradientUnits="userSpaceOnUse"
            gradientTransform="translate(1380.5 654.5) rotate(106.03) scale(139.421 132.466)">
            <stop stop-color="white" stop-opacity="0" />
            <stop offset="1" stop-color="#C6EC75" />
        </radialGradient>
        <linearGradient id="paint24_linear_206_869" x1="1383" y1="649.5" x2="1216.5" y2="682.5"
            gradientUnits="userSpaceOnUse">
            <stop stop-color="#F54E2D" stop-opacity="0" />
            <stop offset="1" stop-color="#F54E2D" />
        </linearGradient>
        <linearGradient id="paint25_linear_206_869" x1="1300.23" y1="605.638" x2="1248" y2="643"
            gradientUnits="userSpaceOnUse">
            <stop stop-color="white" stop-opacity="0" />
            <stop offset="1" stop-color="white" />
        </linearGradient>
        <radialGradient id="paint26_radial_206_869" cx="0" cy="0" r="1"
            gradientUnits="userSpaceOnUse"
            gradientTransform="translate(1311 672.5) rotate(84.1544) scale(211.098 200.567)">
            <stop stop-color="#4C26BE" stop-opacity="0" />
            <stop offset="0.783465" stop-color="#4C26BE" />
        </radialGradient>
        <radialGradient id="paint27_radial_206_869" cx="0" cy="0" r="1"
            gradientUnits="userSpaceOnUse"
            gradientTransform="translate(1291.12 742.346) rotate(98.7098) scale(37.7857 9.91775)">
            <stop stop-color="#FFCDF7" />
            <stop offset="1" stop-color="#75EDEF" stop-opacity="0" />
        </radialGradient>
        <radialGradient id="paint28_radial_206_869" cx="0" cy="0" r="1"
            gradientUnits="userSpaceOnUse"
            gradientTransform="translate(1297.16 731.938) rotate(95.6564) scale(47.2842 10.7987)">
            <stop stop-color="white" stop-opacity="0" />
            <stop offset="1" stop-color="#C6EC75" />
        </radialGradient>
        <linearGradient id="paint29_linear_206_869" x1="1294.29" y1="719.214" x2="1272.94"
            y2="724.43" gradientUnits="userSpaceOnUse">
            <stop stop-color="#F54E2D" stop-opacity="0" />
            <stop offset="1" stop-color="#F54E2D" />
        </linearGradient>
        <linearGradient id="paint30_linear_206_869" x1="1302" y1="731.5" x2="1295.5" y2="767.5"
            gradientUnits="userSpaceOnUse">
            <stop stop-color="#4C26BE" stop-opacity="0" />
            <stop offset="1" stop-color="#4C26BE" />
        </linearGradient>
        <radialGradient id="paint31_radial_206_869" cx="0" cy="0" r="1"
            gradientUnits="userSpaceOnUse"
            gradientTransform="translate(1350.36 744.97) rotate(102.038) scale(39.182 15.6474)">
            <stop stop-color="#FFCDF7" />
            <stop offset="1" stop-color="#75EDEF" stop-opacity="0" />
        </radialGradient>
        <radialGradient id="paint32_radial_206_869" cx="0" cy="0" r="1"
            gradientUnits="userSpaceOnUse"
            gradientTransform="translate(1359.7 734.401) rotate(97.3612) scale(48.7414 17.1387)">
            <stop stop-color="white" stop-opacity="0" />
            <stop offset="1" stop-color="#C6EC75" />
        </radialGradient>
        <linearGradient id="paint33_linear_206_869" x1="1354.83" y1="721.227" x2="1323.99"
            y2="733.521" gradientUnits="userSpaceOnUse">
            <stop stop-color="#F54E2D" stop-opacity="0" />
            <stop offset="1" stop-color="#F54E2D" />
        </linearGradient>
        <linearGradient id="paint34_linear_206_869" x1="1349.91" y1="717.731" x2="1349" y2="752"
            gradientUnits="userSpaceOnUse">
            <stop stop-color="#4C26BE" stop-opacity="0" />
            <stop offset="1" stop-color="#4C26BE" />
        </linearGradient>
        <linearGradient id="paint35_linear_206_869" x1="1360" y1="744.5" x2="1349" y2="726.5"
            gradientUnits="userSpaceOnUse">
            <stop stop-opacity="0" />
            <stop offset="1" />
        </linearGradient>
        <clipPath id="clip0_206_869">
            <rect width="1512" height="1492" fill="white" />
        </clipPath>
    </defs>
</svg>
    