<svg width="1512" height="1357" viewBox="0 0 1512 1357" fill="none" xmlns="http://www.w3.org/2000/svg">
    <rect x="1513" y="997" width="1512" height="376" transform="rotate(-180 1513 997)" fill="url(#paint0_linear_0_1)"/>
    <circle cx="1389.5" cy="886.5" r="238" transform="rotate(-90 1389.5 886.5)" stroke="url(#paint1_linear_0_1)"/>
    <path d="M3.91179 790.593C-50.2635 754.37 -64.8166 681.088 -28.5935 626.912C7.62961 572.737 80.912 558.184 135.087 594.407C189.263 630.63 203.816 703.913 167.593 758.088C131.369 812.263 58.0871 826.816 3.91179 790.593Z" stroke="url(#paint2_linear_0_1)"/>
    <path d="M522.834 615.81L491.423 609.634V583.813H462.43L462.467 593.97H448.687V575.05H421.181L421.237 603.457H418.838V595.402H414.802V587.645H411.566V580.371H399.515V557.489H372.01L372.084 593.988H357.485V575.069H329.98V585.171H304.743V598.193H300.577V590.417H290.33V568.037H282.259V560.261H265.949V565.451H259.998V567.553H257.99V558.345H233.553V543.425H225.481V535.649H209.172V540.839H203.22V542.942H196.897V555.015H195.056V556.671H181.462V552.094H178.319V543.202H163.813V516.618H134.819L134.857 529.919H113.377L109.639 442.801H113.563C118.435 442.913 118.361 439.788 118.361 439.788C118.324 438.43 117.468 437.667 116.613 437.258C119.16 435.286 119.365 430.84 119.365 430.84C119.365 427.045 115.943 424.738 115.943 424.738V419.083H109.657V414.32C110.457 413.892 111.033 413.241 110.996 412.181C110.996 412.181 110.55 410.86 108.467 410.19V371.868C109.564 371.366 110.513 370.454 110.494 368.761C110.494 368.761 110.085 366.752 108.132 365.692V339.536H107.426V329.174H106.719L105.454 299L104.394 329.174H103.483V339.536H102.832V365.636C101.809 366.101 100.805 366.957 100.526 368.52C100.526 368.52 100.284 370.473 102.293 371.626V410.042C101.009 410.302 99.7634 410.841 99.7076 412.013C99.7076 412.013 99.3357 413.353 100.954 414.246V419.064H94.9281V424.719C91.3574 426.952 91.2458 430.226 91.2458 430.226C91.2458 434.616 93.7565 437.146 93.7565 437.146C91.7666 438.281 92.3059 440.16 92.3059 440.16C92.4175 442.783 98.7592 442.783 100.507 442.727L95.9696 569.6H93.4961V550.997H91.7108V549.099H88.5306V550.755H74.936V546.179H69.301V550.253H62.5316V541.063H33.5383L33.5941 557.508H13.3602V498.35H-14.1453L-14.0151 557.192H-17.158V549.136H-21.1937V541.379H-24.4296V534.105H-37.4849V540.877H-42.0041V549.825H-45.147V557.285H-48.4945V579.887V530.701H-76L-75.814 621H527L522.816 615.847L522.834 615.81Z" fill="url(#paint3_linear_0_1)"/>
    <path d="M522.834 615.81L491.423 609.634V583.813H462.43L462.467 593.97H448.687V575.05H421.181L421.237 603.457H418.838V595.402H414.802V587.645H411.566V580.371H399.515V557.489H372.01L372.084 593.988H357.485V575.069H329.98V585.171H304.743V598.193H300.577V590.417H290.33V568.037H282.259V560.261H265.949V565.451H259.998V567.553H257.99V558.345H233.553V543.425H225.481V535.649H209.172V540.839H203.22V542.942H196.897V555.015H195.056V556.671H181.462V552.094H178.319V543.202H163.813V516.618H134.819L134.857 529.919H113.377L109.639 442.801H113.563C118.435 442.913 118.361 439.788 118.361 439.788C118.324 438.43 117.468 437.667 116.613 437.258C119.16 435.286 119.365 430.84 119.365 430.84C119.365 427.045 115.943 424.738 115.943 424.738V419.083H109.657V414.32C110.457 413.892 111.033 413.241 110.996 412.181C110.996 412.181 110.55 410.86 108.467 410.19V371.868C109.564 371.366 110.513 370.454 110.494 368.761C110.494 368.761 110.085 366.752 108.132 365.692V339.536H107.426V329.174H106.719L105.454 299L104.394 329.174H103.483V339.536H102.832V365.636C101.809 366.101 100.805 366.957 100.526 368.52C100.526 368.52 100.284 370.473 102.293 371.626V410.042C101.009 410.302 99.7634 410.841 99.7076 412.013C99.7076 412.013 99.3357 413.353 100.954 414.246V419.064H94.9281V424.719C91.3574 426.952 91.2458 430.226 91.2458 430.226C91.2458 434.616 93.7565 437.146 93.7565 437.146C91.7666 438.281 92.3059 440.16 92.3059 440.16C92.4175 442.783 98.7592 442.783 100.507 442.727L95.9696 569.6H93.4961V550.997H91.7108V549.099H88.5306V550.755H74.936V546.179H69.301V550.253H62.5316V541.063H33.5383L33.5941 557.508H13.3602V498.35H-14.1453L-14.0151 557.192H-17.158V549.136H-21.1937V541.379H-24.4296V534.105H-37.4849V540.877H-42.0041V549.825H-45.147V557.285H-48.4945V579.887V530.701H-76L-75.814 621H527L522.816 615.847L522.834 615.81Z" fill="url(#paint4_radial_0_1)" fill-opacity="0.2"/>
    <path d="M918.5 597L882 637.5H1513V445L1432 488L1409 481.5L1331.5 534.5L1288.5 511L1220.5 517L1182 527.5H1131L1058.5 557L1032 548.5L957.5 597H918.5Z" fill="url(#paint5_linear_0_1)" fill-opacity="0.3"/>
    <g filter="url(#filter0_f_0_1)">
    <path d="M466.359 642.529L438.907 647.919V670.452H413.568L413.601 661.588H401.557V678.099H377.518L377.567 653.309H375.47V660.338H371.943V667.108H369.115V673.456H358.583V693.424H334.544L334.609 661.572H321.85V678.083H297.812V669.267H275.756V657.903H272.115V664.689H263.159V684.219H256.105V691.005H241.851V686.476H236.65V684.641H234.895V692.677H213.538V705.697H206.484V712.483H192.23V707.954H187.028V706.119H181.502V695.583H179.893V694.138H168.012V698.132H165.265V705.892H152.587V729.091H127.248L127.281 717.483H108.508L105.241 793.509H108.671C112.929 793.411 112.864 796.139 112.864 796.139C112.832 797.324 112.084 797.989 111.336 798.346C113.563 800.067 113.742 803.947 113.742 803.947C113.742 807.259 110.751 809.272 110.751 809.272V814.207H105.258V818.363C105.957 818.737 106.46 819.305 106.428 820.23C106.428 820.23 106.038 821.383 104.217 821.967V855.41C105.176 855.848 106.005 856.644 105.989 858.121C105.989 858.121 105.631 859.875 103.925 860.8V883.625H103.307V892.668H102.69L101.584 919L100.658 892.668H99.8615V883.625H99.2926V860.849C98.3987 860.443 97.521 859.696 97.2772 858.332C97.2772 858.332 97.0659 856.628 98.8213 855.621V822.097C97.6998 821.87 96.6108 821.399 96.5621 820.376C96.5621 820.376 96.237 819.208 97.651 818.428V814.224H92.3849V809.288C89.2643 807.34 89.1668 804.483 89.1668 804.483C89.1668 800.652 91.361 798.444 91.361 798.444C89.6219 797.454 90.0932 795.814 90.0932 795.814C90.1907 793.525 95.7331 793.525 97.261 793.574L93.2951 682.855H91.1334V699.09H89.5731V700.746H86.7938V699.301H74.9125V703.294H69.9878V699.739H64.0715V707.759H38.7325L38.7812 693.408H21.0975V745.033H-2.94122L-2.82744 693.684H-5.57427V700.713H-9.10125V707.483H-11.9293V713.831H-23.3392V707.921H-27.2888V700.113H-30.0356V693.603H-32.9612V673.878V716.801H-57L-56.8375 638H470L466.343 642.497L466.359 642.529Z" fill="url(#paint6_linear_0_1)"/>
    </g>
    <g filter="url(#filter1_iii_0_1)">
    <g opacity="0.2" filter="url(#filter2_i_0_1)">
    <path d="M1206.98 855.417C1206.98 855.417 1209.95 852.261 1212.62 850.965C1212.62 850.965 1218.3 849.241 1221.17 849.115C1221.17 849.115 1224.7 848.173 1226.94 845.835C1226.94 845.835 1237.09 849.317 1240.21 854.917C1240.21 854.917 1242.46 859.808 1243.65 859.52C1243.65 859.52 1245.02 858.968 1244.26 855.602C1244.26 855.602 1250.79 859.755 1253.08 862.208C1253.08 862.208 1256.1 864.256 1257.28 863.301C1257.28 863.301 1259.05 862.554 1256.41 858.898C1256.41 858.898 1263.54 861.964 1266.35 864.178C1266.35 864.178 1268.86 866.248 1270.25 865.657C1270.25 865.657 1271.79 864.98 1270.1 862.205C1270.1 862.205 1275.17 864.536 1276.87 867.487C1276.87 867.487 1277.81 868.762 1278.97 867.905C1278.97 867.905 1280.32 868.101 1278.18 864.305C1278.18 864.305 1283.85 867.651 1285.51 870.053C1285.51 870.053 1288.18 870.014 1284.7 865.098C1284.7 865.098 1283.97 862.36 1280.41 858.136C1280.41 858.136 1288.32 861.54 1290.87 865.554C1290.87 865.554 1295.28 868.031 1291.57 859.924C1291.57 859.924 1283.2 839.977 1252.8 836.247C1252.8 836.247 1242 835.033 1233.04 837.118C1233.04 837.118 1241.03 827.708 1248.38 823.239C1248.38 823.239 1251.39 821.063 1262.09 821.044C1262.09 821.044 1284.16 821.191 1291.07 819.708C1291.07 819.708 1293.36 819.077 1296.42 817.508C1296.42 817.508 1301.12 816.22 1307.22 817.759C1307.22 817.759 1321.22 821.622 1329.77 818.298C1329.77 818.298 1348.95 811.696 1351.71 801.575C1351.71 801.575 1354.66 787.692 1350.6 776.279C1350.6 776.279 1349.17 770.605 1347.13 766.274C1347.13 766.274 1345.37 760.261 1349.63 754.847C1349.63 754.847 1352.27 750.585 1353.43 744.777C1353.43 744.777 1351.96 727.455 1349.45 717.172C1349.45 717.172 1344.22 702.431 1339.92 695.842C1339.92 695.842 1338.14 693.779 1334.43 693.746C1330.71 693.714 1331.35 696.554 1331.56 697.841C1331.56 697.841 1337.03 715.008 1338.23 721.753C1338.23 721.753 1341.89 736.071 1336.56 745.207C1336.56 745.207 1333.3 750.321 1327.71 753.141C1327.71 753.141 1317.66 757.808 1313.65 762.66C1313.65 762.66 1299.28 760.189 1292.66 758.948C1292.66 758.948 1279.82 756.39 1270.78 760.875C1270.78 760.875 1269.33 745.024 1267.27 732.973C1267.27 732.973 1260.05 705.019 1254.15 700.053C1254.15 700.053 1252.17 699.158 1248.49 700.459C1248.49 700.459 1245.63 701.116 1247.47 704.925C1247.47 704.925 1256.19 719.983 1254.14 737.304C1254.14 737.304 1250.39 762.362 1243.56 769.677C1243.56 769.677 1232.01 782.151 1223.91 804.67C1223.91 804.67 1220.5 813.072 1212.07 821.007C1212.07 821.007 1203.49 825.158 1199.59 835.664C1199.59 835.664 1195.29 841.06 1194.39 845.559C1194.39 845.559 1191.08 852.601 1193.73 855.667C1193.73 855.667 1199.17 861.852 1206.95 855.439L1206.98 855.417Z" fill="url(#paint7_radial_0_1)" fill-opacity="0.6"/>
    <path d="M1206.98 855.417C1206.98 855.417 1209.95 852.261 1212.62 850.965C1212.62 850.965 1218.3 849.241 1221.17 849.115C1221.17 849.115 1224.7 848.173 1226.94 845.835C1226.94 845.835 1237.09 849.317 1240.21 854.917C1240.21 854.917 1242.46 859.808 1243.65 859.52C1243.65 859.52 1245.02 858.968 1244.26 855.602C1244.26 855.602 1250.79 859.755 1253.08 862.208C1253.08 862.208 1256.1 864.256 1257.28 863.301C1257.28 863.301 1259.05 862.554 1256.41 858.898C1256.41 858.898 1263.54 861.964 1266.35 864.178C1266.35 864.178 1268.86 866.248 1270.25 865.657C1270.25 865.657 1271.79 864.98 1270.1 862.205C1270.1 862.205 1275.17 864.536 1276.87 867.487C1276.87 867.487 1277.81 868.762 1278.97 867.905C1278.97 867.905 1280.32 868.101 1278.18 864.305C1278.18 864.305 1283.85 867.651 1285.51 870.053C1285.51 870.053 1288.18 870.014 1284.7 865.098C1284.7 865.098 1283.97 862.36 1280.41 858.136C1280.41 858.136 1288.32 861.54 1290.87 865.554C1290.87 865.554 1295.28 868.031 1291.57 859.924C1291.57 859.924 1283.2 839.977 1252.8 836.247C1252.8 836.247 1242 835.033 1233.04 837.118C1233.04 837.118 1241.03 827.708 1248.38 823.239C1248.38 823.239 1251.39 821.063 1262.09 821.044C1262.09 821.044 1284.16 821.191 1291.07 819.708C1291.07 819.708 1293.36 819.077 1296.42 817.508C1296.42 817.508 1301.12 816.22 1307.22 817.759C1307.22 817.759 1321.22 821.622 1329.77 818.298C1329.77 818.298 1348.95 811.696 1351.71 801.575C1351.71 801.575 1354.66 787.692 1350.6 776.279C1350.6 776.279 1349.17 770.605 1347.13 766.274C1347.13 766.274 1345.37 760.261 1349.63 754.847C1349.63 754.847 1352.27 750.585 1353.43 744.777C1353.43 744.777 1351.96 727.455 1349.45 717.172C1349.45 717.172 1344.22 702.431 1339.92 695.842C1339.92 695.842 1338.14 693.779 1334.43 693.746C1330.71 693.714 1331.35 696.554 1331.56 697.841C1331.56 697.841 1337.03 715.008 1338.23 721.753C1338.23 721.753 1341.89 736.071 1336.56 745.207C1336.56 745.207 1333.3 750.321 1327.71 753.141C1327.71 753.141 1317.66 757.808 1313.65 762.66C1313.65 762.66 1299.28 760.189 1292.66 758.948C1292.66 758.948 1279.82 756.39 1270.78 760.875C1270.78 760.875 1269.33 745.024 1267.27 732.973C1267.27 732.973 1260.05 705.019 1254.15 700.053C1254.15 700.053 1252.17 699.158 1248.49 700.459C1248.49 700.459 1245.63 701.116 1247.47 704.925C1247.47 704.925 1256.19 719.983 1254.14 737.304C1254.14 737.304 1250.39 762.362 1243.56 769.677C1243.56 769.677 1232.01 782.151 1223.91 804.67C1223.91 804.67 1220.5 813.072 1212.07 821.007C1212.07 821.007 1203.49 825.158 1199.59 835.664C1199.59 835.664 1195.29 841.06 1194.39 845.559C1194.39 845.559 1191.08 852.601 1193.73 855.667C1193.73 855.667 1199.17 861.852 1206.95 855.439L1206.98 855.417Z" fill="url(#paint8_radial_0_1)" fill-opacity="0.2"/>
    <path d="M1206.98 855.417C1206.98 855.417 1209.95 852.261 1212.62 850.965C1212.62 850.965 1218.3 849.241 1221.17 849.115C1221.17 849.115 1224.7 848.173 1226.94 845.835C1226.94 845.835 1237.09 849.317 1240.21 854.917C1240.21 854.917 1242.46 859.808 1243.65 859.52C1243.65 859.52 1245.02 858.968 1244.26 855.602C1244.26 855.602 1250.79 859.755 1253.08 862.208C1253.08 862.208 1256.1 864.256 1257.28 863.301C1257.28 863.301 1259.05 862.554 1256.41 858.898C1256.41 858.898 1263.54 861.964 1266.35 864.178C1266.35 864.178 1268.86 866.248 1270.25 865.657C1270.25 865.657 1271.79 864.98 1270.1 862.205C1270.1 862.205 1275.17 864.536 1276.87 867.487C1276.87 867.487 1277.81 868.762 1278.97 867.905C1278.97 867.905 1280.32 868.101 1278.18 864.305C1278.18 864.305 1283.85 867.651 1285.51 870.053C1285.51 870.053 1288.18 870.014 1284.7 865.098C1284.7 865.098 1283.97 862.36 1280.41 858.136C1280.41 858.136 1288.32 861.54 1290.87 865.554C1290.87 865.554 1295.28 868.031 1291.57 859.924C1291.57 859.924 1283.2 839.977 1252.8 836.247C1252.8 836.247 1242 835.033 1233.04 837.118C1233.04 837.118 1241.03 827.708 1248.38 823.239C1248.38 823.239 1251.39 821.063 1262.09 821.044C1262.09 821.044 1284.16 821.191 1291.07 819.708C1291.07 819.708 1293.36 819.077 1296.42 817.508C1296.42 817.508 1301.12 816.22 1307.22 817.759C1307.22 817.759 1321.22 821.622 1329.77 818.298C1329.77 818.298 1348.95 811.696 1351.71 801.575C1351.71 801.575 1354.66 787.692 1350.6 776.279C1350.6 776.279 1349.17 770.605 1347.13 766.274C1347.13 766.274 1345.37 760.261 1349.63 754.847C1349.63 754.847 1352.27 750.585 1353.43 744.777C1353.43 744.777 1351.96 727.455 1349.45 717.172C1349.45 717.172 1344.22 702.431 1339.92 695.842C1339.92 695.842 1338.14 693.779 1334.43 693.746C1330.71 693.714 1331.35 696.554 1331.56 697.841C1331.56 697.841 1337.03 715.008 1338.23 721.753C1338.23 721.753 1341.89 736.071 1336.56 745.207C1336.56 745.207 1333.3 750.321 1327.71 753.141C1327.71 753.141 1317.66 757.808 1313.65 762.66C1313.65 762.66 1299.28 760.189 1292.66 758.948C1292.66 758.948 1279.82 756.39 1270.78 760.875C1270.78 760.875 1269.33 745.024 1267.27 732.973C1267.27 732.973 1260.05 705.019 1254.15 700.053C1254.15 700.053 1252.17 699.158 1248.49 700.459C1248.49 700.459 1245.63 701.116 1247.47 704.925C1247.47 704.925 1256.19 719.983 1254.14 737.304C1254.14 737.304 1250.39 762.362 1243.56 769.677C1243.56 769.677 1232.01 782.151 1223.91 804.67C1223.91 804.67 1220.5 813.072 1212.07 821.007C1212.07 821.007 1203.49 825.158 1199.59 835.664C1199.59 835.664 1195.29 841.06 1194.39 845.559C1194.39 845.559 1191.08 852.601 1193.73 855.667C1193.73 855.667 1199.17 861.852 1206.95 855.439L1206.98 855.417Z" fill="url(#paint9_linear_0_1)" fill-opacity="0.2"/>
    <path d="M1206.98 855.417C1206.98 855.417 1209.95 852.261 1212.62 850.965C1212.62 850.965 1218.3 849.241 1221.17 849.115C1221.17 849.115 1224.7 848.173 1226.94 845.835C1226.94 845.835 1237.09 849.317 1240.21 854.917C1240.21 854.917 1242.46 859.808 1243.65 859.52C1243.65 859.52 1245.02 858.968 1244.26 855.602C1244.26 855.602 1250.79 859.755 1253.08 862.208C1253.08 862.208 1256.1 864.256 1257.28 863.301C1257.28 863.301 1259.05 862.554 1256.41 858.898C1256.41 858.898 1263.54 861.964 1266.35 864.178C1266.35 864.178 1268.86 866.248 1270.25 865.657C1270.25 865.657 1271.79 864.98 1270.1 862.205C1270.1 862.205 1275.17 864.536 1276.87 867.487C1276.87 867.487 1277.81 868.762 1278.97 867.905C1278.97 867.905 1280.32 868.101 1278.18 864.305C1278.18 864.305 1283.85 867.651 1285.51 870.053C1285.51 870.053 1288.18 870.014 1284.7 865.098C1284.7 865.098 1283.97 862.36 1280.41 858.136C1280.41 858.136 1288.32 861.54 1290.87 865.554C1290.87 865.554 1295.28 868.031 1291.57 859.924C1291.57 859.924 1283.2 839.977 1252.8 836.247C1252.8 836.247 1242 835.033 1233.04 837.118C1233.04 837.118 1241.03 827.708 1248.38 823.239C1248.38 823.239 1251.39 821.063 1262.09 821.044C1262.09 821.044 1284.16 821.191 1291.07 819.708C1291.07 819.708 1293.36 819.077 1296.42 817.508C1296.42 817.508 1301.12 816.22 1307.22 817.759C1307.22 817.759 1321.22 821.622 1329.77 818.298C1329.77 818.298 1348.95 811.696 1351.71 801.575C1351.71 801.575 1354.66 787.692 1350.6 776.279C1350.6 776.279 1349.17 770.605 1347.13 766.274C1347.13 766.274 1345.37 760.261 1349.63 754.847C1349.63 754.847 1352.27 750.585 1353.43 744.777C1353.43 744.777 1351.96 727.455 1349.45 717.172C1349.45 717.172 1344.22 702.431 1339.92 695.842C1339.92 695.842 1338.14 693.779 1334.43 693.746C1330.71 693.714 1331.35 696.554 1331.56 697.841C1331.56 697.841 1337.03 715.008 1338.23 721.753C1338.23 721.753 1341.89 736.071 1336.56 745.207C1336.56 745.207 1333.3 750.321 1327.71 753.141C1327.71 753.141 1317.66 757.808 1313.65 762.66C1313.65 762.66 1299.28 760.189 1292.66 758.948C1292.66 758.948 1279.82 756.39 1270.78 760.875C1270.78 760.875 1269.33 745.024 1267.27 732.973C1267.27 732.973 1260.05 705.019 1254.15 700.053C1254.15 700.053 1252.17 699.158 1248.49 700.459C1248.49 700.459 1245.63 701.116 1247.47 704.925C1247.47 704.925 1256.19 719.983 1254.14 737.304C1254.14 737.304 1250.39 762.362 1243.56 769.677C1243.56 769.677 1232.01 782.151 1223.91 804.67C1223.91 804.67 1220.5 813.072 1212.07 821.007C1212.07 821.007 1203.49 825.158 1199.59 835.664C1199.59 835.664 1195.29 841.06 1194.39 845.559C1194.39 845.559 1191.08 852.601 1193.73 855.667C1193.73 855.667 1199.17 861.852 1206.95 855.439L1206.98 855.417Z" fill="url(#paint10_linear_0_1)" fill-opacity="0.2"/>
    <path d="M1206.98 855.417C1206.98 855.417 1209.95 852.261 1212.62 850.965C1212.62 850.965 1218.3 849.241 1221.17 849.115C1221.17 849.115 1224.7 848.173 1226.94 845.835C1226.94 845.835 1237.09 849.317 1240.21 854.917C1240.21 854.917 1242.46 859.808 1243.65 859.52C1243.65 859.52 1245.02 858.968 1244.26 855.602C1244.26 855.602 1250.79 859.755 1253.08 862.208C1253.08 862.208 1256.1 864.256 1257.28 863.301C1257.28 863.301 1259.05 862.554 1256.41 858.898C1256.41 858.898 1263.54 861.964 1266.35 864.178C1266.35 864.178 1268.86 866.248 1270.25 865.657C1270.25 865.657 1271.79 864.98 1270.1 862.205C1270.1 862.205 1275.17 864.536 1276.87 867.487C1276.87 867.487 1277.81 868.762 1278.97 867.905C1278.97 867.905 1280.32 868.101 1278.18 864.305C1278.18 864.305 1283.85 867.651 1285.51 870.053C1285.51 870.053 1288.18 870.014 1284.7 865.098C1284.7 865.098 1283.97 862.36 1280.41 858.136C1280.41 858.136 1288.32 861.54 1290.87 865.554C1290.87 865.554 1295.28 868.031 1291.57 859.924C1291.57 859.924 1283.2 839.977 1252.8 836.247C1252.8 836.247 1242 835.033 1233.04 837.118C1233.04 837.118 1241.03 827.708 1248.38 823.239C1248.38 823.239 1251.39 821.063 1262.09 821.044C1262.09 821.044 1284.16 821.191 1291.07 819.708C1291.07 819.708 1293.36 819.077 1296.42 817.508C1296.42 817.508 1301.12 816.22 1307.22 817.759C1307.22 817.759 1321.22 821.622 1329.77 818.298C1329.77 818.298 1348.95 811.696 1351.71 801.575C1351.71 801.575 1354.66 787.692 1350.6 776.279C1350.6 776.279 1349.17 770.605 1347.13 766.274C1347.13 766.274 1345.37 760.261 1349.63 754.847C1349.63 754.847 1352.27 750.585 1353.43 744.777C1353.43 744.777 1351.96 727.455 1349.45 717.172C1349.45 717.172 1344.22 702.431 1339.92 695.842C1339.92 695.842 1338.14 693.779 1334.43 693.746C1330.71 693.714 1331.35 696.554 1331.56 697.841C1331.56 697.841 1337.03 715.008 1338.23 721.753C1338.23 721.753 1341.89 736.071 1336.56 745.207C1336.56 745.207 1333.3 750.321 1327.71 753.141C1327.71 753.141 1317.66 757.808 1313.65 762.66C1313.65 762.66 1299.28 760.189 1292.66 758.948C1292.66 758.948 1279.82 756.39 1270.78 760.875C1270.78 760.875 1269.33 745.024 1267.27 732.973C1267.27 732.973 1260.05 705.019 1254.15 700.053C1254.15 700.053 1252.17 699.158 1248.49 700.459C1248.49 700.459 1245.63 701.116 1247.47 704.925C1247.47 704.925 1256.19 719.983 1254.14 737.304C1254.14 737.304 1250.39 762.362 1243.56 769.677C1243.56 769.677 1232.01 782.151 1223.91 804.67C1223.91 804.67 1220.5 813.072 1212.07 821.007C1212.07 821.007 1203.49 825.158 1199.59 835.664C1199.59 835.664 1195.29 841.06 1194.39 845.559C1194.39 845.559 1191.08 852.601 1193.73 855.667C1193.73 855.667 1199.17 861.852 1206.95 855.439L1206.98 855.417Z" fill="url(#paint11_radial_0_1)" fill-opacity="0.2"/>
    <path d="M1206.98 855.417C1206.98 855.417 1209.95 852.261 1212.62 850.965C1212.62 850.965 1218.3 849.241 1221.17 849.115C1221.17 849.115 1224.7 848.173 1226.94 845.835C1226.94 845.835 1237.09 849.317 1240.21 854.917C1240.21 854.917 1242.46 859.808 1243.65 859.52C1243.65 859.52 1245.02 858.968 1244.26 855.602C1244.26 855.602 1250.79 859.755 1253.08 862.208C1253.08 862.208 1256.1 864.256 1257.28 863.301C1257.28 863.301 1259.05 862.554 1256.41 858.898C1256.41 858.898 1263.54 861.964 1266.35 864.178C1266.35 864.178 1268.86 866.248 1270.25 865.657C1270.25 865.657 1271.79 864.98 1270.1 862.205C1270.1 862.205 1275.17 864.536 1276.87 867.487C1276.87 867.487 1277.81 868.762 1278.97 867.905C1278.97 867.905 1280.32 868.101 1278.18 864.305C1278.18 864.305 1283.85 867.651 1285.51 870.053C1285.51 870.053 1288.18 870.014 1284.7 865.098C1284.7 865.098 1283.97 862.36 1280.41 858.136C1280.41 858.136 1288.32 861.54 1290.87 865.554C1290.87 865.554 1295.28 868.031 1291.57 859.924C1291.57 859.924 1283.2 839.977 1252.8 836.247C1252.8 836.247 1242 835.033 1233.04 837.118C1233.04 837.118 1241.03 827.708 1248.38 823.239C1248.38 823.239 1251.39 821.063 1262.09 821.044C1262.09 821.044 1284.16 821.191 1291.07 819.708C1291.07 819.708 1293.36 819.077 1296.42 817.508C1296.42 817.508 1301.12 816.22 1307.22 817.759C1307.22 817.759 1321.22 821.622 1329.77 818.298C1329.77 818.298 1348.95 811.696 1351.71 801.575C1351.71 801.575 1354.66 787.692 1350.6 776.279C1350.6 776.279 1349.17 770.605 1347.13 766.274C1347.13 766.274 1345.37 760.261 1349.63 754.847C1349.63 754.847 1352.27 750.585 1353.43 744.777C1353.43 744.777 1351.96 727.455 1349.45 717.172C1349.45 717.172 1344.22 702.431 1339.92 695.842C1339.92 695.842 1338.14 693.779 1334.43 693.746C1330.71 693.714 1331.35 696.554 1331.56 697.841C1331.56 697.841 1337.03 715.008 1338.23 721.753C1338.23 721.753 1341.89 736.071 1336.56 745.207C1336.56 745.207 1333.3 750.321 1327.71 753.141C1327.71 753.141 1317.66 757.808 1313.65 762.66C1313.65 762.66 1299.28 760.189 1292.66 758.948C1292.66 758.948 1279.82 756.39 1270.78 760.875C1270.78 760.875 1269.33 745.024 1267.27 732.973C1267.27 732.973 1260.05 705.019 1254.15 700.053C1254.15 700.053 1252.17 699.158 1248.49 700.459C1248.49 700.459 1245.63 701.116 1247.47 704.925C1247.47 704.925 1256.19 719.983 1254.14 737.304C1254.14 737.304 1250.39 762.362 1243.56 769.677C1243.56 769.677 1232.01 782.151 1223.91 804.67C1223.91 804.67 1220.5 813.072 1212.07 821.007C1212.07 821.007 1203.49 825.158 1199.59 835.664C1199.59 835.664 1195.29 841.06 1194.39 845.559C1194.39 845.559 1191.08 852.601 1193.73 855.667C1193.73 855.667 1199.17 861.852 1206.95 855.439L1206.98 855.417Z" fill="black" fill-opacity="0.2"/>
    </g>
    <g opacity="0.2">
    <path d="M1270.67 759.347C1274.59 744.583 1271.11 704.086 1271.1 703.944C1270.11 699.174 1265.82 699.618 1265.82 699.618C1264.8 699.702 1263.58 699.972 1263.01 700.921C1262.5 701.827 1262.66 703.333 1262.47 704.363C1262.24 705.65 1261.92 706.941 1261.56 708.195C1261.23 709.375 1260.86 710.544 1260.47 711.709C1264.85 722.816 1269.68 740.95 1270.43 758.422L1270.67 759.347Z" fill="url(#paint12_radial_0_1)"/>
    <path d="M1270.67 759.347C1274.59 744.583 1271.11 704.086 1271.1 703.944C1270.11 699.174 1265.82 699.618 1265.82 699.618C1264.8 699.702 1263.58 699.972 1263.01 700.921C1262.5 701.827 1262.66 703.333 1262.47 704.363C1262.24 705.65 1261.92 706.941 1261.56 708.195C1261.23 709.375 1260.86 710.544 1260.47 711.709C1264.85 722.816 1269.68 740.95 1270.43 758.422L1270.67 759.347Z" fill="url(#paint13_radial_0_1)" fill-opacity="0.2"/>
    <path d="M1270.67 759.347C1274.59 744.583 1271.11 704.086 1271.1 703.944C1270.11 699.174 1265.82 699.618 1265.82 699.618C1264.8 699.702 1263.58 699.972 1263.01 700.921C1262.5 701.827 1262.66 703.333 1262.47 704.363C1262.24 705.65 1261.92 706.941 1261.56 708.195C1261.23 709.375 1260.86 710.544 1260.47 711.709C1264.85 722.816 1269.68 740.95 1270.43 758.422L1270.67 759.347Z" fill="url(#paint14_linear_0_1)" fill-opacity="0.2"/>
    <path d="M1270.67 759.347C1274.59 744.583 1271.11 704.086 1271.1 703.944C1270.11 699.174 1265.82 699.618 1265.82 699.618C1264.8 699.702 1263.58 699.972 1263.01 700.921C1262.5 701.827 1262.66 703.333 1262.47 704.363C1262.24 705.65 1261.92 706.941 1261.56 708.195C1261.23 709.375 1260.86 710.544 1260.47 711.709C1264.85 722.816 1269.68 740.95 1270.43 758.422L1270.67 759.347Z" fill="url(#paint15_linear_0_1)" fill-opacity="0.2"/>
    </g>
    <g opacity="0.2">
    <path d="M1335.5 746.6C1335.5 746.6 1336.19 739.212 1333.3 725.35C1333.3 725.35 1327.75 702.863 1322.45 697.143C1322.45 697.143 1316.48 694.381 1313.26 698.904C1312.57 699.877 1313.47 701.979 1313.84 702.847C1319.32 715.73 1322.01 730.445 1320.98 744.46C1320.62 749.308 1320 755.1 1318.11 758.712L1331.5 751.1L1335.5 746.6Z" fill="url(#paint16_radial_0_1)"/>
    <path d="M1335.5 746.6C1335.5 746.6 1336.19 739.212 1333.3 725.35C1333.3 725.35 1327.75 702.863 1322.45 697.143C1322.45 697.143 1316.48 694.381 1313.26 698.904C1312.57 699.877 1313.47 701.979 1313.84 702.847C1319.32 715.73 1322.01 730.445 1320.98 744.46C1320.62 749.308 1320 755.1 1318.11 758.712L1331.5 751.1L1335.5 746.6Z" fill="url(#paint17_radial_0_1)" fill-opacity="0.2"/>
    <path d="M1335.5 746.6C1335.5 746.6 1336.19 739.212 1333.3 725.35C1333.3 725.35 1327.75 702.863 1322.45 697.143C1322.45 697.143 1316.48 694.381 1313.26 698.904C1312.57 699.877 1313.47 701.979 1313.84 702.847C1319.32 715.73 1322.01 730.445 1320.98 744.46C1320.62 749.308 1320 755.1 1318.11 758.712L1331.5 751.1L1335.5 746.6Z" fill="url(#paint18_linear_0_1)" fill-opacity="0.2"/>
    <path d="M1335.5 746.6C1335.5 746.6 1336.19 739.212 1333.3 725.35C1333.3 725.35 1327.75 702.863 1322.45 697.143C1322.45 697.143 1316.48 694.381 1313.26 698.904C1312.57 699.877 1313.47 701.979 1313.84 702.847C1319.32 715.73 1322.01 730.445 1320.98 744.46C1320.62 749.308 1320 755.1 1318.11 758.712L1331.5 751.1L1335.5 746.6Z" fill="url(#paint19_linear_0_1)" fill-opacity="0.2"/>
    <path d="M1335.5 746.6C1335.5 746.6 1336.19 739.212 1333.3 725.35C1333.3 725.35 1327.75 702.863 1322.45 697.143C1322.45 697.143 1316.48 694.381 1313.26 698.904C1312.57 699.877 1313.47 701.979 1313.84 702.847C1319.32 715.73 1322.01 730.445 1320.98 744.46C1320.62 749.308 1320 755.1 1318.11 758.712L1331.5 751.1L1335.5 746.6Z" fill="url(#paint20_linear_0_1)" fill-opacity="0.2"/>
    </g>
    </g>
    <g style="mix-blend-mode:plus-lighter" opacity="0.4" filter="url(#filter3_f_0_1)">
    <path d="M1358.18 935.023C1447.13 1016.09 1406.94 840.225 1475.15 839.419C1519.66 853.871 1623.28 866.435 1681.69 801.074C1754.7 719.372 1568.81 589.491 1486.25 508.668C1403.68 427.844 1306.82 550.684 1261.04 597.035C1215.25 643.387 1269.23 853.954 1358.18 935.023Z" fill="#FFDD80"/>
    </g>
    <g style="mix-blend-mode:plus-lighter" opacity="0.4" filter="url(#filter4_f_0_1)">
    <path d="M-46.8148 854.023C42.1331 935.091 1.94476 759.225 70.152 758.419C114.661 772.871 218.281 785.435 276.69 720.074C349.701 638.372 163.811 508.491 81.2492 427.668C-1.31256 346.844 -98.1747 469.684 -143.96 516.035C-189.746 562.387 -135.763 772.954 -46.8148 854.023Z" fill="#F17AAD"/>
    </g>
    <path d="M1009.83 789.884C1055.45 783.415 1082.66 775.255 1082.66 766.395C1082.66 758.496 1061.05 751.154 1024.04 745.071C1126.41 742.472 1199 735.955 1199 728.323C1199 719.297 1097.36 711.825 964.992 710.561C964.992 710.496 965.017 710.436 965.017 710.371C965.017 706.531 954.078 702.923 934.819 699.772C1073.57 697.261 1172.86 690.537 1172.86 682.644C1172.86 675.481 1091.15 669.285 972.39 666.323C993.253 663.843 1005.54 660.798 1005.54 657.51C1005.54 649.398 930.826 642.78 836.955 642.395C883.365 640.122 914.042 636.199 914.042 631.73C914.042 624.703 837.996 619 744.184 619C650.373 619 574.327 624.697 574.327 631.73C574.327 638.763 647.403 644.234 738.655 644.448C686.237 647.077 651.047 651.938 651.047 657.504C651.047 660.555 661.628 663.392 679.82 665.772C548.148 668.466 455.224 675 455.224 682.638C455.224 687.101 486.958 691.19 539.615 694.353C492.419 698.401 463.066 704.08 463.066 710.365C463.066 719.605 526.483 727.534 616.804 730.905C489.33 736.436 399 750.234 399 766.389C399 779.92 462.374 791.801 557.858 798.549C557.645 798.697 557.525 798.852 557.525 799C557.525 804.525 701.127 809 878.263 809C1055.4 809 1198.99 804.525 1198.99 799C1198.99 794.941 1121.35 791.445 1009.82 789.878L1009.83 789.884Z" fill="url(#paint21_linear_0_1)"/>
    <path d="M1445.93 610.109L1524 601V693H935L949.512 680.475L1025.08 668.634L1040.59 656.564L1102.14 648.139L1111.65 639.03L1178.21 634.475L1204.23 621.723L1263.28 615.574L1299.31 624.455H1318.33L1391.39 618.307H1432.92L1445.93 610.109Z" fill="url(#paint22_linear_0_1)"/>
    <path d="M1445.93 610.109L1524 601V693H935L949.512 680.475L1025.08 668.634L1040.59 656.564L1102.14 648.139L1111.65 639.03L1178.21 634.475L1204.23 621.723L1263.28 615.574L1299.31 624.455H1318.33L1391.39 618.307H1432.92L1445.93 610.109Z" fill="url(#paint23_radial_0_1)" fill-opacity="0.2"/>
    <g filter="url(#filter5_iii_0_1)">
    <g filter="url(#filter6_i_0_1)">
    <path d="M1214.98 515.682C1214.98 515.682 1217.95 518.838 1220.62 520.135C1220.62 520.135 1226.3 521.859 1229.17 521.985C1229.17 521.985 1232.7 522.927 1234.94 525.265C1234.94 525.265 1245.09 521.783 1248.21 516.183C1248.21 516.183 1250.46 511.292 1251.65 511.58C1251.65 511.58 1253.02 512.132 1252.26 515.497C1252.26 515.497 1258.79 511.345 1261.08 508.891C1261.08 508.891 1264.1 506.843 1265.28 507.799C1265.28 507.799 1267.05 508.545 1264.41 512.201C1264.41 512.201 1271.54 509.136 1274.35 506.922C1274.35 506.922 1276.86 504.851 1278.25 505.443C1278.25 505.443 1279.79 506.12 1278.1 508.894C1278.1 508.894 1283.17 506.564 1284.87 503.613C1284.87 503.613 1285.81 502.338 1286.97 503.195C1286.97 503.195 1288.32 502.998 1286.18 506.795C1286.18 506.795 1291.85 503.449 1293.51 501.046C1293.51 501.046 1296.18 501.085 1292.7 506.001C1292.7 506.001 1291.97 508.739 1288.41 512.964C1288.41 512.964 1296.32 509.559 1298.87 505.546C1298.87 505.546 1303.28 503.068 1299.57 511.176C1299.57 511.176 1291.2 531.123 1260.8 534.852C1260.8 534.852 1250 536.066 1241.04 533.982C1241.04 533.982 1249.03 543.391 1256.38 547.86C1256.38 547.86 1259.39 550.036 1270.09 550.056C1270.09 550.056 1292.16 549.908 1299.07 551.392C1299.07 551.392 1301.36 552.023 1304.42 553.592C1304.42 553.592 1309.12 554.879 1315.22 553.34C1315.22 553.34 1329.22 549.478 1337.77 552.802C1337.77 552.802 1356.95 559.403 1359.71 569.525C1359.71 569.525 1362.66 583.408 1358.6 594.821C1358.6 594.821 1357.17 600.495 1355.13 604.826C1355.13 604.826 1353.37 610.839 1357.63 616.253C1357.63 616.253 1360.27 620.515 1361.43 626.322C1361.43 626.322 1359.96 643.645 1357.45 653.928C1357.45 653.928 1352.22 668.668 1347.92 675.257C1347.92 675.257 1346.14 677.32 1342.43 677.353C1338.71 677.386 1339.35 674.546 1339.56 673.258C1339.56 673.258 1345.03 656.092 1346.23 649.347C1346.23 649.347 1349.89 635.028 1344.56 625.893C1344.56 625.893 1341.3 620.779 1335.71 617.959C1335.71 617.959 1325.66 613.292 1321.65 608.439C1321.65 608.439 1307.28 610.91 1300.66 612.151C1300.66 612.151 1287.82 614.71 1278.78 610.225C1278.78 610.225 1277.33 626.075 1275.27 638.126C1275.27 638.126 1268.05 666.08 1262.15 671.047C1262.15 671.047 1260.17 671.942 1256.49 670.64C1256.49 670.64 1253.63 669.984 1255.47 666.175C1255.47 666.175 1264.19 651.116 1262.14 633.795C1262.14 633.795 1258.39 608.737 1251.56 601.423C1251.56 601.423 1240.01 588.949 1231.91 566.43C1231.91 566.43 1228.5 558.028 1220.07 550.092C1220.07 550.092 1211.49 545.942 1207.59 535.436C1207.59 535.436 1203.29 530.04 1202.39 525.54C1202.39 525.54 1199.08 518.499 1201.73 515.433C1201.73 515.433 1207.17 509.248 1214.95 515.661L1214.98 515.682Z" fill="url(#paint24_radial_0_1)" fill-opacity="0.6"/>
    <path d="M1214.98 515.682C1214.98 515.682 1217.95 518.838 1220.62 520.135C1220.62 520.135 1226.3 521.859 1229.17 521.985C1229.17 521.985 1232.7 522.927 1234.94 525.265C1234.94 525.265 1245.09 521.783 1248.21 516.183C1248.21 516.183 1250.46 511.292 1251.65 511.58C1251.65 511.58 1253.02 512.132 1252.26 515.497C1252.26 515.497 1258.79 511.345 1261.08 508.891C1261.08 508.891 1264.1 506.843 1265.28 507.799C1265.28 507.799 1267.05 508.545 1264.41 512.201C1264.41 512.201 1271.54 509.136 1274.35 506.922C1274.35 506.922 1276.86 504.851 1278.25 505.443C1278.25 505.443 1279.79 506.12 1278.1 508.894C1278.1 508.894 1283.17 506.564 1284.87 503.613C1284.87 503.613 1285.81 502.338 1286.97 503.195C1286.97 503.195 1288.32 502.998 1286.18 506.795C1286.18 506.795 1291.85 503.449 1293.51 501.046C1293.51 501.046 1296.18 501.085 1292.7 506.001C1292.7 506.001 1291.97 508.739 1288.41 512.964C1288.41 512.964 1296.32 509.559 1298.87 505.546C1298.87 505.546 1303.28 503.068 1299.57 511.176C1299.57 511.176 1291.2 531.123 1260.8 534.852C1260.8 534.852 1250 536.066 1241.04 533.982C1241.04 533.982 1249.03 543.391 1256.38 547.86C1256.38 547.86 1259.39 550.036 1270.09 550.056C1270.09 550.056 1292.16 549.908 1299.07 551.392C1299.07 551.392 1301.36 552.023 1304.42 553.592C1304.42 553.592 1309.12 554.879 1315.22 553.34C1315.22 553.34 1329.22 549.478 1337.77 552.802C1337.77 552.802 1356.95 559.403 1359.71 569.525C1359.71 569.525 1362.66 583.408 1358.6 594.821C1358.6 594.821 1357.17 600.495 1355.13 604.826C1355.13 604.826 1353.37 610.839 1357.63 616.253C1357.63 616.253 1360.27 620.515 1361.43 626.322C1361.43 626.322 1359.96 643.645 1357.45 653.928C1357.45 653.928 1352.22 668.668 1347.92 675.257C1347.92 675.257 1346.14 677.32 1342.43 677.353C1338.71 677.386 1339.35 674.546 1339.56 673.258C1339.56 673.258 1345.03 656.092 1346.23 649.347C1346.23 649.347 1349.89 635.028 1344.56 625.893C1344.56 625.893 1341.3 620.779 1335.71 617.959C1335.71 617.959 1325.66 613.292 1321.65 608.439C1321.65 608.439 1307.28 610.91 1300.66 612.151C1300.66 612.151 1287.82 614.71 1278.78 610.225C1278.78 610.225 1277.33 626.075 1275.27 638.126C1275.27 638.126 1268.05 666.08 1262.15 671.047C1262.15 671.047 1260.17 671.942 1256.49 670.64C1256.49 670.64 1253.63 669.984 1255.47 666.175C1255.47 666.175 1264.19 651.116 1262.14 633.795C1262.14 633.795 1258.39 608.737 1251.56 601.423C1251.56 601.423 1240.01 588.949 1231.91 566.43C1231.91 566.43 1228.5 558.028 1220.07 550.092C1220.07 550.092 1211.49 545.942 1207.59 535.436C1207.59 535.436 1203.29 530.04 1202.39 525.54C1202.39 525.54 1199.08 518.499 1201.73 515.433C1201.73 515.433 1207.17 509.248 1214.95 515.661L1214.98 515.682Z" fill="url(#paint25_radial_0_1)" fill-opacity="0.2"/>
    <path d="M1214.98 515.682C1214.98 515.682 1217.95 518.838 1220.62 520.135C1220.62 520.135 1226.3 521.859 1229.17 521.985C1229.17 521.985 1232.7 522.927 1234.94 525.265C1234.94 525.265 1245.09 521.783 1248.21 516.183C1248.21 516.183 1250.46 511.292 1251.65 511.58C1251.65 511.58 1253.02 512.132 1252.26 515.497C1252.26 515.497 1258.79 511.345 1261.08 508.891C1261.08 508.891 1264.1 506.843 1265.28 507.799C1265.28 507.799 1267.05 508.545 1264.41 512.201C1264.41 512.201 1271.54 509.136 1274.35 506.922C1274.35 506.922 1276.86 504.851 1278.25 505.443C1278.25 505.443 1279.79 506.12 1278.1 508.894C1278.1 508.894 1283.17 506.564 1284.87 503.613C1284.87 503.613 1285.81 502.338 1286.97 503.195C1286.97 503.195 1288.32 502.998 1286.18 506.795C1286.18 506.795 1291.85 503.449 1293.51 501.046C1293.51 501.046 1296.18 501.085 1292.7 506.001C1292.7 506.001 1291.97 508.739 1288.41 512.964C1288.41 512.964 1296.32 509.559 1298.87 505.546C1298.87 505.546 1303.28 503.068 1299.57 511.176C1299.57 511.176 1291.2 531.123 1260.8 534.852C1260.8 534.852 1250 536.066 1241.04 533.982C1241.04 533.982 1249.03 543.391 1256.38 547.86C1256.38 547.86 1259.39 550.036 1270.09 550.056C1270.09 550.056 1292.16 549.908 1299.07 551.392C1299.07 551.392 1301.36 552.023 1304.42 553.592C1304.42 553.592 1309.12 554.879 1315.22 553.34C1315.22 553.34 1329.22 549.478 1337.77 552.802C1337.77 552.802 1356.95 559.403 1359.71 569.525C1359.71 569.525 1362.66 583.408 1358.6 594.821C1358.6 594.821 1357.17 600.495 1355.13 604.826C1355.13 604.826 1353.37 610.839 1357.63 616.253C1357.63 616.253 1360.27 620.515 1361.43 626.322C1361.43 626.322 1359.96 643.645 1357.45 653.928C1357.45 653.928 1352.22 668.668 1347.92 675.257C1347.92 675.257 1346.14 677.32 1342.43 677.353C1338.71 677.386 1339.35 674.546 1339.56 673.258C1339.56 673.258 1345.03 656.092 1346.23 649.347C1346.23 649.347 1349.89 635.028 1344.56 625.893C1344.56 625.893 1341.3 620.779 1335.71 617.959C1335.71 617.959 1325.66 613.292 1321.65 608.439C1321.65 608.439 1307.28 610.91 1300.66 612.151C1300.66 612.151 1287.82 614.71 1278.78 610.225C1278.78 610.225 1277.33 626.075 1275.27 638.126C1275.27 638.126 1268.05 666.08 1262.15 671.047C1262.15 671.047 1260.17 671.942 1256.49 670.64C1256.49 670.64 1253.63 669.984 1255.47 666.175C1255.47 666.175 1264.19 651.116 1262.14 633.795C1262.14 633.795 1258.39 608.737 1251.56 601.423C1251.56 601.423 1240.01 588.949 1231.91 566.43C1231.91 566.43 1228.5 558.028 1220.07 550.092C1220.07 550.092 1211.49 545.942 1207.59 535.436C1207.59 535.436 1203.29 530.04 1202.39 525.54C1202.39 525.54 1199.08 518.499 1201.73 515.433C1201.73 515.433 1207.17 509.248 1214.95 515.661L1214.98 515.682Z" fill="url(#paint26_linear_0_1)" fill-opacity="0.2"/>
    <path d="M1214.98 515.682C1214.98 515.682 1217.95 518.838 1220.62 520.135C1220.62 520.135 1226.3 521.859 1229.17 521.985C1229.17 521.985 1232.7 522.927 1234.94 525.265C1234.94 525.265 1245.09 521.783 1248.21 516.183C1248.21 516.183 1250.46 511.292 1251.65 511.58C1251.65 511.58 1253.02 512.132 1252.26 515.497C1252.26 515.497 1258.79 511.345 1261.08 508.891C1261.08 508.891 1264.1 506.843 1265.28 507.799C1265.28 507.799 1267.05 508.545 1264.41 512.201C1264.41 512.201 1271.54 509.136 1274.35 506.922C1274.35 506.922 1276.86 504.851 1278.25 505.443C1278.25 505.443 1279.79 506.12 1278.1 508.894C1278.1 508.894 1283.17 506.564 1284.87 503.613C1284.87 503.613 1285.81 502.338 1286.97 503.195C1286.97 503.195 1288.32 502.998 1286.18 506.795C1286.18 506.795 1291.85 503.449 1293.51 501.046C1293.51 501.046 1296.18 501.085 1292.7 506.001C1292.7 506.001 1291.97 508.739 1288.41 512.964C1288.41 512.964 1296.32 509.559 1298.87 505.546C1298.87 505.546 1303.28 503.068 1299.57 511.176C1299.57 511.176 1291.2 531.123 1260.8 534.852C1260.8 534.852 1250 536.066 1241.04 533.982C1241.04 533.982 1249.03 543.391 1256.38 547.86C1256.38 547.86 1259.39 550.036 1270.09 550.056C1270.09 550.056 1292.16 549.908 1299.07 551.392C1299.07 551.392 1301.36 552.023 1304.42 553.592C1304.42 553.592 1309.12 554.879 1315.22 553.34C1315.22 553.34 1329.22 549.478 1337.77 552.802C1337.77 552.802 1356.95 559.403 1359.71 569.525C1359.71 569.525 1362.66 583.408 1358.6 594.821C1358.6 594.821 1357.17 600.495 1355.13 604.826C1355.13 604.826 1353.37 610.839 1357.63 616.253C1357.63 616.253 1360.27 620.515 1361.43 626.322C1361.43 626.322 1359.96 643.645 1357.45 653.928C1357.45 653.928 1352.22 668.668 1347.92 675.257C1347.92 675.257 1346.14 677.32 1342.43 677.353C1338.71 677.386 1339.35 674.546 1339.56 673.258C1339.56 673.258 1345.03 656.092 1346.23 649.347C1346.23 649.347 1349.89 635.028 1344.56 625.893C1344.56 625.893 1341.3 620.779 1335.71 617.959C1335.71 617.959 1325.66 613.292 1321.65 608.439C1321.65 608.439 1307.28 610.91 1300.66 612.151C1300.66 612.151 1287.82 614.71 1278.78 610.225C1278.78 610.225 1277.33 626.075 1275.27 638.126C1275.27 638.126 1268.05 666.08 1262.15 671.047C1262.15 671.047 1260.17 671.942 1256.49 670.64C1256.49 670.64 1253.63 669.984 1255.47 666.175C1255.47 666.175 1264.19 651.116 1262.14 633.795C1262.14 633.795 1258.39 608.737 1251.56 601.423C1251.56 601.423 1240.01 588.949 1231.91 566.43C1231.91 566.43 1228.5 558.028 1220.07 550.092C1220.07 550.092 1211.49 545.942 1207.59 535.436C1207.59 535.436 1203.29 530.04 1202.39 525.54C1202.39 525.54 1199.08 518.499 1201.73 515.433C1201.73 515.433 1207.17 509.248 1214.95 515.661L1214.98 515.682Z" fill="url(#paint27_linear_0_1)" fill-opacity="0.2"/>
    <path d="M1214.98 515.682C1214.98 515.682 1217.95 518.838 1220.62 520.135C1220.62 520.135 1226.3 521.859 1229.17 521.985C1229.17 521.985 1232.7 522.927 1234.94 525.265C1234.94 525.265 1245.09 521.783 1248.21 516.183C1248.21 516.183 1250.46 511.292 1251.65 511.58C1251.65 511.58 1253.02 512.132 1252.26 515.497C1252.26 515.497 1258.79 511.345 1261.08 508.891C1261.08 508.891 1264.1 506.843 1265.28 507.799C1265.28 507.799 1267.05 508.545 1264.41 512.201C1264.41 512.201 1271.54 509.136 1274.35 506.922C1274.35 506.922 1276.86 504.851 1278.25 505.443C1278.25 505.443 1279.79 506.12 1278.1 508.894C1278.1 508.894 1283.17 506.564 1284.87 503.613C1284.87 503.613 1285.81 502.338 1286.97 503.195C1286.97 503.195 1288.32 502.998 1286.18 506.795C1286.18 506.795 1291.85 503.449 1293.51 501.046C1293.51 501.046 1296.18 501.085 1292.7 506.001C1292.7 506.001 1291.97 508.739 1288.41 512.964C1288.41 512.964 1296.32 509.559 1298.87 505.546C1298.87 505.546 1303.28 503.068 1299.57 511.176C1299.57 511.176 1291.2 531.123 1260.8 534.852C1260.8 534.852 1250 536.066 1241.04 533.982C1241.04 533.982 1249.03 543.391 1256.38 547.86C1256.38 547.86 1259.39 550.036 1270.09 550.056C1270.09 550.056 1292.16 549.908 1299.07 551.392C1299.07 551.392 1301.36 552.023 1304.42 553.592C1304.42 553.592 1309.12 554.879 1315.22 553.34C1315.22 553.34 1329.22 549.478 1337.77 552.802C1337.77 552.802 1356.95 559.403 1359.71 569.525C1359.71 569.525 1362.66 583.408 1358.6 594.821C1358.6 594.821 1357.17 600.495 1355.13 604.826C1355.13 604.826 1353.37 610.839 1357.63 616.253C1357.63 616.253 1360.27 620.515 1361.43 626.322C1361.43 626.322 1359.96 643.645 1357.45 653.928C1357.45 653.928 1352.22 668.668 1347.92 675.257C1347.92 675.257 1346.14 677.32 1342.43 677.353C1338.71 677.386 1339.35 674.546 1339.56 673.258C1339.56 673.258 1345.03 656.092 1346.23 649.347C1346.23 649.347 1349.89 635.028 1344.56 625.893C1344.56 625.893 1341.3 620.779 1335.71 617.959C1335.71 617.959 1325.66 613.292 1321.65 608.439C1321.65 608.439 1307.28 610.91 1300.66 612.151C1300.66 612.151 1287.82 614.71 1278.78 610.225C1278.78 610.225 1277.33 626.075 1275.27 638.126C1275.27 638.126 1268.05 666.08 1262.15 671.047C1262.15 671.047 1260.17 671.942 1256.49 670.64C1256.49 670.64 1253.63 669.984 1255.47 666.175C1255.47 666.175 1264.19 651.116 1262.14 633.795C1262.14 633.795 1258.39 608.737 1251.56 601.423C1251.56 601.423 1240.01 588.949 1231.91 566.43C1231.91 566.43 1228.5 558.028 1220.07 550.092C1220.07 550.092 1211.49 545.942 1207.59 535.436C1207.59 535.436 1203.29 530.04 1202.39 525.54C1202.39 525.54 1199.08 518.499 1201.73 515.433C1201.73 515.433 1207.17 509.248 1214.95 515.661L1214.98 515.682Z" fill="url(#paint28_radial_0_1)" fill-opacity="0.2"/>
    <path d="M1214.98 515.682C1214.98 515.682 1217.95 518.838 1220.62 520.135C1220.62 520.135 1226.3 521.859 1229.17 521.985C1229.17 521.985 1232.7 522.927 1234.94 525.265C1234.94 525.265 1245.09 521.783 1248.21 516.183C1248.21 516.183 1250.46 511.292 1251.65 511.58C1251.65 511.58 1253.02 512.132 1252.26 515.497C1252.26 515.497 1258.79 511.345 1261.08 508.891C1261.08 508.891 1264.1 506.843 1265.28 507.799C1265.28 507.799 1267.05 508.545 1264.41 512.201C1264.41 512.201 1271.54 509.136 1274.35 506.922C1274.35 506.922 1276.86 504.851 1278.25 505.443C1278.25 505.443 1279.79 506.12 1278.1 508.894C1278.1 508.894 1283.17 506.564 1284.87 503.613C1284.87 503.613 1285.81 502.338 1286.97 503.195C1286.97 503.195 1288.32 502.998 1286.18 506.795C1286.18 506.795 1291.85 503.449 1293.51 501.046C1293.51 501.046 1296.18 501.085 1292.7 506.001C1292.7 506.001 1291.97 508.739 1288.41 512.964C1288.41 512.964 1296.32 509.559 1298.87 505.546C1298.87 505.546 1303.28 503.068 1299.57 511.176C1299.57 511.176 1291.2 531.123 1260.8 534.852C1260.8 534.852 1250 536.066 1241.04 533.982C1241.04 533.982 1249.03 543.391 1256.38 547.86C1256.38 547.86 1259.39 550.036 1270.09 550.056C1270.09 550.056 1292.16 549.908 1299.07 551.392C1299.07 551.392 1301.36 552.023 1304.42 553.592C1304.42 553.592 1309.12 554.879 1315.22 553.34C1315.22 553.34 1329.22 549.478 1337.77 552.802C1337.77 552.802 1356.95 559.403 1359.71 569.525C1359.71 569.525 1362.66 583.408 1358.6 594.821C1358.6 594.821 1357.17 600.495 1355.13 604.826C1355.13 604.826 1353.37 610.839 1357.63 616.253C1357.63 616.253 1360.27 620.515 1361.43 626.322C1361.43 626.322 1359.96 643.645 1357.45 653.928C1357.45 653.928 1352.22 668.668 1347.92 675.257C1347.92 675.257 1346.14 677.32 1342.43 677.353C1338.71 677.386 1339.35 674.546 1339.56 673.258C1339.56 673.258 1345.03 656.092 1346.23 649.347C1346.23 649.347 1349.89 635.028 1344.56 625.893C1344.56 625.893 1341.3 620.779 1335.71 617.959C1335.71 617.959 1325.66 613.292 1321.65 608.439C1321.65 608.439 1307.28 610.91 1300.66 612.151C1300.66 612.151 1287.82 614.71 1278.78 610.225C1278.78 610.225 1277.33 626.075 1275.27 638.126C1275.27 638.126 1268.05 666.08 1262.15 671.047C1262.15 671.047 1260.17 671.942 1256.49 670.64C1256.49 670.64 1253.63 669.984 1255.47 666.175C1255.47 666.175 1264.19 651.116 1262.14 633.795C1262.14 633.795 1258.39 608.737 1251.56 601.423C1251.56 601.423 1240.01 588.949 1231.91 566.43C1231.91 566.43 1228.5 558.028 1220.07 550.092C1220.07 550.092 1211.49 545.942 1207.59 535.436C1207.59 535.436 1203.29 530.04 1202.39 525.54C1202.39 525.54 1199.08 518.499 1201.73 515.433C1201.73 515.433 1207.17 509.248 1214.95 515.661L1214.98 515.682Z" fill="black" fill-opacity="0.2"/>
    </g>
    <path d="M1278.67 611.752C1282.59 626.517 1279.11 667.013 1279.1 667.156C1278.11 671.926 1273.82 671.482 1273.82 671.482C1272.8 671.397 1271.58 671.127 1271.01 670.179C1270.5 669.272 1270.66 667.767 1270.47 666.737C1270.24 665.449 1269.92 664.158 1269.56 662.905C1269.23 661.725 1268.86 660.556 1268.47 659.39C1272.85 648.284 1277.68 630.149 1278.43 612.678L1278.67 611.752Z" fill="url(#paint29_radial_0_1)"/>
    <path d="M1278.67 611.752C1282.59 626.517 1279.11 667.013 1279.1 667.156C1278.11 671.926 1273.82 671.482 1273.82 671.482C1272.8 671.397 1271.58 671.127 1271.01 670.179C1270.5 669.272 1270.66 667.767 1270.47 666.737C1270.24 665.449 1269.92 664.158 1269.56 662.905C1269.23 661.725 1268.86 660.556 1268.47 659.39C1272.85 648.284 1277.68 630.149 1278.43 612.678L1278.67 611.752Z" fill="url(#paint30_radial_0_1)" fill-opacity="0.2"/>
    <path d="M1278.67 611.752C1282.59 626.517 1279.11 667.013 1279.1 667.156C1278.11 671.926 1273.82 671.482 1273.82 671.482C1272.8 671.397 1271.58 671.127 1271.01 670.179C1270.5 669.272 1270.66 667.767 1270.47 666.737C1270.24 665.449 1269.92 664.158 1269.56 662.905C1269.23 661.725 1268.86 660.556 1268.47 659.39C1272.85 648.284 1277.68 630.149 1278.43 612.678L1278.67 611.752Z" fill="url(#paint31_linear_0_1)" fill-opacity="0.2"/>
    <path d="M1278.67 611.752C1282.59 626.517 1279.11 667.013 1279.1 667.156C1278.11 671.926 1273.82 671.482 1273.82 671.482C1272.8 671.397 1271.58 671.127 1271.01 670.179C1270.5 669.272 1270.66 667.767 1270.47 666.737C1270.24 665.449 1269.92 664.158 1269.56 662.905C1269.23 661.725 1268.86 660.556 1268.47 659.39C1272.85 648.284 1277.68 630.149 1278.43 612.678L1278.67 611.752Z" fill="url(#paint32_linear_0_1)" fill-opacity="0.2"/>
    <path d="M1343.5 624.5C1343.5 624.5 1344.19 631.888 1341.3 645.749C1341.3 645.749 1335.75 668.237 1330.45 673.956C1330.45 673.956 1324.48 676.719 1321.26 672.196C1320.57 671.222 1321.47 669.12 1321.84 668.253C1327.32 655.37 1330.01 640.655 1328.98 626.64C1328.62 621.791 1328 616 1326.11 612.387L1339.5 620L1343.5 624.5Z" fill="url(#paint33_radial_0_1)"/>
    <path d="M1343.5 624.5C1343.5 624.5 1344.19 631.888 1341.3 645.749C1341.3 645.749 1335.75 668.237 1330.45 673.956C1330.45 673.956 1324.48 676.719 1321.26 672.196C1320.57 671.222 1321.47 669.12 1321.84 668.253C1327.32 655.37 1330.01 640.655 1328.98 626.64C1328.62 621.791 1328 616 1326.11 612.387L1339.5 620L1343.5 624.5Z" fill="url(#paint34_radial_0_1)" fill-opacity="0.2"/>
    <path d="M1343.5 624.5C1343.5 624.5 1344.19 631.888 1341.3 645.749C1341.3 645.749 1335.75 668.237 1330.45 673.956C1330.45 673.956 1324.48 676.719 1321.26 672.196C1320.57 671.222 1321.47 669.12 1321.84 668.253C1327.32 655.37 1330.01 640.655 1328.98 626.64C1328.62 621.791 1328 616 1326.11 612.387L1339.5 620L1343.5 624.5Z" fill="url(#paint35_linear_0_1)" fill-opacity="0.2"/>
    <path d="M1343.5 624.5C1343.5 624.5 1344.19 631.888 1341.3 645.749C1341.3 645.749 1335.75 668.237 1330.45 673.956C1330.45 673.956 1324.48 676.719 1321.26 672.196C1320.57 671.222 1321.47 669.12 1321.84 668.253C1327.32 655.37 1330.01 640.655 1328.98 626.64C1328.62 621.791 1328 616 1326.11 612.387L1339.5 620L1343.5 624.5Z" fill="url(#paint36_linear_0_1)" fill-opacity="0.2"/>
    <path d="M1343.5 624.5C1343.5 624.5 1344.19 631.888 1341.3 645.749C1341.3 645.749 1335.75 668.237 1330.45 673.956C1330.45 673.956 1324.48 676.719 1321.26 672.196C1320.57 671.222 1321.47 669.12 1321.84 668.253C1327.32 655.37 1330.01 640.655 1328.98 626.64C1328.62 621.791 1328 616 1326.11 612.387L1339.5 620L1343.5 624.5Z" fill="url(#paint37_linear_0_1)" fill-opacity="0.2"/>
    </g>
    <defs>
    <filter id="filter0_f_0_1" x="-61" y="634" width="535" height="289" filterUnits="userSpaceOnUse" color-interpolation-filters="sRGB">
    <feFlood flood-opacity="0" result="BackgroundImageFix"/>
    <feBlend mode="normal" in="SourceGraphic" in2="BackgroundImageFix" result="shape"/>
    <feGaussianBlur stdDeviation="2" result="effect1_foregroundBlur_0_1"/>
    </filter>
    <filter id="filter1_iii_0_1" x="1177.71" y="678.746" width="190.729" height="206.307" filterUnits="userSpaceOnUse" color-interpolation-filters="sRGB">
    <feFlood flood-opacity="0" result="BackgroundImageFix"/>
    <feBlend mode="normal" in="SourceGraphic" in2="BackgroundImageFix" result="shape"/>
    <feColorMatrix in="SourceAlpha" type="matrix" values="0 0 0 0 0 0 0 0 0 0 0 0 0 0 0 0 0 0 127 0" result="hardAlpha"/>
    <feOffset dy="4"/>
    <feGaussianBlur stdDeviation="2"/>
    <feComposite in2="hardAlpha" operator="arithmetic" k2="-1" k3="1"/>
    <feColorMatrix type="matrix" values="0 0 0 0 0 0 0 0 0 0 0 0 0 0 0 0 0 0 0.25 0"/>
    <feBlend mode="normal" in2="shape" result="effect1_innerShadow_0_1"/>
    <feColorMatrix in="SourceAlpha" type="matrix" values="0 0 0 0 0 0 0 0 0 0 0 0 0 0 0 0 0 0 127 0" result="hardAlpha"/>
    <feOffset dy="4"/>
    <feGaussianBlur stdDeviation="2"/>
    <feComposite in2="hardAlpha" operator="arithmetic" k2="-1" k3="1"/>
    <feColorMatrix type="matrix" values="0 0 0 0 1 0 0 0 0 1 0 0 0 0 1 0 0 0 0.25 0"/>
    <feBlend mode="normal" in2="effect1_innerShadow_0_1" result="effect2_innerShadow_0_1"/>
    <feColorMatrix in="SourceAlpha" type="matrix" values="0 0 0 0 0 0 0 0 0 0 0 0 0 0 0 0 0 0 127 0" result="hardAlpha"/>
    <feOffset dy="4"/>
    <feGaussianBlur stdDeviation="5"/>
    <feComposite in2="hardAlpha" operator="arithmetic" k2="-1" k3="1"/>
    <feColorMatrix type="matrix" values="0 0 0 0 1 0 0 0 0 1 0 0 0 0 1 0 0 0 0.5 0"/>
    <feBlend mode="normal" in2="effect2_innerShadow_0_1" result="effect3_innerShadow_0_1"/>
    </filter>
    <filter id="filter2_i_0_1" x="1192.71" y="693.746" width="160.729" height="180.307" filterUnits="userSpaceOnUse" color-interpolation-filters="sRGB">
    <feFlood flood-opacity="0" result="BackgroundImageFix"/>
    <feBlend mode="normal" in="SourceGraphic" in2="BackgroundImageFix" result="shape"/>
    <feColorMatrix in="SourceAlpha" type="matrix" values="0 0 0 0 0 0 0 0 0 0 0 0 0 0 0 0 0 0 127 0" result="hardAlpha"/>
    <feOffset dy="4"/>
    <feGaussianBlur stdDeviation="2"/>
    <feComposite in2="hardAlpha" operator="arithmetic" k2="-1" k3="1"/>
    <feColorMatrix type="matrix" values="0 0 0 0 1 0 0 0 0 1 0 0 0 0 1 0 0 0 0.25 0"/>
    <feBlend mode="normal" in2="shape" result="effect1_innerShadow_0_1"/>
    </filter>
    <filter id="filter3_f_0_1" x="844.391" y="81.7915" width="1253.94" height="1274.58" filterUnits="userSpaceOnUse" color-interpolation-filters="sRGB">
    <feFlood flood-opacity="0" result="BackgroundImageFix"/>
    <feBlend mode="normal" in="SourceGraphic" in2="BackgroundImageFix" result="shape"/>
    <feGaussianBlur stdDeviation="200" result="effect1_foregroundBlur_0_1"/>
    </filter>
    <filter id="filter4_f_0_1" x="-560.605" y="0.791504" width="1253.94" height="1274.58" filterUnits="userSpaceOnUse" color-interpolation-filters="sRGB">
    <feFlood flood-opacity="0" result="BackgroundImageFix"/>
    <feBlend mode="normal" in="SourceGraphic" in2="BackgroundImageFix" result="shape"/>
    <feGaussianBlur stdDeviation="200" result="effect1_foregroundBlur_0_1"/>
    </filter>
    <filter id="filter5_iii_0_1" x="1185.71" y="486.046" width="190.729" height="206.307" filterUnits="userSpaceOnUse" color-interpolation-filters="sRGB">
    <feFlood flood-opacity="0" result="BackgroundImageFix"/>
    <feBlend mode="normal" in="SourceGraphic" in2="BackgroundImageFix" result="shape"/>
    <feColorMatrix in="SourceAlpha" type="matrix" values="0 0 0 0 0 0 0 0 0 0 0 0 0 0 0 0 0 0 127 0" result="hardAlpha"/>
    <feOffset dy="4"/>
    <feGaussianBlur stdDeviation="2"/>
    <feComposite in2="hardAlpha" operator="arithmetic" k2="-1" k3="1"/>
    <feColorMatrix type="matrix" values="0 0 0 0 0 0 0 0 0 0 0 0 0 0 0 0 0 0 0.25 0"/>
    <feBlend mode="normal" in2="shape" result="effect1_innerShadow_0_1"/>
    <feColorMatrix in="SourceAlpha" type="matrix" values="0 0 0 0 0 0 0 0 0 0 0 0 0 0 0 0 0 0 127 0" result="hardAlpha"/>
    <feOffset dy="4"/>
    <feGaussianBlur stdDeviation="2"/>
    <feComposite in2="hardAlpha" operator="arithmetic" k2="-1" k3="1"/>
    <feColorMatrix type="matrix" values="0 0 0 0 1 0 0 0 0 1 0 0 0 0 1 0 0 0 0.25 0"/>
    <feBlend mode="normal" in2="effect1_innerShadow_0_1" result="effect2_innerShadow_0_1"/>
    <feColorMatrix in="SourceAlpha" type="matrix" values="0 0 0 0 0 0 0 0 0 0 0 0 0 0 0 0 0 0 127 0" result="hardAlpha"/>
    <feOffset dy="4"/>
    <feGaussianBlur stdDeviation="5"/>
    <feComposite in2="hardAlpha" operator="arithmetic" k2="-1" k3="1"/>
    <feColorMatrix type="matrix" values="0 0 0 0 1 0 0 0 0 1 0 0 0 0 1 0 0 0 0.5 0"/>
    <feBlend mode="normal" in2="effect2_innerShadow_0_1" result="effect3_innerShadow_0_1"/>
    </filter>
    <filter id="filter6_i_0_1" x="1200.71" y="501.046" width="160.729" height="180.307" filterUnits="userSpaceOnUse" color-interpolation-filters="sRGB">
    <feFlood flood-opacity="0" result="BackgroundImageFix"/>
    <feBlend mode="normal" in="SourceGraphic" in2="BackgroundImageFix" result="shape"/>
    <feColorMatrix in="SourceAlpha" type="matrix" values="0 0 0 0 0 0 0 0 0 0 0 0 0 0 0 0 0 0 127 0" result="hardAlpha"/>
    <feOffset dy="4"/>
    <feGaussianBlur stdDeviation="2"/>
    <feComposite in2="hardAlpha" operator="arithmetic" k2="-1" k3="1"/>
    <feColorMatrix type="matrix" values="0 0 0 0 1 0 0 0 0 1 0 0 0 0 1 0 0 0 0.25 0"/>
    <feBlend mode="normal" in2="shape" result="effect1_innerShadow_0_1"/>
    </filter>
    <linearGradient id="paint0_linear_0_1" x1="2269" y1="997" x2="2269" y2="1373" gradientUnits="userSpaceOnUse">
    <stop stop-color="#1B1B1B" stop-opacity="0"/>
    <stop offset="0.658654" stop-color="#284F7F" stop-opacity="0.5"/>
    <stop offset="1" stop-color="#204C82"/>
    </linearGradient>
    <linearGradient id="paint1_linear_0_1" x1="1389.5" y1="648" x2="1521.5" y2="796" gradientUnits="userSpaceOnUse">
    <stop stop-color="white" stop-opacity="0.4"/>
    <stop offset="1" stop-color="#666666" stop-opacity="0"/>
    </linearGradient>
    <linearGradient id="paint2_linear_0_1" x1="3.63389" y1="791.009" x2="-10.014" y2="693.426" gradientUnits="userSpaceOnUse">
    <stop stop-color="white" stop-opacity="0.4"/>
    <stop offset="1" stop-color="#666666" stop-opacity="0"/>
    </linearGradient>
    <linearGradient id="paint3_linear_0_1" x1="226" y1="488.5" x2="225.5" y2="621" gradientUnits="userSpaceOnUse">
    <stop stop-color="#353535"/>
    <stop offset="1" stop-color="#9B9B9B" stop-opacity="0"/>
    </linearGradient>
    <radialGradient id="paint4_radial_0_1" cx="0" cy="0" r="1" gradientUnits="userSpaceOnUse" gradientTransform="translate(246.5 558.5) rotate(-143.783) scale(166.711 312.194)">
    <stop stop-color="#FFCDF7" stop-opacity="0"/>
    <stop offset="1" stop-color="#FFCDF7"/>
    </radialGradient>
    <linearGradient id="paint5_linear_0_1" x1="1198" y1="445" x2="1198" y2="638" gradientUnits="userSpaceOnUse">
    <stop stop-color="#DBBDD6"/>
    <stop offset="1" stop-color="#DBBDD6" stop-opacity="0"/>
    </linearGradient>
    <linearGradient id="paint6_linear_0_1" x1="207" y1="965.5" x2="206.504" y2="638" gradientUnits="userSpaceOnUse">
    <stop offset="0.274981" stop-color="#BE8FFF"/>
    <stop offset="1" stop-color="#9B9B9B" stop-opacity="0"/>
    </linearGradient>
    <radialGradient id="paint7_radial_0_1" cx="0" cy="0" r="1" gradientUnits="userSpaceOnUse" gradientTransform="translate(1285 794.099) rotate(-117.96) scale(119.441 113.483)">
    <stop stop-color="#FFCDF7"/>
    <stop offset="1" stop-color="#75EDEF" stop-opacity="0"/>
    </radialGradient>
    <radialGradient id="paint8_radial_0_1" cx="0" cy="0" r="1" gradientUnits="userSpaceOnUse" gradientTransform="translate(1356.5 821.599) rotate(-106.03) scale(139.421 132.466)">
    <stop stop-color="white" stop-opacity="0"/>
    <stop offset="1" stop-color="#C6EC75"/>
    </radialGradient>
    <linearGradient id="paint9_linear_0_1" x1="1359" y1="826.599" x2="1192.5" y2="793.599" gradientUnits="userSpaceOnUse">
    <stop stop-color="#F54E2D" stop-opacity="0"/>
    <stop offset="1" stop-color="#F54E2D"/>
    </linearGradient>
    <linearGradient id="paint10_linear_0_1" x1="1276.23" y1="870.462" x2="1224" y2="833.099" gradientUnits="userSpaceOnUse">
    <stop stop-color="white" stop-opacity="0"/>
    <stop offset="1" stop-color="white"/>
    </linearGradient>
    <radialGradient id="paint11_radial_0_1" cx="0" cy="0" r="1" gradientUnits="userSpaceOnUse" gradientTransform="translate(1287 803.599) rotate(-84.1544) scale(211.098 200.567)">
    <stop stop-color="#4C26BE" stop-opacity="0"/>
    <stop offset="0.783465" stop-color="#4C26BE"/>
    </radialGradient>
    <radialGradient id="paint12_radial_0_1" cx="0" cy="0" r="1" gradientUnits="userSpaceOnUse" gradientTransform="translate(1267.12 733.753) rotate(-98.7098) scale(37.7857 9.91775)">
    <stop stop-color="#FFCDF7"/>
    <stop offset="1" stop-color="#75EDEF" stop-opacity="0"/>
    </radialGradient>
    <radialGradient id="paint13_radial_0_1" cx="0" cy="0" r="1" gradientUnits="userSpaceOnUse" gradientTransform="translate(1273.16 744.162) rotate(-95.6564) scale(47.2842 10.7987)">
    <stop stop-color="white" stop-opacity="0"/>
    <stop offset="1" stop-color="#C6EC75"/>
    </radialGradient>
    <linearGradient id="paint14_linear_0_1" x1="1270.29" y1="756.886" x2="1248.94" y2="751.67" gradientUnits="userSpaceOnUse">
    <stop stop-color="#F54E2D" stop-opacity="0"/>
    <stop offset="1" stop-color="#F54E2D"/>
    </linearGradient>
    <linearGradient id="paint15_linear_0_1" x1="1278" y1="744.6" x2="1271.5" y2="708.6" gradientUnits="userSpaceOnUse">
    <stop stop-color="#4C26BE" stop-opacity="0"/>
    <stop offset="1" stop-color="#4C26BE"/>
    </linearGradient>
    <radialGradient id="paint16_radial_0_1" cx="0" cy="0" r="1" gradientUnits="userSpaceOnUse" gradientTransform="translate(1326.36 731.129) rotate(-102.038) scale(39.182 15.6474)">
    <stop stop-color="#FFCDF7"/>
    <stop offset="1" stop-color="#75EDEF" stop-opacity="0"/>
    </radialGradient>
    <radialGradient id="paint17_radial_0_1" cx="0" cy="0" r="1" gradientUnits="userSpaceOnUse" gradientTransform="translate(1335.7 741.699) rotate(-97.3612) scale(48.7414 17.1387)">
    <stop stop-color="white" stop-opacity="0"/>
    <stop offset="1" stop-color="#C6EC75"/>
    </radialGradient>
    <linearGradient id="paint18_linear_0_1" x1="1330.83" y1="754.872" x2="1299.99" y2="742.579" gradientUnits="userSpaceOnUse">
    <stop stop-color="#F54E2D" stop-opacity="0"/>
    <stop offset="1" stop-color="#F54E2D"/>
    </linearGradient>
    <linearGradient id="paint19_linear_0_1" x1="1325.91" y1="758.369" x2="1325" y2="724.1" gradientUnits="userSpaceOnUse">
    <stop stop-color="#4C26BE" stop-opacity="0"/>
    <stop offset="1" stop-color="#4C26BE"/>
    </linearGradient>
    <linearGradient id="paint20_linear_0_1" x1="1336" y1="731.6" x2="1325" y2="749.6" gradientUnits="userSpaceOnUse">
    <stop stop-opacity="0"/>
    <stop offset="1"/>
    </linearGradient>
    <linearGradient id="paint21_linear_0_1" x1="799" y1="894.923" x2="799" y2="549.439" gradientUnits="userSpaceOnUse">
    <stop stop-color="#1E242D" stop-opacity="0"/>
    <stop offset="1" stop-color="white" stop-opacity="0.2"/>
    </linearGradient>
    <linearGradient id="paint22_linear_0_1" x1="1229.75" y1="635.614" x2="1229.7" y2="693" gradientUnits="userSpaceOnUse">
    <stop stop-color="#386F70"/>
    <stop offset="0.5" stop-color="#386F70"/>
    <stop offset="1" stop-color="#386F70" stop-opacity="0.2"/>
    </linearGradient>
    <radialGradient id="paint23_radial_0_1" cx="0" cy="0" r="1" gradientUnits="userSpaceOnUse" gradientTransform="translate(1229.5 647) rotate(90) scale(46 294.5)">
    <stop stop-color="#FFCDF7"/>
    <stop offset="1" stop-color="#FFCDF7" stop-opacity="0"/>
    </radialGradient>
    <radialGradient id="paint24_radial_0_1" cx="0" cy="0" r="1" gradientUnits="userSpaceOnUse" gradientTransform="translate(1293 577) rotate(117.96) scale(119.441 113.483)">
    <stop stop-color="#FFCDF7"/>
    <stop offset="1" stop-color="#75EDEF" stop-opacity="0"/>
    </radialGradient>
    <radialGradient id="paint25_radial_0_1" cx="0" cy="0" r="1" gradientUnits="userSpaceOnUse" gradientTransform="translate(1364.5 549.5) rotate(106.03) scale(139.421 132.466)">
    <stop stop-color="white" stop-opacity="0"/>
    <stop offset="1" stop-color="#C6EC75"/>
    </radialGradient>
    <linearGradient id="paint26_linear_0_1" x1="1367" y1="544.5" x2="1200.5" y2="577.5" gradientUnits="userSpaceOnUse">
    <stop stop-color="#F54E2D" stop-opacity="0"/>
    <stop offset="1" stop-color="#F54E2D"/>
    </linearGradient>
    <linearGradient id="paint27_linear_0_1" x1="1284.23" y1="500.638" x2="1232" y2="538" gradientUnits="userSpaceOnUse">
    <stop stop-color="white" stop-opacity="0"/>
    <stop offset="1" stop-color="white"/>
    </linearGradient>
    <radialGradient id="paint28_radial_0_1" cx="0" cy="0" r="1" gradientUnits="userSpaceOnUse" gradientTransform="translate(1295 567.5) rotate(84.1544) scale(211.098 200.567)">
    <stop stop-color="#4C26BE" stop-opacity="0"/>
    <stop offset="0.783465" stop-color="#4C26BE"/>
    </radialGradient>
    <radialGradient id="paint29_radial_0_1" cx="0" cy="0" r="1" gradientUnits="userSpaceOnUse" gradientTransform="translate(1275.12 637.346) rotate(98.7098) scale(37.7857 9.91775)">
    <stop stop-color="#FFCDF7"/>
    <stop offset="1" stop-color="#75EDEF" stop-opacity="0"/>
    </radialGradient>
    <radialGradient id="paint30_radial_0_1" cx="0" cy="0" r="1" gradientUnits="userSpaceOnUse" gradientTransform="translate(1281.16 626.938) rotate(95.6564) scale(47.2842 10.7987)">
    <stop stop-color="white" stop-opacity="0"/>
    <stop offset="1" stop-color="#C6EC75"/>
    </radialGradient>
    <linearGradient id="paint31_linear_0_1" x1="1278.29" y1="614.214" x2="1256.94" y2="619.43" gradientUnits="userSpaceOnUse">
    <stop stop-color="#F54E2D" stop-opacity="0"/>
    <stop offset="1" stop-color="#F54E2D"/>
    </linearGradient>
    <linearGradient id="paint32_linear_0_1" x1="1286" y1="626.5" x2="1279.5" y2="662.5" gradientUnits="userSpaceOnUse">
    <stop stop-color="#4C26BE" stop-opacity="0"/>
    <stop offset="1" stop-color="#4C26BE"/>
    </linearGradient>
    <radialGradient id="paint33_radial_0_1" cx="0" cy="0" r="1" gradientUnits="userSpaceOnUse" gradientTransform="translate(1334.36 639.97) rotate(102.038) scale(39.182 15.6474)">
    <stop stop-color="#FFCDF7"/>
    <stop offset="1" stop-color="#75EDEF" stop-opacity="0"/>
    </radialGradient>
    <radialGradient id="paint34_radial_0_1" cx="0" cy="0" r="1" gradientUnits="userSpaceOnUse" gradientTransform="translate(1343.7 629.401) rotate(97.3612) scale(48.7414 17.1387)">
    <stop stop-color="white" stop-opacity="0"/>
    <stop offset="1" stop-color="#C6EC75"/>
    </radialGradient>
    <linearGradient id="paint35_linear_0_1" x1="1338.83" y1="616.227" x2="1307.99" y2="628.521" gradientUnits="userSpaceOnUse">
    <stop stop-color="#F54E2D" stop-opacity="0"/>
    <stop offset="1" stop-color="#F54E2D"/>
    </linearGradient>
    <linearGradient id="paint36_linear_0_1" x1="1333.91" y1="612.731" x2="1333" y2="647" gradientUnits="userSpaceOnUse">
    <stop stop-color="#4C26BE" stop-opacity="0"/>
    <stop offset="1" stop-color="#4C26BE"/>
    </linearGradient>
    <linearGradient id="paint37_linear_0_1" x1="1344" y1="639.5" x2="1333" y2="621.5" gradientUnits="userSpaceOnUse">
    <stop stop-opacity="0"/>
    <stop offset="1"/>
    </linearGradient>
    </defs>
    </svg>
    