<svg width="1512" height="1016" viewBox="0 0 1512 1016" fill="none" xmlns="http://www.w3.org/2000/svg">
    <g clip-path="url(#clip0_185_1542)">
    <path d="M1038.1 419.6L1009 452H1512V298L1447.43 332.4L1429.1 327.2L1367.32 369.6L1333.04 350.8L1278.83 355.6L1248.14 364H1207.49L1149.7 387.6L1128.57 380.8L1069.18 419.6H1038.1Z" fill="url(#paint0_linear_185_1542)"/>
    <g style="mix-blend-mode:plus-lighter" opacity="0.4" filter="url(#filter0_f_185_1542)">
    <path d="M1227.19 616.023C1316.13 697.091 1275.94 521.225 1344.15 520.419C1388.66 534.871 1492.28 547.435 1550.69 482.074C1623.7 400.372 1437.81 270.491 1355.25 189.668C1272.69 108.844 1175.83 231.684 1130.04 278.035C1084.25 324.387 1138.24 534.954 1227.19 616.023Z" fill="#FFDD80"/>
    </g>
    <rect x="1512" y="828" width="1512" height="376" transform="rotate(-180 1512 828)" fill="url(#paint1_linear_185_1542)"/>
    <path d="M1008.83 620.884C1054.45 614.415 1081.66 606.255 1081.66 597.395C1081.66 589.496 1060.05 582.154 1023.04 576.071C1125.41 573.472 1198 566.955 1198 559.323C1198 550.297 1096.36 542.825 963.992 541.561C963.992 541.496 964.017 541.436 964.017 541.371C964.017 537.531 953.078 533.923 933.819 530.772C1072.57 528.261 1171.86 521.537 1171.86 513.644C1171.86 506.481 1090.15 500.285 971.39 497.323C992.253 494.843 1004.54 491.798 1004.54 488.51C1004.54 480.398 929.826 473.78 835.955 473.395C882.365 471.122 913.042 467.199 913.042 462.73C913.042 455.703 836.996 450 743.184 450C649.373 450 573.327 455.697 573.327 462.73C573.327 469.763 646.403 475.234 737.655 475.448C685.237 478.077 650.047 482.938 650.047 488.504C650.047 491.555 660.628 494.392 678.82 496.772C547.148 499.466 454.224 506 454.224 513.638C454.224 518.101 485.958 522.19 538.615 525.353C491.419 529.401 462.066 535.08 462.066 541.365C462.066 550.605 525.483 558.534 615.804 561.905C488.33 567.436 398 581.234 398 597.389C398 610.92 461.374 622.801 556.858 629.549C556.645 629.697 556.525 629.852 556.525 630C556.525 635.525 700.127 640 877.263 640C1054.4 640 1197.99 635.525 1197.99 630C1197.99 625.941 1120.35 622.445 1008.82 620.878L1008.83 620.884Z" fill="url(#paint2_linear_185_1542)"/>
    <path d="M574.834 446.81L543.423 440.634V414.813H514.43L514.467 424.97H500.687V406.05H473.181L473.237 434.457H470.838V426.402H466.802V418.645H463.566V411.371H451.515V388.489H424.01L424.084 424.988H409.485V406.069H381.98V416.171H356.743V429.193H352.577V421.417H342.33V399.037H334.259V391.261H317.949V396.451H311.998V398.553H309.99V389.345H285.553V374.425H277.481V366.649H261.172V371.839H255.22V373.942H248.897V386.015H247.056V387.671H233.462V383.094H230.319V374.202H215.813V347.618H186.819L186.857 360.919H165.377L161.639 273.801H165.563C170.435 273.913 170.361 270.788 170.361 270.788C170.324 269.43 169.468 268.667 168.613 268.258C171.16 266.286 171.365 261.84 171.365 261.84C171.365 258.045 167.943 255.738 167.943 255.738V250.083H161.657V245.32C162.457 244.892 163.033 244.241 162.996 243.181C162.996 243.181 162.55 241.86 160.467 241.19V202.868C161.564 202.366 162.513 201.454 162.494 199.761C162.494 199.761 162.085 197.752 160.132 196.692V170.536H159.426V160.174H158.719L157.454 130L156.394 160.174H155.483V170.536H154.832V196.636C153.809 197.101 152.805 197.957 152.526 199.52C152.526 199.52 152.284 201.473 154.293 202.626V241.042C153.009 241.302 151.763 241.841 151.708 243.013C151.708 243.013 151.336 244.353 152.954 245.246V250.064H146.928V255.719C143.357 257.952 143.246 261.226 143.246 261.226C143.246 265.616 145.756 268.146 145.756 268.146C143.767 269.281 144.306 271.16 144.306 271.16C144.417 273.783 150.759 273.783 152.507 273.727L147.97 400.6H145.496V381.997H143.711V380.099H140.531V381.755H126.936V377.179H121.301V381.253H114.532V372.063H85.5383L85.5941 388.508H65.3602V329.35H37.8547L37.9849 388.192H34.842V380.136H30.8063V372.379H27.5704V365.105H14.5151V371.877H9.99593V380.825H6.85298V388.285H3.50546V410.887V361.701H-24L-23.814 452H579L574.816 446.847L574.834 446.81Z" fill="url(#paint3_linear_185_1542)"/>
    <path d="M574.834 446.81L543.423 440.634V414.813H514.43L514.467 424.97H500.687V406.05H473.181L473.237 434.457H470.838V426.402H466.802V418.645H463.566V411.371H451.515V388.489H424.01L424.084 424.988H409.485V406.069H381.98V416.171H356.743V429.193H352.577V421.417H342.33V399.037H334.259V391.261H317.949V396.451H311.998V398.553H309.99V389.345H285.553V374.425H277.481V366.649H261.172V371.839H255.22V373.942H248.897V386.015H247.056V387.671H233.462V383.094H230.319V374.202H215.813V347.618H186.819L186.857 360.919H165.377L161.639 273.801H165.563C170.435 273.913 170.361 270.788 170.361 270.788C170.324 269.43 169.468 268.667 168.613 268.258C171.16 266.286 171.365 261.84 171.365 261.84C171.365 258.045 167.943 255.738 167.943 255.738V250.083H161.657V245.32C162.457 244.892 163.033 244.241 162.996 243.181C162.996 243.181 162.55 241.86 160.467 241.19V202.868C161.564 202.366 162.513 201.454 162.494 199.761C162.494 199.761 162.085 197.752 160.132 196.692V170.536H159.426V160.174H158.719L157.454 130L156.394 160.174H155.483V170.536H154.832V196.636C153.809 197.101 152.805 197.957 152.526 199.52C152.526 199.52 152.284 201.473 154.293 202.626V241.042C153.009 241.302 151.763 241.841 151.708 243.013C151.708 243.013 151.336 244.353 152.954 245.246V250.064H146.928V255.719C143.357 257.952 143.246 261.226 143.246 261.226C143.246 265.616 145.756 268.146 145.756 268.146C143.767 269.281 144.306 271.16 144.306 271.16C144.417 273.783 150.759 273.783 152.507 273.727L147.97 400.6H145.496V381.997H143.711V380.099H140.531V381.755H126.936V377.179H121.301V381.253H114.532V372.063H85.5383L85.5941 388.508H65.3602V329.35H37.8547L37.9849 388.192H34.842V380.136H30.8063V372.379H27.5704V365.105H14.5151V371.877H9.99593V380.825H6.85298V388.285H3.50546V410.887V361.701H-24L-23.814 452H579L574.816 446.847L574.834 446.81Z" fill="url(#paint4_radial_185_1542)" fill-opacity="0.2"/>
    <g filter="url(#filter1_f_185_1542)">
    <path d="M523.359 476.529L495.907 481.919V504.452H470.568L470.601 495.588H458.557V512.099H434.518L434.567 487.309H432.47V494.338H428.943V501.108H426.115V507.456H415.583V527.424H391.544L391.609 495.572H378.85V512.083H354.812V503.267H332.756V491.903H329.115V498.689H320.159V518.219H313.105V525.005H298.851V520.476H293.65V518.641H291.895V526.677H270.538V539.697H263.484V546.483H249.23V541.954H244.028V540.119H238.502V529.583H236.893V528.138H225.012V532.132H222.265V539.892H209.587V563.091H184.248L184.281 551.483H165.508L162.241 627.509H165.671C169.929 627.411 169.864 630.139 169.864 630.139C169.832 631.324 169.084 631.989 168.336 632.346C170.563 634.067 170.742 637.947 170.742 637.947C170.742 641.259 167.751 643.272 167.751 643.272V648.207H162.258V652.363C162.957 652.737 163.46 653.305 163.428 654.23C163.428 654.23 163.038 655.383 161.217 655.967V689.41C162.176 689.848 163.005 690.644 162.989 692.121C162.989 692.121 162.631 693.875 160.925 694.8V717.625H160.307V726.668H159.69L158.584 753L157.658 726.668H156.861V717.625H156.293V694.849C155.399 694.443 154.521 693.696 154.277 692.332C154.277 692.332 154.066 690.628 155.821 689.621V656.097C154.7 655.87 153.611 655.399 153.562 654.376C153.562 654.376 153.237 653.208 154.651 652.428V648.224H149.385V643.288C146.264 641.34 146.167 638.483 146.167 638.483C146.167 634.652 148.361 632.444 148.361 632.444C146.622 631.454 147.093 629.814 147.093 629.814C147.191 627.525 152.733 627.525 154.261 627.574L150.295 516.855H148.133V533.09H146.573V534.746H143.794V533.301H131.913V537.294H126.988V533.739H121.072V541.759H95.7325L95.7812 527.408H78.0975V579.033H54.0588L54.1726 527.684H51.4257V534.713H47.8987V541.483H45.0707V547.831H33.6608V541.921H29.7112V534.113H26.9644V527.603H24.0388V507.878V550.801H0L0.162534 472H527L523.343 476.497L523.359 476.529Z" fill="url(#paint5_linear_185_1542)"/>
    </g>
    <g style="mix-blend-mode:plus-lighter" opacity="0.4" filter="url(#filter2_f_185_1542)">
    <path d="M25.1852 688.023C114.133 769.091 73.9448 593.225 142.152 592.419C186.661 606.871 290.281 619.435 348.69 554.074C421.701 472.372 235.811 342.491 153.249 261.668C70.6874 180.844 -26.1747 303.684 -71.9604 350.035C-117.746 396.387 -63.7626 606.954 25.1852 688.023Z" fill="#F17AAD"/>
    </g>
    <path d="M1459.93 432.109L1538 423V515H949L963.512 502.475L1039.08 490.634L1054.59 478.564L1116.14 470.139L1125.65 461.03L1192.21 456.475L1218.23 443.723L1277.28 437.574L1313.31 446.455H1332.33L1405.39 440.307H1446.92L1459.93 432.109Z" fill="url(#paint6_linear_185_1542)"/>
    <path d="M1459.93 432.109L1538 423V515H949L963.512 502.475L1039.08 490.634L1054.59 478.564L1116.14 470.139L1125.65 461.03L1192.21 456.475L1218.23 443.723L1277.28 437.574L1313.31 446.455H1332.33L1405.39 440.307H1446.92L1459.93 432.109Z" fill="url(#paint7_radial_185_1542)" fill-opacity="0.2"/>
    <g filter="url(#filter3_iii_185_1542)">
    <g opacity="0.2" filter="url(#filter4_i_185_1542)">
    <path d="M1220.98 677.417C1220.98 677.417 1223.95 674.261 1226.62 672.965C1226.62 672.965 1232.3 671.241 1235.17 671.115C1235.17 671.115 1238.7 670.173 1240.94 667.835C1240.94 667.835 1251.09 671.317 1254.21 676.917C1254.21 676.917 1256.46 681.808 1257.65 681.52C1257.65 681.52 1259.02 680.968 1258.26 677.602C1258.26 677.602 1264.79 681.755 1267.08 684.208C1267.08 684.208 1270.1 686.256 1271.28 685.301C1271.28 685.301 1273.05 684.554 1270.41 680.898C1270.41 680.898 1277.54 683.964 1280.35 686.178C1280.35 686.178 1282.86 688.248 1284.25 687.657C1284.25 687.657 1285.79 686.98 1284.1 684.205C1284.1 684.205 1289.17 686.536 1290.87 689.487C1290.87 689.487 1291.81 690.762 1292.97 689.905C1292.97 689.905 1294.32 690.101 1292.18 686.305C1292.18 686.305 1297.85 689.651 1299.51 692.053C1299.51 692.053 1302.18 692.014 1298.7 687.098C1298.7 687.098 1297.97 684.36 1294.41 680.136C1294.41 680.136 1302.32 683.54 1304.87 687.554C1304.87 687.554 1309.28 690.031 1305.57 681.924C1305.57 681.924 1297.2 661.977 1266.8 658.247C1266.8 658.247 1256 657.033 1247.04 659.118C1247.04 659.118 1255.03 649.708 1262.38 645.239C1262.38 645.239 1265.39 643.063 1276.09 643.044C1276.09 643.044 1298.16 643.191 1305.07 641.708C1305.07 641.708 1307.36 641.077 1310.42 639.508C1310.42 639.508 1315.12 638.22 1321.22 639.759C1321.22 639.759 1335.22 643.622 1343.77 640.298C1343.77 640.298 1362.95 633.696 1365.71 623.575C1365.71 623.575 1368.66 609.692 1364.6 598.279C1364.6 598.279 1363.17 592.605 1361.13 588.274C1361.13 588.274 1359.37 582.261 1363.63 576.847C1363.63 576.847 1366.27 572.585 1367.43 566.777C1367.43 566.777 1365.96 549.455 1363.45 539.172C1363.45 539.172 1358.22 524.431 1353.92 517.842C1353.92 517.842 1352.14 515.779 1348.43 515.746C1344.71 515.714 1345.35 518.554 1345.56 519.841C1345.56 519.841 1351.03 537.008 1352.23 543.753C1352.23 543.753 1355.89 558.071 1350.56 567.207C1350.56 567.207 1347.3 572.321 1341.71 575.141C1341.71 575.141 1331.66 579.808 1327.65 584.66C1327.65 584.66 1313.28 582.189 1306.66 580.948C1306.66 580.948 1293.82 578.39 1284.78 582.875C1284.78 582.875 1283.33 567.024 1281.27 554.973C1281.27 554.973 1274.05 527.019 1268.15 522.053C1268.15 522.053 1266.17 521.158 1262.49 522.459C1262.49 522.459 1259.63 523.116 1261.47 526.925C1261.47 526.925 1270.19 541.983 1268.14 559.304C1268.14 559.304 1264.39 584.362 1257.56 591.677C1257.56 591.677 1246.01 604.151 1237.91 626.67C1237.91 626.67 1234.5 635.072 1226.07 643.007C1226.07 643.007 1217.49 647.158 1213.59 657.664C1213.59 657.664 1209.29 663.06 1208.39 667.559C1208.39 667.559 1205.08 674.601 1207.73 677.667C1207.73 677.667 1213.17 683.852 1220.95 677.439L1220.98 677.417Z" fill="url(#paint8_radial_185_1542)" fill-opacity="0.6"/>
    <path d="M1220.98 677.417C1220.98 677.417 1223.95 674.261 1226.62 672.965C1226.62 672.965 1232.3 671.241 1235.17 671.115C1235.17 671.115 1238.7 670.173 1240.94 667.835C1240.94 667.835 1251.09 671.317 1254.21 676.917C1254.21 676.917 1256.46 681.808 1257.65 681.52C1257.65 681.52 1259.02 680.968 1258.26 677.602C1258.26 677.602 1264.79 681.755 1267.08 684.208C1267.08 684.208 1270.1 686.256 1271.28 685.301C1271.28 685.301 1273.05 684.554 1270.41 680.898C1270.41 680.898 1277.54 683.964 1280.35 686.178C1280.35 686.178 1282.86 688.248 1284.25 687.657C1284.25 687.657 1285.79 686.98 1284.1 684.205C1284.1 684.205 1289.17 686.536 1290.87 689.487C1290.87 689.487 1291.81 690.762 1292.97 689.905C1292.97 689.905 1294.32 690.101 1292.18 686.305C1292.18 686.305 1297.85 689.651 1299.51 692.053C1299.51 692.053 1302.18 692.014 1298.7 687.098C1298.7 687.098 1297.97 684.36 1294.41 680.136C1294.41 680.136 1302.32 683.54 1304.87 687.554C1304.87 687.554 1309.28 690.031 1305.57 681.924C1305.57 681.924 1297.2 661.977 1266.8 658.247C1266.8 658.247 1256 657.033 1247.04 659.118C1247.04 659.118 1255.03 649.708 1262.38 645.239C1262.38 645.239 1265.39 643.063 1276.09 643.044C1276.09 643.044 1298.16 643.191 1305.07 641.708C1305.07 641.708 1307.36 641.077 1310.42 639.508C1310.42 639.508 1315.12 638.22 1321.22 639.759C1321.22 639.759 1335.22 643.622 1343.77 640.298C1343.77 640.298 1362.95 633.696 1365.71 623.575C1365.71 623.575 1368.66 609.692 1364.6 598.279C1364.6 598.279 1363.17 592.605 1361.13 588.274C1361.13 588.274 1359.37 582.261 1363.63 576.847C1363.63 576.847 1366.27 572.585 1367.43 566.777C1367.43 566.777 1365.96 549.455 1363.45 539.172C1363.45 539.172 1358.22 524.431 1353.92 517.842C1353.92 517.842 1352.14 515.779 1348.43 515.746C1344.71 515.714 1345.35 518.554 1345.56 519.841C1345.56 519.841 1351.03 537.008 1352.23 543.753C1352.23 543.753 1355.89 558.071 1350.56 567.207C1350.56 567.207 1347.3 572.321 1341.71 575.141C1341.71 575.141 1331.66 579.808 1327.65 584.66C1327.65 584.66 1313.28 582.189 1306.66 580.948C1306.66 580.948 1293.82 578.39 1284.78 582.875C1284.78 582.875 1283.33 567.024 1281.27 554.973C1281.27 554.973 1274.05 527.019 1268.15 522.053C1268.15 522.053 1266.17 521.158 1262.49 522.459C1262.49 522.459 1259.63 523.116 1261.47 526.925C1261.47 526.925 1270.19 541.983 1268.14 559.304C1268.14 559.304 1264.39 584.362 1257.56 591.677C1257.56 591.677 1246.01 604.151 1237.91 626.67C1237.91 626.67 1234.5 635.072 1226.07 643.007C1226.07 643.007 1217.49 647.158 1213.59 657.664C1213.59 657.664 1209.29 663.06 1208.39 667.559C1208.39 667.559 1205.08 674.601 1207.73 677.667C1207.73 677.667 1213.17 683.852 1220.95 677.439L1220.98 677.417Z" fill="url(#paint9_radial_185_1542)" fill-opacity="0.2"/>
    <path d="M1220.98 677.417C1220.98 677.417 1223.95 674.261 1226.62 672.965C1226.62 672.965 1232.3 671.241 1235.17 671.115C1235.17 671.115 1238.7 670.173 1240.94 667.835C1240.94 667.835 1251.09 671.317 1254.21 676.917C1254.21 676.917 1256.46 681.808 1257.65 681.52C1257.65 681.52 1259.02 680.968 1258.26 677.602C1258.26 677.602 1264.79 681.755 1267.08 684.208C1267.08 684.208 1270.1 686.256 1271.28 685.301C1271.28 685.301 1273.05 684.554 1270.41 680.898C1270.41 680.898 1277.54 683.964 1280.35 686.178C1280.35 686.178 1282.86 688.248 1284.25 687.657C1284.25 687.657 1285.79 686.98 1284.1 684.205C1284.1 684.205 1289.17 686.536 1290.87 689.487C1290.87 689.487 1291.81 690.762 1292.97 689.905C1292.97 689.905 1294.32 690.101 1292.18 686.305C1292.18 686.305 1297.85 689.651 1299.51 692.053C1299.51 692.053 1302.18 692.014 1298.7 687.098C1298.7 687.098 1297.97 684.36 1294.41 680.136C1294.41 680.136 1302.32 683.54 1304.87 687.554C1304.87 687.554 1309.28 690.031 1305.57 681.924C1305.57 681.924 1297.2 661.977 1266.8 658.247C1266.8 658.247 1256 657.033 1247.04 659.118C1247.04 659.118 1255.03 649.708 1262.38 645.239C1262.38 645.239 1265.39 643.063 1276.09 643.044C1276.09 643.044 1298.16 643.191 1305.07 641.708C1305.07 641.708 1307.36 641.077 1310.42 639.508C1310.42 639.508 1315.12 638.22 1321.22 639.759C1321.22 639.759 1335.22 643.622 1343.77 640.298C1343.77 640.298 1362.95 633.696 1365.71 623.575C1365.71 623.575 1368.66 609.692 1364.6 598.279C1364.6 598.279 1363.17 592.605 1361.13 588.274C1361.13 588.274 1359.37 582.261 1363.63 576.847C1363.63 576.847 1366.27 572.585 1367.43 566.777C1367.43 566.777 1365.96 549.455 1363.45 539.172C1363.45 539.172 1358.22 524.431 1353.92 517.842C1353.92 517.842 1352.14 515.779 1348.43 515.746C1344.71 515.714 1345.35 518.554 1345.56 519.841C1345.56 519.841 1351.03 537.008 1352.23 543.753C1352.23 543.753 1355.89 558.071 1350.56 567.207C1350.56 567.207 1347.3 572.321 1341.71 575.141C1341.71 575.141 1331.66 579.808 1327.65 584.66C1327.65 584.66 1313.28 582.189 1306.66 580.948C1306.66 580.948 1293.82 578.39 1284.78 582.875C1284.78 582.875 1283.33 567.024 1281.27 554.973C1281.27 554.973 1274.05 527.019 1268.15 522.053C1268.15 522.053 1266.17 521.158 1262.49 522.459C1262.49 522.459 1259.63 523.116 1261.47 526.925C1261.47 526.925 1270.19 541.983 1268.14 559.304C1268.14 559.304 1264.39 584.362 1257.56 591.677C1257.56 591.677 1246.01 604.151 1237.91 626.67C1237.91 626.67 1234.5 635.072 1226.07 643.007C1226.07 643.007 1217.49 647.158 1213.59 657.664C1213.59 657.664 1209.29 663.06 1208.39 667.559C1208.39 667.559 1205.08 674.601 1207.73 677.667C1207.73 677.667 1213.17 683.852 1220.95 677.439L1220.98 677.417Z" fill="url(#paint10_linear_185_1542)" fill-opacity="0.2"/>
    <path d="M1220.98 677.417C1220.98 677.417 1223.95 674.261 1226.62 672.965C1226.62 672.965 1232.3 671.241 1235.17 671.115C1235.17 671.115 1238.7 670.173 1240.94 667.835C1240.94 667.835 1251.09 671.317 1254.21 676.917C1254.21 676.917 1256.46 681.808 1257.65 681.52C1257.65 681.52 1259.02 680.968 1258.26 677.602C1258.26 677.602 1264.79 681.755 1267.08 684.208C1267.08 684.208 1270.1 686.256 1271.28 685.301C1271.28 685.301 1273.05 684.554 1270.41 680.898C1270.41 680.898 1277.54 683.964 1280.35 686.178C1280.35 686.178 1282.86 688.248 1284.25 687.657C1284.25 687.657 1285.79 686.98 1284.1 684.205C1284.1 684.205 1289.17 686.536 1290.87 689.487C1290.87 689.487 1291.81 690.762 1292.97 689.905C1292.97 689.905 1294.32 690.101 1292.18 686.305C1292.18 686.305 1297.85 689.651 1299.51 692.053C1299.51 692.053 1302.18 692.014 1298.7 687.098C1298.7 687.098 1297.97 684.36 1294.41 680.136C1294.41 680.136 1302.32 683.54 1304.87 687.554C1304.87 687.554 1309.28 690.031 1305.57 681.924C1305.57 681.924 1297.2 661.977 1266.8 658.247C1266.8 658.247 1256 657.033 1247.04 659.118C1247.04 659.118 1255.03 649.708 1262.38 645.239C1262.38 645.239 1265.39 643.063 1276.09 643.044C1276.09 643.044 1298.16 643.191 1305.07 641.708C1305.07 641.708 1307.36 641.077 1310.42 639.508C1310.42 639.508 1315.12 638.22 1321.22 639.759C1321.22 639.759 1335.22 643.622 1343.77 640.298C1343.77 640.298 1362.95 633.696 1365.71 623.575C1365.71 623.575 1368.66 609.692 1364.6 598.279C1364.6 598.279 1363.17 592.605 1361.13 588.274C1361.13 588.274 1359.37 582.261 1363.63 576.847C1363.63 576.847 1366.27 572.585 1367.43 566.777C1367.43 566.777 1365.96 549.455 1363.45 539.172C1363.45 539.172 1358.22 524.431 1353.92 517.842C1353.92 517.842 1352.14 515.779 1348.43 515.746C1344.71 515.714 1345.35 518.554 1345.56 519.841C1345.56 519.841 1351.03 537.008 1352.23 543.753C1352.23 543.753 1355.89 558.071 1350.56 567.207C1350.56 567.207 1347.3 572.321 1341.71 575.141C1341.71 575.141 1331.66 579.808 1327.65 584.66C1327.65 584.66 1313.28 582.189 1306.66 580.948C1306.66 580.948 1293.82 578.39 1284.78 582.875C1284.78 582.875 1283.33 567.024 1281.27 554.973C1281.27 554.973 1274.05 527.019 1268.15 522.053C1268.15 522.053 1266.17 521.158 1262.49 522.459C1262.49 522.459 1259.63 523.116 1261.47 526.925C1261.47 526.925 1270.19 541.983 1268.14 559.304C1268.14 559.304 1264.39 584.362 1257.56 591.677C1257.56 591.677 1246.01 604.151 1237.91 626.67C1237.91 626.67 1234.5 635.072 1226.07 643.007C1226.07 643.007 1217.49 647.158 1213.59 657.664C1213.59 657.664 1209.29 663.06 1208.39 667.559C1208.39 667.559 1205.08 674.601 1207.73 677.667C1207.73 677.667 1213.17 683.852 1220.95 677.439L1220.98 677.417Z" fill="url(#paint11_linear_185_1542)" fill-opacity="0.2"/>
    <path d="M1220.98 677.417C1220.98 677.417 1223.95 674.261 1226.62 672.965C1226.62 672.965 1232.3 671.241 1235.17 671.115C1235.17 671.115 1238.7 670.173 1240.94 667.835C1240.94 667.835 1251.09 671.317 1254.21 676.917C1254.21 676.917 1256.46 681.808 1257.65 681.52C1257.65 681.52 1259.02 680.968 1258.26 677.602C1258.26 677.602 1264.79 681.755 1267.08 684.208C1267.08 684.208 1270.1 686.256 1271.28 685.301C1271.28 685.301 1273.05 684.554 1270.41 680.898C1270.41 680.898 1277.54 683.964 1280.35 686.178C1280.35 686.178 1282.86 688.248 1284.25 687.657C1284.25 687.657 1285.79 686.98 1284.1 684.205C1284.1 684.205 1289.17 686.536 1290.87 689.487C1290.87 689.487 1291.81 690.762 1292.97 689.905C1292.97 689.905 1294.32 690.101 1292.18 686.305C1292.18 686.305 1297.85 689.651 1299.51 692.053C1299.51 692.053 1302.18 692.014 1298.7 687.098C1298.7 687.098 1297.97 684.36 1294.41 680.136C1294.41 680.136 1302.32 683.54 1304.87 687.554C1304.87 687.554 1309.28 690.031 1305.57 681.924C1305.57 681.924 1297.2 661.977 1266.8 658.247C1266.8 658.247 1256 657.033 1247.04 659.118C1247.04 659.118 1255.03 649.708 1262.38 645.239C1262.38 645.239 1265.39 643.063 1276.09 643.044C1276.09 643.044 1298.16 643.191 1305.07 641.708C1305.07 641.708 1307.36 641.077 1310.42 639.508C1310.42 639.508 1315.12 638.22 1321.22 639.759C1321.22 639.759 1335.22 643.622 1343.77 640.298C1343.77 640.298 1362.95 633.696 1365.71 623.575C1365.71 623.575 1368.66 609.692 1364.6 598.279C1364.6 598.279 1363.17 592.605 1361.13 588.274C1361.13 588.274 1359.37 582.261 1363.63 576.847C1363.63 576.847 1366.27 572.585 1367.43 566.777C1367.43 566.777 1365.96 549.455 1363.45 539.172C1363.45 539.172 1358.22 524.431 1353.92 517.842C1353.92 517.842 1352.14 515.779 1348.43 515.746C1344.71 515.714 1345.35 518.554 1345.56 519.841C1345.56 519.841 1351.03 537.008 1352.23 543.753C1352.23 543.753 1355.89 558.071 1350.56 567.207C1350.56 567.207 1347.3 572.321 1341.71 575.141C1341.71 575.141 1331.66 579.808 1327.65 584.66C1327.65 584.66 1313.28 582.189 1306.66 580.948C1306.66 580.948 1293.82 578.39 1284.78 582.875C1284.78 582.875 1283.33 567.024 1281.27 554.973C1281.27 554.973 1274.05 527.019 1268.15 522.053C1268.15 522.053 1266.17 521.158 1262.49 522.459C1262.49 522.459 1259.63 523.116 1261.47 526.925C1261.47 526.925 1270.19 541.983 1268.14 559.304C1268.14 559.304 1264.39 584.362 1257.56 591.677C1257.56 591.677 1246.01 604.151 1237.91 626.67C1237.91 626.67 1234.5 635.072 1226.07 643.007C1226.07 643.007 1217.49 647.158 1213.59 657.664C1213.59 657.664 1209.29 663.06 1208.39 667.559C1208.39 667.559 1205.08 674.601 1207.73 677.667C1207.73 677.667 1213.17 683.852 1220.95 677.439L1220.98 677.417Z" fill="url(#paint12_radial_185_1542)" fill-opacity="0.2"/>
    <path d="M1220.98 677.417C1220.98 677.417 1223.95 674.261 1226.62 672.965C1226.62 672.965 1232.3 671.241 1235.17 671.115C1235.17 671.115 1238.7 670.173 1240.94 667.835C1240.94 667.835 1251.09 671.317 1254.21 676.917C1254.21 676.917 1256.46 681.808 1257.65 681.52C1257.65 681.52 1259.02 680.968 1258.26 677.602C1258.26 677.602 1264.79 681.755 1267.08 684.208C1267.08 684.208 1270.1 686.256 1271.28 685.301C1271.28 685.301 1273.05 684.554 1270.41 680.898C1270.41 680.898 1277.54 683.964 1280.35 686.178C1280.35 686.178 1282.86 688.248 1284.25 687.657C1284.25 687.657 1285.79 686.98 1284.1 684.205C1284.1 684.205 1289.17 686.536 1290.87 689.487C1290.87 689.487 1291.81 690.762 1292.97 689.905C1292.97 689.905 1294.32 690.101 1292.18 686.305C1292.18 686.305 1297.85 689.651 1299.51 692.053C1299.51 692.053 1302.18 692.014 1298.7 687.098C1298.7 687.098 1297.97 684.36 1294.41 680.136C1294.41 680.136 1302.32 683.54 1304.87 687.554C1304.87 687.554 1309.28 690.031 1305.57 681.924C1305.57 681.924 1297.2 661.977 1266.8 658.247C1266.8 658.247 1256 657.033 1247.04 659.118C1247.04 659.118 1255.03 649.708 1262.38 645.239C1262.38 645.239 1265.39 643.063 1276.09 643.044C1276.09 643.044 1298.16 643.191 1305.07 641.708C1305.07 641.708 1307.36 641.077 1310.42 639.508C1310.42 639.508 1315.12 638.22 1321.22 639.759C1321.22 639.759 1335.22 643.622 1343.77 640.298C1343.77 640.298 1362.95 633.696 1365.71 623.575C1365.71 623.575 1368.66 609.692 1364.6 598.279C1364.6 598.279 1363.17 592.605 1361.13 588.274C1361.13 588.274 1359.37 582.261 1363.63 576.847C1363.63 576.847 1366.27 572.585 1367.43 566.777C1367.43 566.777 1365.96 549.455 1363.45 539.172C1363.45 539.172 1358.22 524.431 1353.92 517.842C1353.92 517.842 1352.14 515.779 1348.43 515.746C1344.71 515.714 1345.35 518.554 1345.56 519.841C1345.56 519.841 1351.03 537.008 1352.23 543.753C1352.23 543.753 1355.89 558.071 1350.56 567.207C1350.56 567.207 1347.3 572.321 1341.71 575.141C1341.71 575.141 1331.66 579.808 1327.65 584.66C1327.65 584.66 1313.28 582.189 1306.66 580.948C1306.66 580.948 1293.82 578.39 1284.78 582.875C1284.78 582.875 1283.33 567.024 1281.27 554.973C1281.27 554.973 1274.05 527.019 1268.15 522.053C1268.15 522.053 1266.17 521.158 1262.49 522.459C1262.49 522.459 1259.63 523.116 1261.47 526.925C1261.47 526.925 1270.19 541.983 1268.14 559.304C1268.14 559.304 1264.39 584.362 1257.56 591.677C1257.56 591.677 1246.01 604.151 1237.91 626.67C1237.91 626.67 1234.5 635.072 1226.07 643.007C1226.07 643.007 1217.49 647.158 1213.59 657.664C1213.59 657.664 1209.29 663.06 1208.39 667.559C1208.39 667.559 1205.08 674.601 1207.73 677.667C1207.73 677.667 1213.17 683.852 1220.95 677.439L1220.98 677.417Z" fill="black" fill-opacity="0.2"/>
    </g>
    <g opacity="0.2">
    <path d="M1284.67 581.347C1288.59 566.583 1285.11 526.086 1285.1 525.944C1284.11 521.174 1279.82 521.618 1279.82 521.618C1278.8 521.702 1277.58 521.972 1277.01 522.921C1276.5 523.827 1276.66 525.333 1276.47 526.363C1276.24 527.65 1275.92 528.941 1275.56 530.195C1275.23 531.375 1274.86 532.544 1274.47 533.709C1278.85 544.816 1283.68 562.95 1284.43 580.422L1284.67 581.347Z" fill="url(#paint13_radial_185_1542)"/>
    <path d="M1284.67 581.347C1288.59 566.583 1285.11 526.086 1285.1 525.944C1284.11 521.174 1279.82 521.618 1279.82 521.618C1278.8 521.702 1277.58 521.972 1277.01 522.921C1276.5 523.827 1276.66 525.333 1276.47 526.363C1276.24 527.65 1275.92 528.941 1275.56 530.195C1275.23 531.375 1274.86 532.544 1274.47 533.709C1278.85 544.816 1283.68 562.95 1284.43 580.422L1284.67 581.347Z" fill="url(#paint14_radial_185_1542)" fill-opacity="0.2"/>
    <path d="M1284.67 581.347C1288.59 566.583 1285.11 526.086 1285.1 525.944C1284.11 521.174 1279.82 521.618 1279.82 521.618C1278.8 521.702 1277.58 521.972 1277.01 522.921C1276.5 523.827 1276.66 525.333 1276.47 526.363C1276.24 527.65 1275.92 528.941 1275.56 530.195C1275.23 531.375 1274.86 532.544 1274.47 533.709C1278.85 544.816 1283.68 562.95 1284.43 580.422L1284.67 581.347Z" fill="url(#paint15_linear_185_1542)" fill-opacity="0.2"/>
    <path d="M1284.67 581.347C1288.59 566.583 1285.11 526.086 1285.1 525.944C1284.11 521.174 1279.82 521.618 1279.82 521.618C1278.8 521.702 1277.58 521.972 1277.01 522.921C1276.5 523.827 1276.66 525.333 1276.47 526.363C1276.24 527.65 1275.92 528.941 1275.56 530.195C1275.23 531.375 1274.86 532.544 1274.47 533.709C1278.85 544.816 1283.68 562.95 1284.43 580.422L1284.67 581.347Z" fill="url(#paint16_linear_185_1542)" fill-opacity="0.2"/>
    </g>
    <g opacity="0.2">
    <path d="M1349.5 568.6C1349.5 568.6 1350.19 561.212 1347.3 547.35C1347.3 547.35 1341.75 524.863 1336.45 519.143C1336.45 519.143 1330.48 516.381 1327.26 520.904C1326.57 521.877 1327.47 523.979 1327.84 524.847C1333.32 537.73 1336.01 552.445 1334.98 566.46C1334.62 571.308 1334 577.1 1332.11 580.712L1345.5 573.1L1349.5 568.6Z" fill="url(#paint17_radial_185_1542)"/>
    <path d="M1349.5 568.6C1349.5 568.6 1350.19 561.212 1347.3 547.35C1347.3 547.35 1341.75 524.863 1336.45 519.143C1336.45 519.143 1330.48 516.381 1327.26 520.904C1326.57 521.877 1327.47 523.979 1327.84 524.847C1333.32 537.73 1336.01 552.445 1334.98 566.46C1334.62 571.308 1334 577.1 1332.11 580.712L1345.5 573.1L1349.5 568.6Z" fill="url(#paint18_radial_185_1542)" fill-opacity="0.2"/>
    <path d="M1349.5 568.6C1349.5 568.6 1350.19 561.212 1347.3 547.35C1347.3 547.35 1341.75 524.863 1336.45 519.143C1336.45 519.143 1330.48 516.381 1327.26 520.904C1326.57 521.877 1327.47 523.979 1327.84 524.847C1333.32 537.73 1336.01 552.445 1334.98 566.46C1334.62 571.308 1334 577.1 1332.11 580.712L1345.5 573.1L1349.5 568.6Z" fill="url(#paint19_linear_185_1542)" fill-opacity="0.2"/>
    <path d="M1349.5 568.6C1349.5 568.6 1350.19 561.212 1347.3 547.35C1347.3 547.35 1341.75 524.863 1336.45 519.143C1336.45 519.143 1330.48 516.381 1327.26 520.904C1326.57 521.877 1327.47 523.979 1327.84 524.847C1333.32 537.73 1336.01 552.445 1334.98 566.46C1334.62 571.308 1334 577.1 1332.11 580.712L1345.5 573.1L1349.5 568.6Z" fill="url(#paint20_linear_185_1542)" fill-opacity="0.2"/>
    <path d="M1349.5 568.6C1349.5 568.6 1350.19 561.212 1347.3 547.35C1347.3 547.35 1341.75 524.863 1336.45 519.143C1336.45 519.143 1330.48 516.381 1327.26 520.904C1326.57 521.877 1327.47 523.979 1327.84 524.847C1333.32 537.73 1336.01 552.445 1334.98 566.46C1334.62 571.308 1334 577.1 1332.11 580.712L1345.5 573.1L1349.5 568.6Z" fill="url(#paint21_linear_185_1542)" fill-opacity="0.2"/>
    </g>
    </g>
    <g filter="url(#filter5_iii_185_1542)">
    <g filter="url(#filter6_i_185_1542)">
    <path d="M1228.98 337.682C1228.98 337.682 1231.95 340.838 1234.62 342.135C1234.62 342.135 1240.3 343.859 1243.17 343.985C1243.17 343.985 1246.7 344.927 1248.94 347.265C1248.94 347.265 1259.09 343.783 1262.21 338.183C1262.21 338.183 1264.46 333.292 1265.65 333.58C1265.65 333.58 1267.02 334.132 1266.26 337.497C1266.26 337.497 1272.79 333.345 1275.08 330.891C1275.08 330.891 1278.1 328.843 1279.28 329.799C1279.28 329.799 1281.05 330.545 1278.41 334.201C1278.41 334.201 1285.54 331.136 1288.35 328.922C1288.35 328.922 1290.86 326.851 1292.25 327.443C1292.25 327.443 1293.79 328.12 1292.1 330.894C1292.1 330.894 1297.17 328.564 1298.87 325.613C1298.87 325.613 1299.81 324.338 1300.97 325.195C1300.97 325.195 1302.32 324.998 1300.18 328.795C1300.18 328.795 1305.85 325.449 1307.51 323.046C1307.51 323.046 1310.18 323.085 1306.7 328.001C1306.7 328.001 1305.97 330.739 1302.41 334.964C1302.41 334.964 1310.32 331.559 1312.87 327.546C1312.87 327.546 1317.28 325.068 1313.57 333.176C1313.57 333.176 1305.2 353.123 1274.8 356.852C1274.8 356.852 1264 358.066 1255.04 355.982C1255.04 355.982 1263.03 365.391 1270.38 369.86C1270.38 369.86 1273.39 372.036 1284.09 372.056C1284.09 372.056 1306.16 371.908 1313.07 373.392C1313.07 373.392 1315.36 374.023 1318.42 375.592C1318.42 375.592 1323.12 376.879 1329.22 375.34C1329.22 375.34 1343.22 371.478 1351.77 374.802C1351.77 374.802 1370.95 381.403 1373.71 391.525C1373.71 391.525 1376.66 405.408 1372.6 416.821C1372.6 416.821 1371.17 422.495 1369.13 426.826C1369.13 426.826 1367.37 432.839 1371.63 438.253C1371.63 438.253 1374.27 442.515 1375.43 448.322C1375.43 448.322 1373.96 465.645 1371.45 475.928C1371.45 475.928 1366.22 490.668 1361.92 497.257C1361.92 497.257 1360.14 499.32 1356.43 499.353C1352.71 499.386 1353.35 496.546 1353.56 495.258C1353.56 495.258 1359.03 478.092 1360.23 471.347C1360.23 471.347 1363.89 457.028 1358.56 447.893C1358.56 447.893 1355.3 442.779 1349.71 439.959C1349.71 439.959 1339.66 435.292 1335.65 430.439C1335.65 430.439 1321.28 432.91 1314.66 434.151C1314.66 434.151 1301.82 436.71 1292.78 432.225C1292.78 432.225 1291.33 448.075 1289.27 460.126C1289.27 460.126 1282.05 488.08 1276.15 493.047C1276.15 493.047 1274.17 493.942 1270.49 492.64C1270.49 492.64 1267.63 491.984 1269.47 488.175C1269.47 488.175 1278.19 473.116 1276.14 455.795C1276.14 455.795 1272.39 430.737 1265.56 423.423C1265.56 423.423 1254.01 410.949 1245.91 388.43C1245.91 388.43 1242.5 380.028 1234.07 372.092C1234.07 372.092 1225.49 367.942 1221.59 357.436C1221.59 357.436 1217.29 352.04 1216.39 347.54C1216.39 347.54 1213.08 340.499 1215.73 337.433C1215.73 337.433 1221.17 331.248 1228.95 337.661L1228.98 337.682Z" fill="url(#paint22_radial_185_1542)" fill-opacity="0.6"/>
    <path d="M1228.98 337.682C1228.98 337.682 1231.95 340.838 1234.62 342.135C1234.62 342.135 1240.3 343.859 1243.17 343.985C1243.17 343.985 1246.7 344.927 1248.94 347.265C1248.94 347.265 1259.09 343.783 1262.21 338.183C1262.21 338.183 1264.46 333.292 1265.65 333.58C1265.65 333.58 1267.02 334.132 1266.26 337.497C1266.26 337.497 1272.79 333.345 1275.08 330.891C1275.08 330.891 1278.1 328.843 1279.28 329.799C1279.28 329.799 1281.05 330.545 1278.41 334.201C1278.41 334.201 1285.54 331.136 1288.35 328.922C1288.35 328.922 1290.86 326.851 1292.25 327.443C1292.25 327.443 1293.79 328.12 1292.1 330.894C1292.1 330.894 1297.17 328.564 1298.87 325.613C1298.87 325.613 1299.81 324.338 1300.97 325.195C1300.97 325.195 1302.32 324.998 1300.18 328.795C1300.18 328.795 1305.85 325.449 1307.51 323.046C1307.51 323.046 1310.18 323.085 1306.7 328.001C1306.7 328.001 1305.97 330.739 1302.41 334.964C1302.41 334.964 1310.32 331.559 1312.87 327.546C1312.87 327.546 1317.28 325.068 1313.57 333.176C1313.57 333.176 1305.2 353.123 1274.8 356.852C1274.8 356.852 1264 358.066 1255.04 355.982C1255.04 355.982 1263.03 365.391 1270.38 369.86C1270.38 369.86 1273.39 372.036 1284.09 372.056C1284.09 372.056 1306.16 371.908 1313.07 373.392C1313.07 373.392 1315.36 374.023 1318.42 375.592C1318.42 375.592 1323.12 376.879 1329.22 375.34C1329.22 375.34 1343.22 371.478 1351.77 374.802C1351.77 374.802 1370.95 381.403 1373.71 391.525C1373.71 391.525 1376.66 405.408 1372.6 416.821C1372.6 416.821 1371.17 422.495 1369.13 426.826C1369.13 426.826 1367.37 432.839 1371.63 438.253C1371.63 438.253 1374.27 442.515 1375.43 448.322C1375.43 448.322 1373.96 465.645 1371.45 475.928C1371.45 475.928 1366.22 490.668 1361.92 497.257C1361.92 497.257 1360.14 499.32 1356.43 499.353C1352.71 499.386 1353.35 496.546 1353.56 495.258C1353.56 495.258 1359.03 478.092 1360.23 471.347C1360.23 471.347 1363.89 457.028 1358.56 447.893C1358.56 447.893 1355.3 442.779 1349.71 439.959C1349.71 439.959 1339.66 435.292 1335.65 430.439C1335.65 430.439 1321.28 432.91 1314.66 434.151C1314.66 434.151 1301.82 436.71 1292.78 432.225C1292.78 432.225 1291.33 448.075 1289.27 460.126C1289.27 460.126 1282.05 488.08 1276.15 493.047C1276.15 493.047 1274.17 493.942 1270.49 492.64C1270.49 492.64 1267.63 491.984 1269.47 488.175C1269.47 488.175 1278.19 473.116 1276.14 455.795C1276.14 455.795 1272.39 430.737 1265.56 423.423C1265.56 423.423 1254.01 410.949 1245.91 388.43C1245.91 388.43 1242.5 380.028 1234.07 372.092C1234.07 372.092 1225.49 367.942 1221.59 357.436C1221.59 357.436 1217.29 352.04 1216.39 347.54C1216.39 347.54 1213.08 340.499 1215.73 337.433C1215.73 337.433 1221.17 331.248 1228.95 337.661L1228.98 337.682Z" fill="url(#paint23_radial_185_1542)" fill-opacity="0.2"/>
    <path d="M1228.98 337.682C1228.98 337.682 1231.95 340.838 1234.62 342.135C1234.62 342.135 1240.3 343.859 1243.17 343.985C1243.17 343.985 1246.7 344.927 1248.94 347.265C1248.94 347.265 1259.09 343.783 1262.21 338.183C1262.21 338.183 1264.46 333.292 1265.65 333.58C1265.65 333.58 1267.02 334.132 1266.26 337.497C1266.26 337.497 1272.79 333.345 1275.08 330.891C1275.08 330.891 1278.1 328.843 1279.28 329.799C1279.28 329.799 1281.05 330.545 1278.41 334.201C1278.41 334.201 1285.54 331.136 1288.35 328.922C1288.35 328.922 1290.86 326.851 1292.25 327.443C1292.25 327.443 1293.79 328.12 1292.1 330.894C1292.1 330.894 1297.17 328.564 1298.87 325.613C1298.87 325.613 1299.81 324.338 1300.97 325.195C1300.97 325.195 1302.32 324.998 1300.18 328.795C1300.18 328.795 1305.85 325.449 1307.51 323.046C1307.51 323.046 1310.18 323.085 1306.7 328.001C1306.7 328.001 1305.97 330.739 1302.41 334.964C1302.41 334.964 1310.32 331.559 1312.87 327.546C1312.87 327.546 1317.28 325.068 1313.57 333.176C1313.57 333.176 1305.2 353.123 1274.8 356.852C1274.8 356.852 1264 358.066 1255.04 355.982C1255.04 355.982 1263.03 365.391 1270.38 369.86C1270.38 369.86 1273.39 372.036 1284.09 372.056C1284.09 372.056 1306.16 371.908 1313.07 373.392C1313.07 373.392 1315.36 374.023 1318.42 375.592C1318.42 375.592 1323.12 376.879 1329.22 375.34C1329.22 375.34 1343.22 371.478 1351.77 374.802C1351.77 374.802 1370.95 381.403 1373.71 391.525C1373.71 391.525 1376.66 405.408 1372.6 416.821C1372.6 416.821 1371.17 422.495 1369.13 426.826C1369.13 426.826 1367.37 432.839 1371.63 438.253C1371.63 438.253 1374.27 442.515 1375.43 448.322C1375.43 448.322 1373.96 465.645 1371.45 475.928C1371.45 475.928 1366.22 490.668 1361.92 497.257C1361.92 497.257 1360.14 499.32 1356.43 499.353C1352.71 499.386 1353.35 496.546 1353.56 495.258C1353.56 495.258 1359.03 478.092 1360.23 471.347C1360.23 471.347 1363.89 457.028 1358.56 447.893C1358.56 447.893 1355.3 442.779 1349.71 439.959C1349.71 439.959 1339.66 435.292 1335.65 430.439C1335.65 430.439 1321.28 432.91 1314.66 434.151C1314.66 434.151 1301.82 436.71 1292.78 432.225C1292.78 432.225 1291.33 448.075 1289.27 460.126C1289.27 460.126 1282.05 488.08 1276.15 493.047C1276.15 493.047 1274.17 493.942 1270.49 492.64C1270.49 492.64 1267.63 491.984 1269.47 488.175C1269.47 488.175 1278.19 473.116 1276.14 455.795C1276.14 455.795 1272.39 430.737 1265.56 423.423C1265.56 423.423 1254.01 410.949 1245.91 388.43C1245.91 388.43 1242.5 380.028 1234.07 372.092C1234.07 372.092 1225.49 367.942 1221.59 357.436C1221.59 357.436 1217.29 352.04 1216.39 347.54C1216.39 347.54 1213.08 340.499 1215.73 337.433C1215.73 337.433 1221.17 331.248 1228.95 337.661L1228.98 337.682Z" fill="url(#paint24_linear_185_1542)" fill-opacity="0.2"/>
    <path d="M1228.98 337.682C1228.98 337.682 1231.95 340.838 1234.62 342.135C1234.62 342.135 1240.3 343.859 1243.17 343.985C1243.17 343.985 1246.7 344.927 1248.94 347.265C1248.94 347.265 1259.09 343.783 1262.21 338.183C1262.21 338.183 1264.46 333.292 1265.65 333.58C1265.65 333.58 1267.02 334.132 1266.26 337.497C1266.26 337.497 1272.79 333.345 1275.08 330.891C1275.08 330.891 1278.1 328.843 1279.28 329.799C1279.28 329.799 1281.05 330.545 1278.41 334.201C1278.41 334.201 1285.54 331.136 1288.35 328.922C1288.35 328.922 1290.86 326.851 1292.25 327.443C1292.25 327.443 1293.79 328.12 1292.1 330.894C1292.1 330.894 1297.17 328.564 1298.87 325.613C1298.87 325.613 1299.81 324.338 1300.97 325.195C1300.97 325.195 1302.32 324.998 1300.18 328.795C1300.18 328.795 1305.85 325.449 1307.51 323.046C1307.51 323.046 1310.18 323.085 1306.7 328.001C1306.7 328.001 1305.97 330.739 1302.41 334.964C1302.41 334.964 1310.32 331.559 1312.87 327.546C1312.87 327.546 1317.28 325.068 1313.57 333.176C1313.57 333.176 1305.2 353.123 1274.8 356.852C1274.8 356.852 1264 358.066 1255.04 355.982C1255.04 355.982 1263.03 365.391 1270.38 369.86C1270.38 369.86 1273.39 372.036 1284.09 372.056C1284.09 372.056 1306.16 371.908 1313.07 373.392C1313.07 373.392 1315.36 374.023 1318.42 375.592C1318.42 375.592 1323.12 376.879 1329.22 375.34C1329.22 375.34 1343.22 371.478 1351.77 374.802C1351.77 374.802 1370.95 381.403 1373.71 391.525C1373.71 391.525 1376.66 405.408 1372.6 416.821C1372.6 416.821 1371.17 422.495 1369.13 426.826C1369.13 426.826 1367.37 432.839 1371.63 438.253C1371.63 438.253 1374.27 442.515 1375.43 448.322C1375.43 448.322 1373.96 465.645 1371.45 475.928C1371.45 475.928 1366.22 490.668 1361.92 497.257C1361.92 497.257 1360.14 499.32 1356.43 499.353C1352.71 499.386 1353.35 496.546 1353.56 495.258C1353.56 495.258 1359.03 478.092 1360.23 471.347C1360.23 471.347 1363.89 457.028 1358.56 447.893C1358.56 447.893 1355.3 442.779 1349.71 439.959C1349.71 439.959 1339.66 435.292 1335.65 430.439C1335.65 430.439 1321.28 432.91 1314.66 434.151C1314.66 434.151 1301.82 436.71 1292.78 432.225C1292.78 432.225 1291.33 448.075 1289.27 460.126C1289.27 460.126 1282.05 488.08 1276.15 493.047C1276.15 493.047 1274.17 493.942 1270.49 492.64C1270.49 492.64 1267.63 491.984 1269.47 488.175C1269.47 488.175 1278.19 473.116 1276.14 455.795C1276.14 455.795 1272.39 430.737 1265.56 423.423C1265.56 423.423 1254.01 410.949 1245.91 388.43C1245.91 388.43 1242.5 380.028 1234.07 372.092C1234.07 372.092 1225.49 367.942 1221.59 357.436C1221.59 357.436 1217.29 352.04 1216.39 347.54C1216.39 347.54 1213.08 340.499 1215.73 337.433C1215.73 337.433 1221.17 331.248 1228.95 337.661L1228.98 337.682Z" fill="url(#paint25_linear_185_1542)" fill-opacity="0.2"/>
    <path d="M1228.98 337.682C1228.98 337.682 1231.95 340.838 1234.62 342.135C1234.62 342.135 1240.3 343.859 1243.17 343.985C1243.17 343.985 1246.7 344.927 1248.94 347.265C1248.94 347.265 1259.09 343.783 1262.21 338.183C1262.21 338.183 1264.46 333.292 1265.65 333.58C1265.65 333.58 1267.02 334.132 1266.26 337.497C1266.26 337.497 1272.79 333.345 1275.08 330.891C1275.08 330.891 1278.1 328.843 1279.28 329.799C1279.28 329.799 1281.05 330.545 1278.41 334.201C1278.41 334.201 1285.54 331.136 1288.35 328.922C1288.35 328.922 1290.86 326.851 1292.25 327.443C1292.25 327.443 1293.79 328.12 1292.1 330.894C1292.1 330.894 1297.17 328.564 1298.87 325.613C1298.87 325.613 1299.81 324.338 1300.97 325.195C1300.97 325.195 1302.32 324.998 1300.18 328.795C1300.18 328.795 1305.85 325.449 1307.51 323.046C1307.51 323.046 1310.18 323.085 1306.7 328.001C1306.7 328.001 1305.97 330.739 1302.41 334.964C1302.41 334.964 1310.32 331.559 1312.87 327.546C1312.87 327.546 1317.28 325.068 1313.57 333.176C1313.57 333.176 1305.2 353.123 1274.8 356.852C1274.8 356.852 1264 358.066 1255.04 355.982C1255.04 355.982 1263.03 365.391 1270.38 369.86C1270.38 369.86 1273.39 372.036 1284.09 372.056C1284.09 372.056 1306.16 371.908 1313.07 373.392C1313.07 373.392 1315.36 374.023 1318.42 375.592C1318.42 375.592 1323.12 376.879 1329.22 375.34C1329.22 375.34 1343.22 371.478 1351.77 374.802C1351.77 374.802 1370.95 381.403 1373.71 391.525C1373.71 391.525 1376.66 405.408 1372.6 416.821C1372.6 416.821 1371.17 422.495 1369.13 426.826C1369.13 426.826 1367.37 432.839 1371.63 438.253C1371.63 438.253 1374.27 442.515 1375.43 448.322C1375.43 448.322 1373.96 465.645 1371.45 475.928C1371.45 475.928 1366.22 490.668 1361.92 497.257C1361.92 497.257 1360.14 499.32 1356.43 499.353C1352.71 499.386 1353.35 496.546 1353.56 495.258C1353.56 495.258 1359.03 478.092 1360.23 471.347C1360.23 471.347 1363.89 457.028 1358.56 447.893C1358.56 447.893 1355.3 442.779 1349.71 439.959C1349.71 439.959 1339.66 435.292 1335.65 430.439C1335.65 430.439 1321.28 432.91 1314.66 434.151C1314.66 434.151 1301.82 436.71 1292.78 432.225C1292.78 432.225 1291.33 448.075 1289.27 460.126C1289.27 460.126 1282.05 488.08 1276.15 493.047C1276.15 493.047 1274.17 493.942 1270.49 492.64C1270.49 492.64 1267.63 491.984 1269.47 488.175C1269.47 488.175 1278.19 473.116 1276.14 455.795C1276.14 455.795 1272.39 430.737 1265.56 423.423C1265.56 423.423 1254.01 410.949 1245.91 388.43C1245.91 388.43 1242.5 380.028 1234.07 372.092C1234.07 372.092 1225.49 367.942 1221.59 357.436C1221.59 357.436 1217.29 352.04 1216.39 347.54C1216.39 347.54 1213.08 340.499 1215.73 337.433C1215.73 337.433 1221.17 331.248 1228.95 337.661L1228.98 337.682Z" fill="url(#paint26_radial_185_1542)" fill-opacity="0.2"/>
    <path d="M1228.98 337.682C1228.98 337.682 1231.95 340.838 1234.62 342.135C1234.62 342.135 1240.3 343.859 1243.17 343.985C1243.17 343.985 1246.7 344.927 1248.94 347.265C1248.94 347.265 1259.09 343.783 1262.21 338.183C1262.21 338.183 1264.46 333.292 1265.65 333.58C1265.65 333.58 1267.02 334.132 1266.26 337.497C1266.26 337.497 1272.79 333.345 1275.08 330.891C1275.08 330.891 1278.1 328.843 1279.28 329.799C1279.28 329.799 1281.05 330.545 1278.41 334.201C1278.41 334.201 1285.54 331.136 1288.35 328.922C1288.35 328.922 1290.86 326.851 1292.25 327.443C1292.25 327.443 1293.79 328.12 1292.1 330.894C1292.1 330.894 1297.17 328.564 1298.87 325.613C1298.87 325.613 1299.81 324.338 1300.97 325.195C1300.97 325.195 1302.32 324.998 1300.18 328.795C1300.18 328.795 1305.85 325.449 1307.51 323.046C1307.51 323.046 1310.18 323.085 1306.7 328.001C1306.7 328.001 1305.97 330.739 1302.41 334.964C1302.41 334.964 1310.32 331.559 1312.87 327.546C1312.87 327.546 1317.28 325.068 1313.57 333.176C1313.57 333.176 1305.2 353.123 1274.8 356.852C1274.8 356.852 1264 358.066 1255.04 355.982C1255.04 355.982 1263.03 365.391 1270.38 369.86C1270.38 369.86 1273.39 372.036 1284.09 372.056C1284.09 372.056 1306.16 371.908 1313.07 373.392C1313.07 373.392 1315.36 374.023 1318.42 375.592C1318.42 375.592 1323.12 376.879 1329.22 375.34C1329.22 375.34 1343.22 371.478 1351.77 374.802C1351.77 374.802 1370.95 381.403 1373.71 391.525C1373.71 391.525 1376.66 405.408 1372.6 416.821C1372.6 416.821 1371.17 422.495 1369.13 426.826C1369.13 426.826 1367.37 432.839 1371.63 438.253C1371.63 438.253 1374.27 442.515 1375.43 448.322C1375.43 448.322 1373.96 465.645 1371.45 475.928C1371.45 475.928 1366.22 490.668 1361.92 497.257C1361.92 497.257 1360.14 499.32 1356.43 499.353C1352.71 499.386 1353.35 496.546 1353.56 495.258C1353.56 495.258 1359.03 478.092 1360.23 471.347C1360.23 471.347 1363.89 457.028 1358.56 447.893C1358.56 447.893 1355.3 442.779 1349.71 439.959C1349.71 439.959 1339.66 435.292 1335.65 430.439C1335.65 430.439 1321.28 432.91 1314.66 434.151C1314.66 434.151 1301.82 436.71 1292.78 432.225C1292.78 432.225 1291.33 448.075 1289.27 460.126C1289.27 460.126 1282.05 488.08 1276.15 493.047C1276.15 493.047 1274.17 493.942 1270.49 492.64C1270.49 492.64 1267.63 491.984 1269.47 488.175C1269.47 488.175 1278.19 473.116 1276.14 455.795C1276.14 455.795 1272.39 430.737 1265.56 423.423C1265.56 423.423 1254.01 410.949 1245.91 388.43C1245.91 388.43 1242.5 380.028 1234.07 372.092C1234.07 372.092 1225.49 367.942 1221.59 357.436C1221.59 357.436 1217.29 352.04 1216.39 347.54C1216.39 347.54 1213.08 340.499 1215.73 337.433C1215.73 337.433 1221.17 331.248 1228.95 337.661L1228.98 337.682Z" fill="black" fill-opacity="0.2"/>
    </g>
    <path d="M1292.67 433.752C1296.59 448.517 1293.11 489.013 1293.1 489.156C1292.11 493.926 1287.82 493.482 1287.82 493.482C1286.8 493.397 1285.58 493.127 1285.01 492.179C1284.5 491.272 1284.66 489.767 1284.47 488.737C1284.24 487.449 1283.92 486.158 1283.56 484.905C1283.23 483.725 1282.86 482.556 1282.47 481.39C1286.85 470.284 1291.68 452.149 1292.43 434.678L1292.67 433.752Z" fill="url(#paint27_radial_185_1542)"/>
    <path d="M1292.67 433.752C1296.59 448.517 1293.11 489.013 1293.1 489.156C1292.11 493.926 1287.82 493.482 1287.82 493.482C1286.8 493.397 1285.58 493.127 1285.01 492.179C1284.5 491.272 1284.66 489.767 1284.47 488.737C1284.24 487.449 1283.92 486.158 1283.56 484.905C1283.23 483.725 1282.86 482.556 1282.47 481.39C1286.85 470.284 1291.68 452.149 1292.43 434.678L1292.67 433.752Z" fill="url(#paint28_radial_185_1542)" fill-opacity="0.2"/>
    <path d="M1292.67 433.752C1296.59 448.517 1293.11 489.013 1293.1 489.156C1292.11 493.926 1287.82 493.482 1287.82 493.482C1286.8 493.397 1285.58 493.127 1285.01 492.179C1284.5 491.272 1284.66 489.767 1284.47 488.737C1284.24 487.449 1283.92 486.158 1283.56 484.905C1283.23 483.725 1282.86 482.556 1282.47 481.39C1286.85 470.284 1291.68 452.149 1292.43 434.678L1292.67 433.752Z" fill="url(#paint29_linear_185_1542)" fill-opacity="0.2"/>
    <path d="M1292.67 433.752C1296.59 448.517 1293.11 489.013 1293.1 489.156C1292.11 493.926 1287.82 493.482 1287.82 493.482C1286.8 493.397 1285.58 493.127 1285.01 492.179C1284.5 491.272 1284.66 489.767 1284.47 488.737C1284.24 487.449 1283.92 486.158 1283.56 484.905C1283.23 483.725 1282.86 482.556 1282.47 481.39C1286.85 470.284 1291.68 452.149 1292.43 434.678L1292.67 433.752Z" fill="url(#paint30_linear_185_1542)" fill-opacity="0.2"/>
    <path d="M1357.5 446.5C1357.5 446.5 1358.19 453.888 1355.3 467.749C1355.3 467.749 1349.75 490.237 1344.45 495.956C1344.45 495.956 1338.48 498.719 1335.26 494.196C1334.57 493.222 1335.47 491.12 1335.84 490.253C1341.32 477.37 1344.01 462.655 1342.98 448.64C1342.62 443.791 1342 438 1340.11 434.387L1353.5 442L1357.5 446.5Z" fill="url(#paint31_radial_185_1542)"/>
    <path d="M1357.5 446.5C1357.5 446.5 1358.19 453.888 1355.3 467.749C1355.3 467.749 1349.75 490.237 1344.45 495.956C1344.45 495.956 1338.48 498.719 1335.26 494.196C1334.57 493.222 1335.47 491.12 1335.84 490.253C1341.32 477.37 1344.01 462.655 1342.98 448.64C1342.62 443.791 1342 438 1340.11 434.387L1353.5 442L1357.5 446.5Z" fill="url(#paint32_radial_185_1542)" fill-opacity="0.2"/>
    <path d="M1357.5 446.5C1357.5 446.5 1358.19 453.888 1355.3 467.749C1355.3 467.749 1349.75 490.237 1344.45 495.956C1344.45 495.956 1338.48 498.719 1335.26 494.196C1334.57 493.222 1335.47 491.12 1335.84 490.253C1341.32 477.37 1344.01 462.655 1342.98 448.64C1342.62 443.791 1342 438 1340.11 434.387L1353.5 442L1357.5 446.5Z" fill="url(#paint33_linear_185_1542)" fill-opacity="0.2"/>
    <path d="M1357.5 446.5C1357.5 446.5 1358.19 453.888 1355.3 467.749C1355.3 467.749 1349.75 490.237 1344.45 495.956C1344.45 495.956 1338.48 498.719 1335.26 494.196C1334.57 493.222 1335.47 491.12 1335.84 490.253C1341.32 477.37 1344.01 462.655 1342.98 448.64C1342.62 443.791 1342 438 1340.11 434.387L1353.5 442L1357.5 446.5Z" fill="url(#paint34_linear_185_1542)" fill-opacity="0.2"/>
    <path d="M1357.5 446.5C1357.5 446.5 1358.19 453.888 1355.3 467.749C1355.3 467.749 1349.75 490.237 1344.45 495.956C1344.45 495.956 1338.48 498.719 1335.26 494.196C1334.57 493.222 1335.47 491.12 1335.84 490.253C1341.32 477.37 1344.01 462.655 1342.98 448.64C1342.62 443.791 1342 438 1340.11 434.387L1353.5 442L1357.5 446.5Z" fill="url(#paint35_linear_185_1542)" fill-opacity="0.2"/>
    </g>
    </g>
    <defs>
    <filter id="filter0_f_185_1542" x="713.395" y="-237.208" width="1253.94" height="1274.58" filterUnits="userSpaceOnUse" color-interpolation-filters="sRGB">
    <feFlood flood-opacity="0" result="BackgroundImageFix"/>
    <feBlend mode="normal" in="SourceGraphic" in2="BackgroundImageFix" result="shape"/>
    <feGaussianBlur stdDeviation="200" result="effect1_foregroundBlur_185_1542"/>
    </filter>
    <filter id="filter1_f_185_1542" x="-4" y="468" width="535" height="289" filterUnits="userSpaceOnUse" color-interpolation-filters="sRGB">
    <feFlood flood-opacity="0" result="BackgroundImageFix"/>
    <feBlend mode="normal" in="SourceGraphic" in2="BackgroundImageFix" result="shape"/>
    <feGaussianBlur stdDeviation="2" result="effect1_foregroundBlur_185_1542"/>
    </filter>
    <filter id="filter2_f_185_1542" x="-488.605" y="-165.208" width="1253.94" height="1274.58" filterUnits="userSpaceOnUse" color-interpolation-filters="sRGB">
    <feFlood flood-opacity="0" result="BackgroundImageFix"/>
    <feBlend mode="normal" in="SourceGraphic" in2="BackgroundImageFix" result="shape"/>
    <feGaussianBlur stdDeviation="200" result="effect1_foregroundBlur_185_1542"/>
    </filter>
    <filter id="filter3_iii_185_1542" x="1191.71" y="500.746" width="190.729" height="206.307" filterUnits="userSpaceOnUse" color-interpolation-filters="sRGB">
    <feFlood flood-opacity="0" result="BackgroundImageFix"/>
    <feBlend mode="normal" in="SourceGraphic" in2="BackgroundImageFix" result="shape"/>
    <feColorMatrix in="SourceAlpha" type="matrix" values="0 0 0 0 0 0 0 0 0 0 0 0 0 0 0 0 0 0 127 0" result="hardAlpha"/>
    <feOffset dy="4"/>
    <feGaussianBlur stdDeviation="2"/>
    <feComposite in2="hardAlpha" operator="arithmetic" k2="-1" k3="1"/>
    <feColorMatrix type="matrix" values="0 0 0 0 0 0 0 0 0 0 0 0 0 0 0 0 0 0 0.25 0"/>
    <feBlend mode="normal" in2="shape" result="effect1_innerShadow_185_1542"/>
    <feColorMatrix in="SourceAlpha" type="matrix" values="0 0 0 0 0 0 0 0 0 0 0 0 0 0 0 0 0 0 127 0" result="hardAlpha"/>
    <feOffset dy="4"/>
    <feGaussianBlur stdDeviation="2"/>
    <feComposite in2="hardAlpha" operator="arithmetic" k2="-1" k3="1"/>
    <feColorMatrix type="matrix" values="0 0 0 0 1 0 0 0 0 1 0 0 0 0 1 0 0 0 0.25 0"/>
    <feBlend mode="normal" in2="effect1_innerShadow_185_1542" result="effect2_innerShadow_185_1542"/>
    <feColorMatrix in="SourceAlpha" type="matrix" values="0 0 0 0 0 0 0 0 0 0 0 0 0 0 0 0 0 0 127 0" result="hardAlpha"/>
    <feOffset dy="4"/>
    <feGaussianBlur stdDeviation="5"/>
    <feComposite in2="hardAlpha" operator="arithmetic" k2="-1" k3="1"/>
    <feColorMatrix type="matrix" values="0 0 0 0 1 0 0 0 0 1 0 0 0 0 1 0 0 0 0.5 0"/>
    <feBlend mode="normal" in2="effect2_innerShadow_185_1542" result="effect3_innerShadow_185_1542"/>
    </filter>
    <filter id="filter4_i_185_1542" x="1206.71" y="515.746" width="160.729" height="180.307" filterUnits="userSpaceOnUse" color-interpolation-filters="sRGB">
    <feFlood flood-opacity="0" result="BackgroundImageFix"/>
    <feBlend mode="normal" in="SourceGraphic" in2="BackgroundImageFix" result="shape"/>
    <feColorMatrix in="SourceAlpha" type="matrix" values="0 0 0 0 0 0 0 0 0 0 0 0 0 0 0 0 0 0 127 0" result="hardAlpha"/>
    <feOffset dy="4"/>
    <feGaussianBlur stdDeviation="2"/>
    <feComposite in2="hardAlpha" operator="arithmetic" k2="-1" k3="1"/>
    <feColorMatrix type="matrix" values="0 0 0 0 1 0 0 0 0 1 0 0 0 0 1 0 0 0 0.25 0"/>
    <feBlend mode="normal" in2="shape" result="effect1_innerShadow_185_1542"/>
    </filter>
    <filter id="filter5_iii_185_1542" x="1199.71" y="308.046" width="190.729" height="206.307" filterUnits="userSpaceOnUse" color-interpolation-filters="sRGB">
    <feFlood flood-opacity="0" result="BackgroundImageFix"/>
    <feBlend mode="normal" in="SourceGraphic" in2="BackgroundImageFix" result="shape"/>
    <feColorMatrix in="SourceAlpha" type="matrix" values="0 0 0 0 0 0 0 0 0 0 0 0 0 0 0 0 0 0 127 0" result="hardAlpha"/>
    <feOffset dy="4"/>
    <feGaussianBlur stdDeviation="2"/>
    <feComposite in2="hardAlpha" operator="arithmetic" k2="-1" k3="1"/>
    <feColorMatrix type="matrix" values="0 0 0 0 0 0 0 0 0 0 0 0 0 0 0 0 0 0 0.25 0"/>
    <feBlend mode="normal" in2="shape" result="effect1_innerShadow_185_1542"/>
    <feColorMatrix in="SourceAlpha" type="matrix" values="0 0 0 0 0 0 0 0 0 0 0 0 0 0 0 0 0 0 127 0" result="hardAlpha"/>
    <feOffset dy="4"/>
    <feGaussianBlur stdDeviation="2"/>
    <feComposite in2="hardAlpha" operator="arithmetic" k2="-1" k3="1"/>
    <feColorMatrix type="matrix" values="0 0 0 0 1 0 0 0 0 1 0 0 0 0 1 0 0 0 0.25 0"/>
    <feBlend mode="normal" in2="effect1_innerShadow_185_1542" result="effect2_innerShadow_185_1542"/>
    <feColorMatrix in="SourceAlpha" type="matrix" values="0 0 0 0 0 0 0 0 0 0 0 0 0 0 0 0 0 0 127 0" result="hardAlpha"/>
    <feOffset dy="4"/>
    <feGaussianBlur stdDeviation="5"/>
    <feComposite in2="hardAlpha" operator="arithmetic" k2="-1" k3="1"/>
    <feColorMatrix type="matrix" values="0 0 0 0 1 0 0 0 0 1 0 0 0 0 1 0 0 0 0.5 0"/>
    <feBlend mode="normal" in2="effect2_innerShadow_185_1542" result="effect3_innerShadow_185_1542"/>
    </filter>
    <filter id="filter6_i_185_1542" x="1214.71" y="323.046" width="160.729" height="180.307" filterUnits="userSpaceOnUse" color-interpolation-filters="sRGB">
    <feFlood flood-opacity="0" result="BackgroundImageFix"/>
    <feBlend mode="normal" in="SourceGraphic" in2="BackgroundImageFix" result="shape"/>
    <feColorMatrix in="SourceAlpha" type="matrix" values="0 0 0 0 0 0 0 0 0 0 0 0 0 0 0 0 0 0 127 0" result="hardAlpha"/>
    <feOffset dy="4"/>
    <feGaussianBlur stdDeviation="2"/>
    <feComposite in2="hardAlpha" operator="arithmetic" k2="-1" k3="1"/>
    <feColorMatrix type="matrix" values="0 0 0 0 1 0 0 0 0 1 0 0 0 0 1 0 0 0 0.25 0"/>
    <feBlend mode="normal" in2="shape" result="effect1_innerShadow_185_1542"/>
    </filter>
    <linearGradient id="paint0_linear_185_1542" x1="1260.1" y1="412.8" x2="1260.1" y2="460.8" gradientUnits="userSpaceOnUse">
    <stop stop-color="#544B4B"/>
    <stop offset="1" stop-color="#1B1B1B"/>
    </linearGradient>
    <linearGradient id="paint1_linear_185_1542" x1="2268" y1="828" x2="2268" y2="1204" gradientUnits="userSpaceOnUse">
    <stop stop-color="#1B1B1B" stop-opacity="0"/>
    <stop offset="0.658654" stop-color="#284F7F" stop-opacity="0.5"/>
    <stop offset="1" stop-color="#204C82"/>
    </linearGradient>
    <linearGradient id="paint2_linear_185_1542" x1="798" y1="725.923" x2="798" y2="380.439" gradientUnits="userSpaceOnUse">
    <stop stop-color="#1E242D" stop-opacity="0"/>
    <stop offset="1" stop-color="white" stop-opacity="0.2"/>
    </linearGradient>
    <linearGradient id="paint3_linear_185_1542" x1="278" y1="319.5" x2="277.5" y2="452" gradientUnits="userSpaceOnUse">
    <stop stop-color="#353535"/>
    <stop offset="1" stop-color="#9B9B9B" stop-opacity="0"/>
    </linearGradient>
    <radialGradient id="paint4_radial_185_1542" cx="0" cy="0" r="1" gradientUnits="userSpaceOnUse" gradientTransform="translate(298.5 389.5) rotate(-143.783) scale(166.711 312.194)">
    <stop stop-color="#FFCDF7" stop-opacity="0"/>
    <stop offset="1" stop-color="#FFCDF7"/>
    </radialGradient>
    <linearGradient id="paint5_linear_185_1542" x1="264" y1="799.5" x2="263.504" y2="472" gradientUnits="userSpaceOnUse">
    <stop offset="0.274981" stop-color="#BE8FFF"/>
    <stop offset="1" stop-color="#9B9B9B" stop-opacity="0"/>
    </linearGradient>
    <linearGradient id="paint6_linear_185_1542" x1="1243.75" y1="457.614" x2="1243.7" y2="515" gradientUnits="userSpaceOnUse">
    <stop stop-color="#386F70"/>
    <stop offset="0.5" stop-color="#386F70"/>
    <stop offset="1" stop-color="#386F70" stop-opacity="0.2"/>
    </linearGradient>
    <radialGradient id="paint7_radial_185_1542" cx="0" cy="0" r="1" gradientUnits="userSpaceOnUse" gradientTransform="translate(1243.5 469) rotate(90) scale(46 294.5)">
    <stop stop-color="#FFCDF7"/>
    <stop offset="1" stop-color="#FFCDF7" stop-opacity="0"/>
    </radialGradient>
    <radialGradient id="paint8_radial_185_1542" cx="0" cy="0" r="1" gradientUnits="userSpaceOnUse" gradientTransform="translate(1299 616.099) rotate(-117.96) scale(119.441 113.483)">
    <stop stop-color="#FFCDF7"/>
    <stop offset="1" stop-color="#75EDEF" stop-opacity="0"/>
    </radialGradient>
    <radialGradient id="paint9_radial_185_1542" cx="0" cy="0" r="1" gradientUnits="userSpaceOnUse" gradientTransform="translate(1370.5 643.599) rotate(-106.03) scale(139.421 132.466)">
    <stop stop-color="white" stop-opacity="0"/>
    <stop offset="1" stop-color="#C6EC75"/>
    </radialGradient>
    <linearGradient id="paint10_linear_185_1542" x1="1373" y1="648.599" x2="1206.5" y2="615.599" gradientUnits="userSpaceOnUse">
    <stop stop-color="#F54E2D" stop-opacity="0"/>
    <stop offset="1" stop-color="#F54E2D"/>
    </linearGradient>
    <linearGradient id="paint11_linear_185_1542" x1="1290.23" y1="692.462" x2="1238" y2="655.099" gradientUnits="userSpaceOnUse">
    <stop stop-color="white" stop-opacity="0"/>
    <stop offset="1" stop-color="white"/>
    </linearGradient>
    <radialGradient id="paint12_radial_185_1542" cx="0" cy="0" r="1" gradientUnits="userSpaceOnUse" gradientTransform="translate(1301 625.599) rotate(-84.1544) scale(211.098 200.567)">
    <stop stop-color="#4C26BE" stop-opacity="0"/>
    <stop offset="0.783465" stop-color="#4C26BE"/>
    </radialGradient>
    <radialGradient id="paint13_radial_185_1542" cx="0" cy="0" r="1" gradientUnits="userSpaceOnUse" gradientTransform="translate(1281.12 555.753) rotate(-98.7098) scale(37.7857 9.91775)">
    <stop stop-color="#FFCDF7"/>
    <stop offset="1" stop-color="#75EDEF" stop-opacity="0"/>
    </radialGradient>
    <radialGradient id="paint14_radial_185_1542" cx="0" cy="0" r="1" gradientUnits="userSpaceOnUse" gradientTransform="translate(1287.16 566.162) rotate(-95.6564) scale(47.2842 10.7987)">
    <stop stop-color="white" stop-opacity="0"/>
    <stop offset="1" stop-color="#C6EC75"/>
    </radialGradient>
    <linearGradient id="paint15_linear_185_1542" x1="1284.29" y1="578.886" x2="1262.94" y2="573.67" gradientUnits="userSpaceOnUse">
    <stop stop-color="#F54E2D" stop-opacity="0"/>
    <stop offset="1" stop-color="#F54E2D"/>
    </linearGradient>
    <linearGradient id="paint16_linear_185_1542" x1="1292" y1="566.6" x2="1285.5" y2="530.6" gradientUnits="userSpaceOnUse">
    <stop stop-color="#4C26BE" stop-opacity="0"/>
    <stop offset="1" stop-color="#4C26BE"/>
    </linearGradient>
    <radialGradient id="paint17_radial_185_1542" cx="0" cy="0" r="1" gradientUnits="userSpaceOnUse" gradientTransform="translate(1340.36 553.129) rotate(-102.038) scale(39.182 15.6474)">
    <stop stop-color="#FFCDF7"/>
    <stop offset="1" stop-color="#75EDEF" stop-opacity="0"/>
    </radialGradient>
    <radialGradient id="paint18_radial_185_1542" cx="0" cy="0" r="1" gradientUnits="userSpaceOnUse" gradientTransform="translate(1349.7 563.699) rotate(-97.3612) scale(48.7414 17.1387)">
    <stop stop-color="white" stop-opacity="0"/>
    <stop offset="1" stop-color="#C6EC75"/>
    </radialGradient>
    <linearGradient id="paint19_linear_185_1542" x1="1344.83" y1="576.872" x2="1313.99" y2="564.579" gradientUnits="userSpaceOnUse">
    <stop stop-color="#F54E2D" stop-opacity="0"/>
    <stop offset="1" stop-color="#F54E2D"/>
    </linearGradient>
    <linearGradient id="paint20_linear_185_1542" x1="1339.91" y1="580.369" x2="1339" y2="546.1" gradientUnits="userSpaceOnUse">
    <stop stop-color="#4C26BE" stop-opacity="0"/>
    <stop offset="1" stop-color="#4C26BE"/>
    </linearGradient>
    <linearGradient id="paint21_linear_185_1542" x1="1350" y1="553.6" x2="1339" y2="571.6" gradientUnits="userSpaceOnUse">
    <stop stop-opacity="0"/>
    <stop offset="1"/>
    </linearGradient>
    <radialGradient id="paint22_radial_185_1542" cx="0" cy="0" r="1" gradientUnits="userSpaceOnUse" gradientTransform="translate(1307 399) rotate(117.96) scale(119.441 113.483)">
    <stop stop-color="#FFCDF7"/>
    <stop offset="1" stop-color="#75EDEF" stop-opacity="0"/>
    </radialGradient>
    <radialGradient id="paint23_radial_185_1542" cx="0" cy="0" r="1" gradientUnits="userSpaceOnUse" gradientTransform="translate(1378.5 371.5) rotate(106.03) scale(139.421 132.466)">
    <stop stop-color="white" stop-opacity="0"/>
    <stop offset="1" stop-color="#C6EC75"/>
    </radialGradient>
    <linearGradient id="paint24_linear_185_1542" x1="1381" y1="366.5" x2="1214.5" y2="399.5" gradientUnits="userSpaceOnUse">
    <stop stop-color="#F54E2D" stop-opacity="0"/>
    <stop offset="1" stop-color="#F54E2D"/>
    </linearGradient>
    <linearGradient id="paint25_linear_185_1542" x1="1298.23" y1="322.638" x2="1246" y2="360" gradientUnits="userSpaceOnUse">
    <stop stop-color="white" stop-opacity="0"/>
    <stop offset="1" stop-color="white"/>
    </linearGradient>
    <radialGradient id="paint26_radial_185_1542" cx="0" cy="0" r="1" gradientUnits="userSpaceOnUse" gradientTransform="translate(1309 389.5) rotate(84.1544) scale(211.098 200.567)">
    <stop stop-color="#4C26BE" stop-opacity="0"/>
    <stop offset="0.783465" stop-color="#4C26BE"/>
    </radialGradient>
    <radialGradient id="paint27_radial_185_1542" cx="0" cy="0" r="1" gradientUnits="userSpaceOnUse" gradientTransform="translate(1289.12 459.346) rotate(98.7098) scale(37.7857 9.91775)">
    <stop stop-color="#FFCDF7"/>
    <stop offset="1" stop-color="#75EDEF" stop-opacity="0"/>
    </radialGradient>
    <radialGradient id="paint28_radial_185_1542" cx="0" cy="0" r="1" gradientUnits="userSpaceOnUse" gradientTransform="translate(1295.16 448.938) rotate(95.6564) scale(47.2842 10.7987)">
    <stop stop-color="white" stop-opacity="0"/>
    <stop offset="1" stop-color="#C6EC75"/>
    </radialGradient>
    <linearGradient id="paint29_linear_185_1542" x1="1292.29" y1="436.214" x2="1270.94" y2="441.43" gradientUnits="userSpaceOnUse">
    <stop stop-color="#F54E2D" stop-opacity="0"/>
    <stop offset="1" stop-color="#F54E2D"/>
    </linearGradient>
    <linearGradient id="paint30_linear_185_1542" x1="1300" y1="448.5" x2="1293.5" y2="484.5" gradientUnits="userSpaceOnUse">
    <stop stop-color="#4C26BE" stop-opacity="0"/>
    <stop offset="1" stop-color="#4C26BE"/>
    </linearGradient>
    <radialGradient id="paint31_radial_185_1542" cx="0" cy="0" r="1" gradientUnits="userSpaceOnUse" gradientTransform="translate(1348.36 461.97) rotate(102.038) scale(39.182 15.6474)">
    <stop stop-color="#FFCDF7"/>
    <stop offset="1" stop-color="#75EDEF" stop-opacity="0"/>
    </radialGradient>
    <radialGradient id="paint32_radial_185_1542" cx="0" cy="0" r="1" gradientUnits="userSpaceOnUse" gradientTransform="translate(1357.7 451.401) rotate(97.3612) scale(48.7414 17.1387)">
    <stop stop-color="white" stop-opacity="0"/>
    <stop offset="1" stop-color="#C6EC75"/>
    </radialGradient>
    <linearGradient id="paint33_linear_185_1542" x1="1352.83" y1="438.227" x2="1321.99" y2="450.521" gradientUnits="userSpaceOnUse">
    <stop stop-color="#F54E2D" stop-opacity="0"/>
    <stop offset="1" stop-color="#F54E2D"/>
    </linearGradient>
    <linearGradient id="paint34_linear_185_1542" x1="1347.91" y1="434.731" x2="1347" y2="469" gradientUnits="userSpaceOnUse">
    <stop stop-color="#4C26BE" stop-opacity="0"/>
    <stop offset="1" stop-color="#4C26BE"/>
    </linearGradient>
    <linearGradient id="paint35_linear_185_1542" x1="1358" y1="461.5" x2="1347" y2="443.5" gradientUnits="userSpaceOnUse">
    <stop stop-opacity="0"/>
    <stop offset="1"/>
    </linearGradient>
    <clipPath id="clip0_185_1542">
    <rect width="1512" height="1016" fill="white"/>
    </clipPath>
    </defs>
    </svg>
    