<svg width="535" height="322" viewBox="0 0 535 322" fill="none" xmlns="http://www.w3.org/2000/svg">
<path d="M530.834 316.81L499.423 310.634V284.813H470.43L470.467 294.97H456.687V276.05H429.181L429.237 304.457H426.838V296.402H422.802V288.645H419.566V281.371H407.515V258.489H380.01L380.084 294.988H365.485V276.069H337.98V286.171H312.743V299.193H308.577V291.417H298.33V269.037H290.259V261.261H273.949V266.451H267.998V268.553H265.99V259.345H241.553V244.425H233.481V236.649H217.172V241.839H211.22V243.942H204.897V256.015H203.056V257.671H189.462V253.094H186.319V244.202H171.813V217.618H142.819L142.857 230.919H121.377L117.639 143.801H121.563C126.435 143.913 126.361 140.788 126.361 140.788C126.324 139.43 125.468 138.667 124.613 138.258C127.16 136.286 127.365 131.84 127.365 131.84C127.365 128.045 123.943 125.738 123.943 125.738V120.083H117.657V115.32C118.457 114.892 119.033 114.241 118.996 113.181C118.996 113.181 118.55 111.86 116.467 111.19V72.8681C117.564 72.3658 118.513 71.4543 118.494 69.7614C118.494 69.7614 118.085 67.7523 116.132 66.6919V40.536H115.426V30.1741H114.719L113.454 0L112.394 30.1741H111.483V40.536H110.832V66.6361C109.809 67.1012 108.805 67.9569 108.526 69.5196C108.526 69.5196 108.284 71.4729 110.293 72.6263V111.042C109.009 111.302 107.763 111.841 107.708 113.013C107.708 113.013 107.336 114.353 108.954 115.246V120.064H102.928V125.719C99.3574 127.952 99.2458 131.226 99.2458 131.226C99.2458 135.616 101.756 138.146 101.756 138.146C99.7666 139.281 100.306 141.16 100.306 141.16C100.417 143.783 106.759 143.783 108.507 143.727L103.97 270.6H101.496V251.997H99.7108V250.099H96.5306V251.755H82.936V247.179H77.301V251.253H70.5316V242.063H41.5383L41.5941 258.508H21.3602V199.35H-6.14526L-6.01508 258.192H-9.15803V250.136H-13.1937V242.379H-16.4296V235.105H-29.4849V241.877H-34.0041V250.825H-37.147V258.285H-40.4945V280.887V231.701H-68L-67.814 322H535L530.816 316.847L530.834 316.81Z" fill="url(#paint0_linear_81_1135)"/>
<path d="M530.834 316.81L499.423 310.634V284.813H470.43L470.467 294.97H456.687V276.05H429.181L429.237 304.457H426.838V296.402H422.802V288.645H419.566V281.371H407.515V258.489H380.01L380.084 294.988H365.485V276.069H337.98V286.171H312.743V299.193H308.577V291.417H298.33V269.037H290.259V261.261H273.949V266.451H267.998V268.553H265.99V259.345H241.553V244.425H233.481V236.649H217.172V241.839H211.22V243.942H204.897V256.015H203.056V257.671H189.462V253.094H186.319V244.202H171.813V217.618H142.819L142.857 230.919H121.377L117.639 143.801H121.563C126.435 143.913 126.361 140.788 126.361 140.788C126.324 139.43 125.468 138.667 124.613 138.258C127.16 136.286 127.365 131.84 127.365 131.84C127.365 128.045 123.943 125.738 123.943 125.738V120.083H117.657V115.32C118.457 114.892 119.033 114.241 118.996 113.181C118.996 113.181 118.55 111.86 116.467 111.19V72.8681C117.564 72.3658 118.513 71.4543 118.494 69.7614C118.494 69.7614 118.085 67.7523 116.132 66.6919V40.536H115.426V30.1741H114.719L113.454 0L112.394 30.1741H111.483V40.536H110.832V66.6361C109.809 67.1012 108.805 67.9569 108.526 69.5196C108.526 69.5196 108.284 71.4729 110.293 72.6263V111.042C109.009 111.302 107.763 111.841 107.708 113.013C107.708 113.013 107.336 114.353 108.954 115.246V120.064H102.928V125.719C99.3574 127.952 99.2458 131.226 99.2458 131.226C99.2458 135.616 101.756 138.146 101.756 138.146C99.7666 139.281 100.306 141.16 100.306 141.16C100.417 143.783 106.759 143.783 108.507 143.727L103.97 270.6H101.496V251.997H99.7108V250.099H96.5306V251.755H82.936V247.179H77.301V251.253H70.5316V242.063H41.5383L41.5941 258.508H21.3602V199.35H-6.14526L-6.01508 258.192H-9.15803V250.136H-13.1937V242.379H-16.4296V235.105H-29.4849V241.877H-34.0041V250.825H-37.147V258.285H-40.4945V280.887V231.701H-68L-67.814 322H535L530.816 316.847L530.834 316.81Z" fill="url(#paint1_radial_81_1135)" fill-opacity="0.2"/>
<path d="M530.834 316.81L499.423 310.634V284.813H470.43L470.467 294.97H456.687V276.05H429.181L429.237 304.457H426.838V296.402H422.802V288.645H419.566V281.371H407.515V258.489H380.01L380.084 294.988H365.485V276.069H337.98V286.171H312.743V299.193H308.577V291.417H298.33V269.037H290.259V261.261H273.949V266.451H267.998V268.553H265.99V259.345H241.553V244.425H233.481V236.649H217.172V241.839H211.22V243.942H204.897V256.015H203.056V257.671H189.462V253.094H186.319V244.202H171.813V217.618H142.819L142.857 230.919H121.377L117.639 143.801H121.563C126.435 143.913 126.361 140.788 126.361 140.788C126.324 139.43 125.468 138.667 124.613 138.258C127.16 136.286 127.365 131.84 127.365 131.84C127.365 128.045 123.943 125.738 123.943 125.738V120.083H117.657V115.32C118.457 114.892 119.033 114.241 118.996 113.181C118.996 113.181 118.55 111.86 116.467 111.19V72.8681C117.564 72.3658 118.513 71.4543 118.494 69.7614C118.494 69.7614 118.085 67.7523 116.132 66.6919V40.536H115.426V30.1741H114.719L113.454 0L112.394 30.1741H111.483V40.536H110.832V66.6361C109.809 67.1012 108.805 67.9569 108.526 69.5196C108.526 69.5196 108.284 71.4729 110.293 72.6263V111.042C109.009 111.302 107.763 111.841 107.708 113.013C107.708 113.013 107.336 114.353 108.954 115.246V120.064H102.928V125.719C99.3574 127.952 99.2458 131.226 99.2458 131.226C99.2458 135.616 101.756 138.146 101.756 138.146C99.7666 139.281 100.306 141.16 100.306 141.16C100.417 143.783 106.759 143.783 108.507 143.727L103.97 270.6H101.496V251.997H99.7108V250.099H96.5306V251.755H82.936V247.179H77.301V251.253H70.5316V242.063H41.5383L41.5941 258.508H21.3602V199.35H-6.14526L-6.01508 258.192H-9.15803V250.136H-13.1937V242.379H-16.4296V235.105H-29.4849V241.877H-34.0041V250.825H-37.147V258.285H-40.4945V280.887V231.701H-68L-67.814 322H535L530.816 316.847L530.834 316.81Z" fill="url(#paint2_radial_81_1135)" fill-opacity="0.2"/>
<defs>
<linearGradient id="paint0_linear_81_1135" x1="234" y1="189.5" x2="233.5" y2="322" gradientUnits="userSpaceOnUse">
<stop stop-color="#353535"/>
<stop offset="1" stop-color="#9B9B9B" stop-opacity="0"/>
</linearGradient>
<radialGradient id="paint1_radial_81_1135" cx="0" cy="0" r="1" gradientUnits="userSpaceOnUse" gradientTransform="translate(254.5 259.5) rotate(-143.783) scale(166.711 312.194)">
<stop stop-color="#FFCDF7" stop-opacity="0"/>
<stop offset="1" stop-color="#FFCDF7"/>
</radialGradient>
<radialGradient id="paint2_radial_81_1135" cx="0" cy="0" r="1" gradientUnits="userSpaceOnUse" gradientTransform="translate(233.5 161) rotate(124.862) scale(162.7 304.683)">
<stop stop-color="#F54E2D"/>
<stop offset="1" stop-color="#F54E2D" stop-opacity="0"/>
</radialGradient>
</defs>
</svg>
