<svg width="32" height="33" viewBox="0 0 32 33" fill="none" xmlns="http://www.w3.org/2000/svg">
<g clip-path="url(#clip0_81_1117)">
<path d="M29.6313 0.5H2.3625C1.05625 0.5 0 1.53125 0 2.80625V30.1875C0 31.4625 1.05625 32.5 2.3625 32.5H29.6313C30.9375 32.5 32 31.4625 32 30.1938V2.80625C32 1.53125 30.9375 0.5 29.6313 0.5ZM9.49375 27.7687H4.74375V12.4937H9.49375V27.7687ZM7.11875 10.4125C5.59375 10.4125 4.3625 9.18125 4.3625 7.6625C4.3625 6.14375 5.59375 4.9125 7.11875 4.9125C8.6375 4.9125 9.86875 6.14375 9.86875 7.6625C9.86875 9.175 8.6375 10.4125 7.11875 10.4125ZM27.2687 27.7687H22.525V20.3438C22.525 18.575 22.4937 16.2937 20.0562 16.2937C17.5875 16.2937 17.2125 18.225 17.2125 20.2188V27.7687H12.475V12.4937H17.025V14.5813H17.0875C17.7188 13.3813 19.2688 12.1125 21.575 12.1125C26.3813 12.1125 27.2687 15.275 27.2687 19.3875V27.7687Z" fill="white"/>
</g>
<defs>
<clipPath id="clip0_81_1117">
<rect width="32" height="32" fill="white" transform="translate(0 0.5)"/>
</clipPath>
</defs>
</svg>
